<svg width="160" height="62" viewBox="0 0 160 62" fill="none" xmlns="http://www.w3.org/2000/svg">
<path d="M5.8915 1.776C6.10483 1.776 6.2915 1.82933 6.4515 1.936C6.62217 2.04267 6.7075 2.21333 6.7075 2.448V2.912C6.7075 3.27467 6.77683 3.57867 6.9155 3.824C7.05417 4.06933 7.2995 4.29333 7.6515 4.496C8.02483 4.70933 8.37683 4.90667 8.7075 5.088C9.04883 5.26933 9.36883 5.43467 9.6675 5.584C9.84883 5.66933 9.95017 5.80267 9.9715 5.984C9.99283 6.15467 9.96083 6.32533 9.8755 6.496C9.79017 6.656 9.66217 6.77333 9.4915 6.848C9.32083 6.912 9.1555 6.90133 8.9955 6.816C8.71817 6.67733 8.41417 6.52267 8.0835 6.352C7.75283 6.17067 7.40617 5.97867 7.0435 5.776C6.6275 5.54133 6.3395 5.34933 6.1795 5.2C6.03017 5.04 5.94483 4.89067 5.9235 4.752H5.9075C5.8755 4.92267 5.76883 5.09333 5.5875 5.264C5.41683 5.424 5.1235 5.62667 4.7075 5.872C4.36617 6.064 4.0195 6.256 3.6675 6.448C3.32617 6.62933 2.9635 6.816 2.5795 7.008C2.37683 7.104 2.18483 7.11467 2.0035 7.04C1.83283 6.95467 1.70483 6.83733 1.6195 6.688C1.53417 6.50667 1.5075 6.32533 1.5395 6.144C1.58217 5.96267 1.70483 5.824 1.9075 5.728C2.31283 5.52533 2.68617 5.33333 3.0275 5.152C3.3795 4.97067 3.7475 4.768 4.1315 4.544C4.4835 4.34133 4.72883 4.11733 4.8675 3.872C5.00617 3.616 5.0755 3.312 5.0755 2.96V2.448C5.0755 2.21333 5.1555 2.04267 5.3155 1.936C5.48617 1.82933 5.67817 1.776 5.8915 1.776ZM10.0995 7.68C10.2915 7.65867 10.4355 7.70667 10.5315 7.824C10.6382 7.94133 10.6968 8.09067 10.7075 8.272C10.7288 8.45333 10.6968 8.61333 10.6115 8.752C10.5368 8.89067 10.4088 8.97067 10.2275 8.992C9.6515 9.04533 9.0595 9.09333 8.4515 9.136C7.8435 9.168 7.2195 9.19467 6.5795 9.216V10.224C6.5795 10.4373 6.4995 10.592 6.3395 10.688C6.19017 10.784 6.0035 10.832 5.7795 10.832C5.56617 10.832 5.3795 10.784 5.2195 10.688C5.07017 10.592 4.9955 10.4373 4.9955 10.224V9.28C4.43017 9.30133 3.8595 9.312 3.2835 9.312C2.7075 9.312 2.12617 9.312 1.5395 9.312C1.3475 9.312 1.2035 9.248 1.1075 9.12C1.02217 8.992 0.979501 8.83733 0.979501 8.656C0.979501 8.47467 1.02217 8.32 1.1075 8.192C1.2035 8.05333 1.3475 7.984 1.5395 7.984C2.96883 7.984 4.37683 7.968 5.7635 7.936C7.16083 7.89333 8.60617 7.808 10.0995 7.68ZM12.3395 1.552C12.5528 1.552 12.7395 1.60533 12.8995 1.712C13.0595 1.81867 13.1395 1.98933 13.1395 2.224V9.792C13.1395 10.0267 13.0595 10.1973 12.8995 10.304C12.7395 10.4107 12.5528 10.464 12.3395 10.464C12.1368 10.464 11.9555 10.4107 11.7955 10.304C11.6355 10.1973 11.5555 10.0267 11.5555 9.792V2.224C11.5555 1.98933 11.6355 1.81867 11.7955 1.712C11.9555 1.60533 12.1368 1.552 12.3395 1.552ZM4.1635 11.088C4.36617 11.088 4.5475 11.1413 4.7075 11.248C4.87817 11.3547 4.9635 11.52 4.9635 11.744V12.592H11.5715V11.744C11.5715 11.52 11.6515 11.3547 11.8115 11.248C11.9715 11.1413 12.1528 11.088 12.3555 11.088C12.5582 11.088 12.7395 11.1413 12.8995 11.248C13.0595 11.3547 13.1395 11.52 13.1395 11.744V15.056C13.1395 15.5147 13.0488 15.8293 12.8675 16C12.6968 16.1707 12.3768 16.256 11.9075 16.256H4.6275C4.15817 16.256 3.83283 16.1707 3.6515 16C3.48083 15.8293 3.3955 15.5147 3.3955 15.056V11.744C3.3955 11.52 3.4755 11.3547 3.6355 11.248C3.7955 11.1413 3.9715 11.088 4.1635 11.088ZM4.9635 14.72C4.9635 14.88 5.0435 14.96 5.2035 14.96H11.3155C11.4862 14.96 11.5715 14.88 11.5715 14.72V13.856H4.9635V14.72ZM25.91 2.576C26.3793 2.576 26.6993 2.66133 26.87 2.832C27.0513 3.00267 27.142 3.31733 27.142 3.776V5.248C27.142 6.22933 27.094 7.10933 26.998 7.888C26.9127 8.656 26.79 9.408 26.63 10.144C26.5767 10.3573 26.4593 10.512 26.278 10.608C26.0967 10.6933 25.8887 10.7093 25.654 10.656C25.462 10.624 25.302 10.544 25.174 10.416C25.0567 10.288 25.0193 10.1173 25.062 9.904C25.2113 9.14667 25.3287 8.39467 25.414 7.648C25.4993 6.90133 25.542 6.08533 25.542 5.2V4.304C25.542 4.08 25.43 3.968 25.206 3.968H17.702C17.4993 3.968 17.3553 3.904 17.27 3.776C17.1847 3.63733 17.142 3.472 17.142 3.28C17.142 3.088 17.1847 2.92267 17.27 2.784C17.3553 2.64533 17.4993 2.576 17.702 2.576H25.91ZM21.222 7.264C21.4353 7.264 21.622 7.31733 21.782 7.424C21.942 7.53067 22.022 7.70133 22.022 7.936V12.624H28.39C28.582 12.624 28.7207 12.6933 28.806 12.832C28.902 12.96 28.95 13.1147 28.95 13.296C28.95 13.4773 28.902 13.6373 28.806 13.776C28.7207 13.9147 28.582 13.984 28.39 13.984H16.07C15.878 13.984 15.734 13.9147 15.638 13.776C15.5527 13.6373 15.51 13.4773 15.51 13.296C15.51 13.1147 15.5527 12.96 15.638 12.832C15.734 12.6933 15.878 12.624 16.07 12.624H20.438V7.936C20.438 7.70133 20.518 7.53067 20.678 7.424C20.838 7.31733 21.0193 7.264 21.222 7.264ZM42.6965 8.56C42.8778 8.53867 43.0218 8.58133 43.1285 8.688C43.2458 8.79467 43.3152 8.93333 43.3365 9.104C43.3578 9.296 43.3312 9.46667 43.2565 9.616C43.1925 9.76533 43.0698 9.85067 42.8885 9.872C42.4832 9.92533 42.0405 9.968 41.5605 10C41.0912 10.032 40.5525 10.0587 39.9445 10.08C39.3365 10.0907 38.6485 10.1013 37.8805 10.112C37.1125 10.1227 36.2272 10.128 35.2245 10.128C35.0325 10.128 34.8885 10.064 34.7925 9.936C34.7072 9.808 34.6645 9.65333 34.6645 9.472C34.6645 9.30133 34.7072 9.152 34.7925 9.024C34.8885 8.88533 35.0325 8.816 35.2245 8.816H36.3445V3.872H35.3365C35.1338 3.872 34.9845 3.808 34.8885 3.68C34.8032 3.54133 34.7605 3.38667 34.7605 3.216C34.7605 3.03467 34.8032 2.88 34.8885 2.752C34.9845 2.624 35.1338 2.56 35.3365 2.56H42.4085C42.6005 2.56 42.7392 2.624 42.8245 2.752C42.9205 2.88 42.9685 3.03467 42.9685 3.216C42.9685 3.38667 42.9205 3.54133 42.8245 3.68C42.7392 3.808 42.6005 3.872 42.4085 3.872H41.4325V8.688C41.6565 8.66667 41.8698 8.64533 42.0725 8.624C42.2858 8.60267 42.4938 8.58133 42.6965 8.56ZM37.8645 8.816C38.5365 8.816 39.2192 8.8 39.9125 8.768V3.872H37.8645V8.816ZM45.7685 1.552C45.9712 1.552 46.1525 1.60533 46.3125 1.712C46.4725 1.81867 46.5525 1.98933 46.5525 2.224V11.696C46.5525 11.9307 46.4725 12.1013 46.3125 12.208C46.1525 12.3147 45.9712 12.368 45.7685 12.368C45.5658 12.368 45.3792 12.3147 45.2085 12.208C45.0485 12.1013 44.9685 11.9307 44.9685 11.696V8.064H43.4325C43.2405 8.064 43.0965 8 43.0005 7.872C42.9152 7.73333 42.8725 7.57333 42.8725 7.392C42.8725 7.21067 42.9152 7.056 43.0005 6.928C43.0965 6.78933 43.2405 6.72 43.4325 6.72H44.9685V5.456H43.4325C43.2405 5.456 43.0965 5.392 43.0005 5.264C42.9152 5.12533 42.8725 4.96533 42.8725 4.784C42.8725 4.60267 42.9152 4.448 43.0005 4.32C43.0965 4.18133 43.2405 4.112 43.4325 4.112H44.9685V2.224C44.9685 1.98933 45.0485 1.81867 45.2085 1.712C45.3792 1.60533 45.5658 1.552 45.7685 1.552ZM37.9605 11.344C38.1632 11.344 38.3445 11.3973 38.5045 11.504C38.6752 11.6107 38.7605 11.7813 38.7605 12.016V14.4C38.7605 14.5173 38.7818 14.5973 38.8245 14.64C38.8778 14.6933 38.9685 14.72 39.0965 14.72H46.3605C46.5632 14.72 46.7072 14.7893 46.7925 14.928C46.8885 15.0667 46.9365 15.232 46.9365 15.424C46.9365 15.6053 46.8885 15.7653 46.7925 15.904C46.7072 16.0427 46.5632 16.112 46.3605 16.112H38.3765C37.9072 16.112 37.5818 16.0267 37.4005 15.856C37.2298 15.6853 37.1445 15.3707 37.1445 14.912V12.016C37.1445 11.7813 37.2245 11.6107 37.3845 11.504C37.5552 11.3973 37.7472 11.344 37.9605 11.344ZM53.451 5.472C54.5177 5.472 55.3497 5.71733 55.947 6.208C56.555 6.688 56.859 7.33333 56.859 8.144C56.859 8.95467 56.555 9.60533 55.947 10.096C55.3497 10.576 54.5177 10.816 53.451 10.816C52.3843 10.816 51.547 10.576 50.939 10.096C50.3417 9.60533 50.043 8.95467 50.043 8.144C50.043 7.33333 50.3417 6.688 50.939 6.208C51.547 5.71733 52.3843 5.472 53.451 5.472ZM53.451 1.52C53.6643 1.52 53.851 1.57333 54.011 1.68C54.171 1.78667 54.251 1.95733 54.251 2.192V3.2H57.115C57.307 3.2 57.4457 3.26933 57.531 3.408C57.627 3.54667 57.675 3.70667 57.675 3.888C57.675 4.06933 57.627 4.22933 57.531 4.368C57.4457 4.50667 57.307 4.576 57.115 4.576H49.627C49.435 4.576 49.291 4.50667 49.195 4.368C49.1097 4.22933 49.067 4.06933 49.067 3.888C49.067 3.70667 49.1097 3.54667 49.195 3.408C49.291 3.26933 49.435 3.2 49.627 3.2H52.651V2.192C52.651 1.95733 52.731 1.78667 52.891 1.68C53.0617 1.57333 53.2483 1.52 53.451 1.52ZM53.451 6.736C52.811 6.736 52.3203 6.86933 51.979 7.136C51.6483 7.392 51.483 7.728 51.483 8.144C51.483 8.54933 51.6483 8.88533 51.979 9.152C52.3203 9.41867 52.811 9.552 53.451 9.552C54.1017 9.552 54.5923 9.41867 54.923 9.152C55.2537 8.88533 55.419 8.54933 55.419 8.144C55.419 7.728 55.2537 7.392 54.923 7.136C54.5923 6.86933 54.1017 6.736 53.451 6.736ZM59.691 1.552C59.9043 1.552 60.091 1.60533 60.251 1.712C60.411 1.81867 60.491 1.98933 60.491 2.224V5.824H62.267C62.4697 5.824 62.6137 5.89333 62.699 6.032C62.795 6.16 62.843 6.32 62.843 6.512C62.843 6.704 62.795 6.86933 62.699 7.008C62.6137 7.136 62.4697 7.2 62.267 7.2H60.491V11.856C60.491 12.0907 60.411 12.2613 60.251 12.368C60.091 12.4747 59.9043 12.528 59.691 12.528C59.4883 12.528 59.307 12.4747 59.147 12.368C58.987 12.2613 58.907 12.0907 58.907 11.856V2.224C58.907 1.98933 58.987 1.81867 59.147 1.712C59.307 1.60533 59.4883 1.552 59.691 1.552ZM52.123 11.632C52.3257 11.632 52.507 11.6853 52.667 11.792C52.8377 11.8987 52.923 12.0693 52.923 12.304V14.4C52.923 14.5173 52.9443 14.5973 52.987 14.64C53.0403 14.6933 53.131 14.72 53.259 14.72H60.299C60.5017 14.72 60.6457 14.7893 60.731 14.928C60.827 15.0667 60.875 15.232 60.875 15.424C60.875 15.6053 60.827 15.7653 60.731 15.904C60.6457 16.0427 60.5017 16.112 60.299 16.112H52.539C52.0697 16.112 51.7443 16.0267 51.563 15.856C51.3923 15.6853 51.307 15.3707 51.307 14.912V12.304C51.307 12.0693 51.387 11.8987 51.547 11.792C51.7177 11.6853 51.9097 11.632 52.123 11.632ZM78.9895 2.048C79.1708 2.048 79.3042 2.11733 79.3895 2.256C79.4855 2.384 79.5335 2.53867 79.5335 2.72C79.5335 2.90133 79.4855 3.056 79.3895 3.184C79.3042 3.312 79.1708 3.376 78.9895 3.376H71.7895C71.5655 3.376 71.4535 3.488 71.4535 3.712V5.456C71.4535 5.68 71.5655 5.792 71.7895 5.792H79.1495C79.3308 5.792 79.4642 5.856 79.5495 5.984C79.6455 6.112 79.6935 6.26667 79.6935 6.448C79.6935 6.62933 79.6455 6.78933 79.5495 6.928C79.4642 7.056 79.3308 7.12 79.1495 7.12H71.0695C70.6002 7.12 70.2802 7.03467 70.1095 6.864C69.9388 6.69333 69.8535 6.37867 69.8535 5.92V3.248C69.8535 2.78933 69.9388 2.47467 70.1095 2.304C70.2802 2.13333 70.6002 2.048 71.0695 2.048H78.9895ZM75.5015 8.72H80.8935C81.0748 8.72 81.2082 8.78933 81.2935 8.928C81.3895 9.056 81.4375 9.21067 81.4375 9.392C81.4375 9.57333 81.3895 9.73333 81.2935 9.872C81.2082 10 81.0748 10.064 80.8935 10.064H68.5415C68.3602 10.064 68.2215 10 68.1255 9.872C68.0402 9.73333 67.9975 9.57333 67.9975 9.392C67.9975 9.21067 68.0402 9.056 68.1255 8.928C68.2215 8.78933 68.3602 8.72 68.5415 8.72H73.9335V6.464H75.5015V8.72ZM74.7175 11.072C76.2642 11.072 77.4642 11.296 78.3175 11.744C79.1815 12.192 79.6135 12.8853 79.6135 13.824C79.6135 14.7733 79.1815 15.4667 78.3175 15.904C77.4642 16.352 76.2642 16.576 74.7175 16.576C73.1708 16.576 71.9655 16.352 71.1015 15.904C70.2482 15.4667 69.8215 14.7733 69.8215 13.824C69.8215 12.8853 70.2482 12.192 71.1015 11.744C71.9655 11.296 73.1708 11.072 74.7175 11.072ZM74.7175 12.352C73.5548 12.352 72.7122 12.48 72.1895 12.736C71.6668 12.9813 71.4055 13.344 71.4055 13.824C71.4055 14.304 71.6668 14.6667 72.1895 14.912C72.7122 15.168 73.5548 15.296 74.7175 15.296C75.8802 15.296 76.7228 15.168 77.2455 14.912C77.7682 14.6667 78.0295 14.304 78.0295 13.824C78.0295 13.344 77.7682 12.9813 77.2455 12.736C76.7228 12.48 75.8802 12.352 74.7175 12.352ZM93.088 1.888C93.5573 1.888 93.8773 1.97333 94.048 2.144C94.2293 2.31467 94.32 2.62933 94.32 3.088V5.472C94.32 5.93067 94.2293 6.24533 94.048 6.416C93.8773 6.58667 93.5573 6.672 93.088 6.672H85.792C85.3227 6.672 85.0027 6.58667 84.832 6.416C84.6613 6.24533 84.576 5.93067 84.576 5.472V3.088C84.576 2.62933 84.6613 2.31467 84.832 2.144C85.0027 1.97333 85.3227 1.888 85.792 1.888H93.088ZM86.496 3.184C86.368 3.184 86.2773 3.21067 86.224 3.264C86.1813 3.30667 86.16 3.392 86.16 3.52V5.04C86.16 5.168 86.1813 5.25867 86.224 5.312C86.2773 5.35467 86.368 5.376 86.496 5.376H92.384C92.512 5.376 92.5973 5.35467 92.64 5.312C92.6933 5.25867 92.72 5.168 92.72 5.04V3.52C92.72 3.392 92.6933 3.30667 92.64 3.264C92.5973 3.21067 92.512 3.184 92.384 3.184H86.496ZM95.616 7.792C95.7973 7.792 95.9307 7.856 96.016 7.984C96.112 8.10133 96.16 8.25067 96.16 8.432C96.16 8.61333 96.112 8.768 96.016 8.896C95.9307 9.024 95.7973 9.088 95.616 9.088H90.224V11.088H88.656V9.088H83.264C83.0827 9.088 82.944 9.024 82.848 8.896C82.7627 8.768 82.72 8.61333 82.72 8.432C82.72 8.25067 82.7627 8.10133 82.848 7.984C82.944 7.856 83.0827 7.792 83.264 7.792H95.616ZM93.104 10.4C93.5733 10.4 93.8933 10.4853 94.064 10.656C94.2453 10.8267 94.336 11.1413 94.336 11.6V12.784C94.336 13.2427 94.2453 13.5573 94.064 13.728C93.8933 13.8987 93.5733 13.984 93.104 13.984H86.336C86.1653 13.984 86.08 14.064 86.08 14.224V14.88C86.08 15.04 86.1653 15.12 86.336 15.12H94.16C94.3413 15.12 94.4747 15.184 94.56 15.312C94.6453 15.44 94.688 15.584 94.688 15.744C94.688 15.9147 94.6453 16.0587 94.56 16.176C94.4747 16.304 94.3413 16.368 94.16 16.368H85.76C85.2907 16.368 84.9653 16.2827 84.784 16.112C84.6133 15.9413 84.528 15.6267 84.528 15.168V13.984C84.528 13.5253 84.6133 13.2107 84.784 13.04C84.9653 12.8693 85.2907 12.784 85.76 12.784H92.528C92.6987 12.784 92.784 12.704 92.784 12.544V11.904C92.784 11.7333 92.6987 11.648 92.528 11.648H85.008C84.8267 11.648 84.6933 11.5893 84.608 11.472C84.5333 11.344 84.496 11.1947 84.496 11.024C84.496 10.864 84.5333 10.72 84.608 10.592C84.6933 10.464 84.8267 10.4 85.008 10.4H93.104ZM98.9945 2.208C99.1972 2.208 99.3785 2.26133 99.5385 2.368C99.6985 2.47467 99.7785 2.64 99.7785 2.864V4.656H103.331V2.864C103.331 2.64 103.411 2.47467 103.57 2.368C103.731 2.26133 103.907 2.208 104.099 2.208C104.301 2.208 104.483 2.26133 104.642 2.368C104.813 2.47467 104.899 2.64 104.899 2.864V8.064C104.899 8.52267 104.808 8.83733 104.627 9.008C104.456 9.17867 104.136 9.264 103.667 9.264H99.4425C98.9732 9.264 98.6478 9.17867 98.4665 9.008C98.2958 8.83733 98.2105 8.52267 98.2105 8.064V2.864C98.2105 2.64 98.2905 2.47467 98.4505 2.368C98.6105 2.26133 98.7918 2.208 98.9945 2.208ZM99.7785 7.616C99.7785 7.82933 99.8905 7.936 100.114 7.936H102.995C103.219 7.936 103.331 7.82933 103.331 7.616V5.984H99.7785V7.616ZM108.819 1.552C109.021 1.552 109.203 1.60533 109.363 1.712C109.523 1.81867 109.602 1.98933 109.602 2.224V9.76C109.602 9.984 109.523 10.1493 109.363 10.256C109.203 10.3627 109.021 10.416 108.819 10.416C108.616 10.416 108.429 10.3627 108.259 10.256C108.099 10.1493 108.019 9.984 108.019 9.76V7.92H106.163C105.971 7.92 105.832 7.856 105.747 7.728C105.661 7.58933 105.618 7.424 105.618 7.232C105.618 7.05067 105.661 6.896 105.747 6.768C105.832 6.62933 105.971 6.56 106.163 6.56H108.019V5.072H106.163C105.971 5.072 105.832 5.008 105.747 4.88C105.661 4.74133 105.618 4.576 105.618 4.384C105.618 4.20267 105.661 4.048 105.747 3.92C105.832 3.78133 105.971 3.712 106.163 3.712H108.019V2.224C108.019 1.98933 108.099 1.81867 108.259 1.712C108.429 1.60533 108.616 1.552 108.819 1.552ZM104.995 10.56C106.488 10.56 107.64 10.8107 108.451 11.312C109.272 11.8027 109.682 12.544 109.682 13.536C109.682 14.528 109.272 15.2693 108.451 15.76C107.64 16.2613 106.488 16.512 104.995 16.512C103.501 16.512 102.344 16.2613 101.523 15.76C100.712 15.2693 100.306 14.528 100.306 13.536C100.306 12.544 100.712 11.8027 101.523 11.312C102.344 10.8107 103.501 10.56 104.995 10.56ZM104.995 11.856C103.907 11.856 103.117 12.0107 102.627 12.32C102.136 12.6187 101.891 13.024 101.891 13.536C101.891 14.048 102.136 14.4533 102.627 14.752C103.117 15.0613 103.907 15.216 104.995 15.216C106.083 15.216 106.872 15.0613 107.363 14.752C107.853 14.4533 108.099 14.048 108.099 13.536C108.099 13.024 107.853 12.6187 107.363 12.32C106.872 12.0107 106.083 11.856 104.995 11.856ZM117.173 1.824C118.442 1.824 119.392 2.07467 120.021 2.576C120.65 3.06667 120.965 3.70667 120.965 4.496C120.965 5.28533 120.65 5.93067 120.021 6.432C119.392 6.92267 118.442 7.168 117.173 7.168C115.904 7.168 114.954 6.92267 114.325 6.432C113.706 5.94133 113.397 5.296 113.397 4.496C113.397 3.696 113.706 3.05067 114.325 2.56C114.954 2.06933 115.904 1.824 117.173 1.824ZM117.173 3.088C116.384 3.088 115.808 3.22133 115.445 3.488C115.082 3.75467 114.901 4.09067 114.901 4.496C114.901 4.90133 115.082 5.23733 115.445 5.504C115.808 5.77067 116.384 5.904 117.173 5.904C117.962 5.904 118.538 5.77067 118.901 5.504C119.274 5.23733 119.461 4.90133 119.461 4.496C119.461 4.09067 119.274 3.75467 118.901 3.488C118.538 3.22133 117.962 3.088 117.173 3.088ZM123.717 1.552C123.93 1.552 124.117 1.60533 124.277 1.712C124.437 1.81867 124.517 1.98933 124.517 2.224V12.176C124.517 12.4107 124.437 12.5813 124.277 12.688C124.117 12.7947 123.93 12.848 123.717 12.848C123.514 12.848 123.333 12.7947 123.173 12.688C123.013 12.5813 122.933 12.4107 122.933 12.176V11.44H120.373C120.192 11.44 120.053 11.3813 119.957 11.264C119.872 11.136 119.829 10.9813 119.829 10.8C119.829 10.6187 119.872 10.464 119.957 10.336C120.053 10.208 120.192 10.144 120.373 10.144H122.933V2.224C122.933 1.98933 123.013 1.81867 123.173 1.712C123.333 1.60533 123.514 1.552 123.717 1.552ZM121.477 7.824C121.658 7.80267 121.802 7.85067 121.909 7.968C122.016 8.07467 122.074 8.224 122.085 8.416C122.106 8.59733 122.074 8.75733 121.989 8.896C121.914 9.03467 121.786 9.11467 121.605 9.136C121.05 9.21067 120.453 9.27467 119.813 9.328C119.184 9.37067 118.522 9.408 117.829 9.44V11.328C117.829 11.5413 117.749 11.7013 117.589 11.808C117.44 11.904 117.253 11.952 117.029 11.952C116.816 11.952 116.629 11.904 116.469 11.808C116.32 11.7013 116.245 11.5413 116.245 11.328V9.488C115.125 9.52 114.016 9.536 112.917 9.536C112.725 9.536 112.581 9.472 112.485 9.344C112.4 9.216 112.357 9.06133 112.357 8.88C112.357 8.69867 112.4 8.544 112.485 8.416C112.581 8.27733 112.725 8.208 112.917 8.208C114.261 8.208 115.664 8.18667 117.125 8.144C118.597 8.10133 120.048 7.99467 121.477 7.824ZM115.525 12.208C115.728 12.208 115.909 12.2613 116.069 12.368C116.24 12.4747 116.325 12.6453 116.325 12.88V14.448C116.325 14.5653 116.346 14.6507 116.389 14.704C116.442 14.7573 116.533 14.784 116.661 14.784H124.341C124.533 14.784 124.672 14.848 124.757 14.976C124.853 15.1147 124.901 15.2747 124.901 15.456C124.901 15.6373 124.853 15.7973 124.757 15.936C124.672 16.0747 124.533 16.144 124.341 16.144H115.941C115.472 16.144 115.146 16.0587 114.965 15.888C114.794 15.7173 114.709 15.4027 114.709 14.944V12.88C114.709 12.6453 114.789 12.4747 114.949 12.368C115.12 12.2613 115.312 12.208 115.525 12.208ZM135.479 1.392C135.693 1.392 135.879 1.44533 136.039 1.552C136.199 1.65867 136.279 1.82933 136.279 2.064V3.248H138.967C139.159 3.248 139.298 3.31733 139.383 3.456C139.479 3.59467 139.527 3.75467 139.527 3.936C139.527 4.11733 139.479 4.27733 139.383 4.416C139.298 4.544 139.159 4.608 138.967 4.608H136.279V5.168C136.279 5.648 136.354 6.03733 136.503 6.336C136.663 6.63467 136.925 6.912 137.287 7.168C137.682 7.44533 138.045 7.696 138.375 7.92C138.706 8.13333 138.983 8.31467 139.207 8.464C139.389 8.58133 139.49 8.736 139.511 8.928C139.543 9.10933 139.506 9.28 139.399 9.44C139.303 9.57867 139.165 9.68 138.983 9.744C138.813 9.808 138.626 9.776 138.423 9.648C138.21 9.52 137.949 9.35467 137.639 9.152C137.341 8.94933 137.037 8.74133 136.727 8.528C136.311 8.22933 136.013 7.984 135.831 7.792C135.65 7.58933 135.543 7.41333 135.511 7.264H135.495C135.453 7.44533 135.335 7.64267 135.143 7.856C134.962 8.05867 134.658 8.30933 134.231 8.608C133.89 8.85333 133.554 9.08267 133.223 9.296C132.903 9.50933 132.578 9.71733 132.247 9.92C132.066 10.0373 131.885 10.064 131.703 10C131.522 9.92533 131.389 9.81333 131.303 9.664C131.207 9.504 131.165 9.33333 131.175 9.152C131.186 8.96 131.287 8.80533 131.479 8.688C131.853 8.45333 132.21 8.21867 132.551 7.984C132.903 7.74933 133.277 7.49333 133.671 7.216C134.034 6.96 134.29 6.68267 134.439 6.384C134.599 6.08533 134.679 5.696 134.679 5.216V4.608H131.879C131.677 4.608 131.527 4.544 131.431 4.416C131.346 4.27733 131.303 4.11733 131.303 3.936C131.303 3.75467 131.346 3.59467 131.431 3.456C131.527 3.31733 131.677 3.248 131.879 3.248H134.679V2.064C134.679 1.82933 134.759 1.65867 134.919 1.552C135.09 1.44533 135.277 1.392 135.479 1.392ZM141.623 1.552C141.837 1.552 142.023 1.60533 142.183 1.712C142.343 1.81867 142.423 1.98933 142.423 2.224V5.088H144.183C144.397 5.088 144.546 5.15733 144.631 5.296C144.727 5.43467 144.775 5.59467 144.775 5.776C144.775 5.97867 144.727 6.14933 144.631 6.288C144.546 6.416 144.397 6.48 144.183 6.48H142.423V9.536C142.423 9.77067 142.343 9.94133 142.183 10.048C142.023 10.1547 141.837 10.208 141.623 10.208C141.41 10.208 141.223 10.1547 141.063 10.048C140.903 9.94133 140.823 9.77067 140.823 9.536V2.224C140.823 1.98933 140.903 1.81867 141.063 1.712C141.223 1.60533 141.41 1.552 141.623 1.552ZM142.199 10.976C142.391 10.976 142.53 11.0453 142.615 11.184C142.711 11.312 142.759 11.4667 142.759 11.648C142.759 11.8293 142.711 11.984 142.615 12.112C142.53 12.24 142.391 12.304 142.199 12.304H138.631V12.528C138.631 12.8373 138.727 13.0933 138.919 13.296C139.111 13.4987 139.447 13.7013 139.927 13.904C140.439 14.1173 140.903 14.304 141.319 14.464C141.746 14.6347 142.183 14.8 142.631 14.96C142.802 15.0133 142.914 15.12 142.967 15.28C143.021 15.4507 143.015 15.616 142.951 15.776C142.887 15.936 142.786 16.0587 142.647 16.144C142.509 16.24 142.338 16.256 142.135 16.192C141.709 16.0427 141.282 15.8827 140.855 15.712C140.429 15.552 140.013 15.3867 139.607 15.216C138.978 14.96 138.541 14.72 138.295 14.496C138.05 14.272 137.901 14.0853 137.847 13.936H137.831C137.789 14.1067 137.639 14.304 137.383 14.528C137.127 14.752 136.685 14.992 136.055 15.248C135.65 15.4187 135.234 15.584 134.807 15.744C134.381 15.9147 133.954 16.0747 133.527 16.224C133.325 16.288 133.154 16.272 133.015 16.176C132.877 16.0907 132.775 15.968 132.711 15.808C132.647 15.6373 132.637 15.4667 132.679 15.296C132.733 15.1253 132.845 15.0133 133.015 14.96C133.474 14.8 133.911 14.64 134.327 14.48C134.754 14.32 135.223 14.128 135.735 13.904C136.215 13.7013 136.551 13.4987 136.743 13.296C136.935 13.0933 137.031 12.8373 137.031 12.528V12.304H133.447C133.266 12.304 133.127 12.24 133.031 12.112C132.946 11.984 132.903 11.8293 132.903 11.648C132.903 11.4667 132.946 11.312 133.031 11.184C133.127 11.0453 133.266 10.976 133.447 10.976H142.199ZM152.058 2.64C152.527 2.64 152.847 2.72533 153.018 2.896C153.199 3.06667 153.29 3.38133 153.29 3.84V5.648C153.29 6.096 153.263 6.50133 153.21 6.864C153.157 7.216 153.055 7.552 152.906 7.872C152.757 8.192 152.549 8.50667 152.282 8.816C152.015 9.11467 151.669 9.43467 151.242 9.776C150.826 10.1067 150.319 10.4693 149.722 10.864C149.125 11.2587 148.415 11.7067 147.594 12.208C147.413 12.3147 147.231 12.336 147.05 12.272C146.869 12.1973 146.725 12.0853 146.618 11.936C146.511 11.7867 146.458 11.6107 146.458 11.408C146.469 11.2053 146.565 11.0453 146.746 10.928C147.503 10.4693 148.149 10.0693 148.682 9.728C149.226 9.376 149.679 9.06133 150.042 8.784C150.405 8.496 150.693 8.23467 150.906 8C151.13 7.75467 151.301 7.51467 151.418 7.28C151.535 7.03467 151.61 6.77867 151.642 6.512C151.674 6.23467 151.69 5.92533 151.69 5.584V4.352C151.69 4.23467 151.663 4.15467 151.61 4.112C151.567 4.05867 151.482 4.032 151.354 4.032H147.194C146.991 4.032 146.842 3.96267 146.746 3.824C146.661 3.68533 146.618 3.52533 146.618 3.344C146.618 3.152 146.661 2.98667 146.746 2.848C146.842 2.70933 146.991 2.64 147.194 2.64H152.058ZM157.018 1.552C157.231 1.552 157.418 1.60533 157.578 1.712C157.749 1.81867 157.834 1.98933 157.834 2.224V14.704C157.834 14.9387 157.749 15.1093 157.578 15.216C157.418 15.3227 157.231 15.376 157.018 15.376C156.815 15.376 156.629 15.3227 156.458 15.216C156.298 15.1093 156.218 14.9387 156.218 14.704V2.224C156.218 1.98933 156.298 1.81867 156.458 1.712C156.629 1.60533 156.815 1.552 157.018 1.552Z" fill="#6656B7"/>
<path d="M26.6414 45.5299L34.0455 38.1259C35.9061 36.2652 35.9061 33.2561 34.0455 31.3955C32.1849 29.5348 29.1758 29.5348 27.3151 31.3955L19.6544 39.0562V34.8601C19.6544 32.2296 17.5243 30.0994 14.8937 30.0994C12.2632 30.0994 10.1331 32.2296 10.1331 34.8601V56.3024C10.1331 58.933 12.2632 61.0631 14.8937 61.0631C17.5243 61.0631 19.6544 58.933 19.6544 56.3024V52.0101L27.3151 59.6708C29.1758 61.5315 32.1849 61.5315 34.0455 59.6708C35.9061 57.8102 35.9061 54.8011 34.0455 52.9404L26.6414 45.5364V45.5299Z" fill="#6656B7"/>
<path d="M117.627 30.0997C114.996 30.0997 112.866 32.2298 112.866 34.8604V43.0087L103.826 31.8641L103.813 31.8512C103.736 31.7614 103.659 31.6716 103.576 31.5882C103.55 31.5561 103.518 31.524 103.492 31.4984C103.479 31.4855 103.466 31.4727 103.454 31.4599C103.274 31.2866 103.088 31.1327 102.889 30.9851C102.857 30.9594 102.818 30.9338 102.786 30.9081C102.709 30.8568 102.626 30.8119 102.543 30.7605C102.491 30.7284 102.44 30.6964 102.382 30.6643C102.318 30.6258 102.247 30.6001 102.183 30.568C102.113 30.5295 102.036 30.4975 101.959 30.4654C101.907 30.4461 101.856 30.4269 101.805 30.4076C101.708 30.3691 101.612 30.3371 101.516 30.305C101.484 30.2986 101.452 30.2922 101.426 30.2793C101.118 30.1895 100.797 30.1382 100.47 30.1125C100.361 30.1061 100.252 30.0933 100.143 30.0933H100.124C100.072 30.0933 100.027 30.0933 99.9761 30.0997C99.8735 30.0997 99.7708 30.0997 99.6682 30.1125C99.5976 30.1189 99.5334 30.1318 99.4629 30.1382C99.3795 30.151 99.2896 30.1638 99.2062 30.1767C99.1292 30.1895 99.0587 30.2088 98.9817 30.228C98.9047 30.2472 98.8277 30.2665 98.7571 30.2857C98.6801 30.3114 98.6031 30.3371 98.5261 30.3627C98.4556 30.3884 98.385 30.4076 98.3208 30.4397C98.2374 30.4718 98.1604 30.5103 98.0834 30.5488C98.0193 30.5809 97.9615 30.6065 97.8974 30.6386C97.8139 30.6835 97.7305 30.7349 97.6471 30.7862C97.5958 30.8183 97.5445 30.8439 97.4932 30.876C97.3969 30.9402 97.3071 31.0108 97.2173 31.0749C97.1852 31.1006 97.1531 31.1198 97.121 31.1455L97.1082 31.1583C97.0055 31.2417 96.9093 31.3316 96.8195 31.4214C96.8002 31.4406 96.7746 31.4599 96.7553 31.4791C96.6462 31.5882 96.5436 31.7037 96.4473 31.8192C96.3832 31.8962 96.3254 31.9796 96.2677 32.063C96.2356 32.1079 96.2035 32.1464 96.1715 32.1913C96.1201 32.2619 96.0816 32.3389 96.0367 32.4159C96.0046 32.4736 95.9661 32.5313 95.9341 32.5891C95.902 32.6532 95.8763 32.711 95.8442 32.7752C95.8057 32.8521 95.7672 32.9291 95.7352 33.0125C95.7159 33.0575 95.7031 33.1024 95.6838 33.1537C95.6453 33.2499 95.6068 33.3526 95.5748 33.4552C95.5684 33.4809 95.5619 33.5066 95.5555 33.5322C95.4657 33.8402 95.4079 34.1674 95.3823 34.5011C95.3759 34.6101 95.3695 34.7192 95.363 34.8283V56.3026C95.363 58.9332 97.4931 61.0633 100.124 61.0633C102.754 61.0633 104.884 58.9332 104.884 56.3026V48.2826L113.7 59.1513C114.034 59.562 114.425 59.902 114.855 60.1715C115.638 60.7297 116.587 61.0633 117.62 61.0633C120.251 61.0633 122.381 58.9332 122.381 56.3026V34.8539C122.381 32.2234 120.251 30.0933 117.62 30.0933L117.627 30.0997Z" fill="#6656B7"/>
<path d="M145.106 44.1247C142.476 44.1247 140.346 46.2548 140.346 48.8853V51.7597H138.613C136.849 51.7597 135.418 50.3289 135.418 48.5645V42.8735C135.418 41.0963 136.862 39.6527 138.639 39.6527H145.106C147.737 39.6527 149.867 37.5226 149.867 34.892C149.867 32.2615 147.737 30.1313 145.106 30.1313H136.002C130.42 30.1313 125.897 34.6546 125.897 40.2366V51.1758C125.897 56.7578 130.42 61.281 136.002 61.281H145.106C147.737 61.281 149.867 59.1509 149.867 56.5204V48.8853C149.867 46.2548 147.737 44.1247 145.106 44.1247V44.1247Z" fill="#6656B7"/>
<path d="M60.4023 48.9175C62.5837 46.9414 63.9632 44.0927 63.9632 40.9103C63.9632 34.937 59.1191 30.0994 53.1522 30.0994H43.9709C43.8811 30.0994 43.7912 30.1058 43.695 30.1122C43.6052 30.1122 43.5154 30.0994 43.4191 30.0994C40.7886 30.0994 38.6584 32.2295 38.6584 34.86V56.3023C38.6584 58.9329 40.7886 61.063 43.4191 61.063C46.0497 61.063 48.1798 58.9329 48.1798 56.3023V51.7277H50.9194L55.1668 58.4966C56.5655 60.723 59.504 61.3966 61.7304 59.9979C63.9567 58.5993 64.6304 55.6607 63.2317 53.4344L60.3959 48.9239L60.4023 48.9175ZM50.6307 45.5812H48.0771C47.5446 45.5812 47.1147 45.1513 47.1147 44.6188V37.4136C47.1147 36.8811 47.5446 36.4512 48.0771 36.4512H50.6307C53.1522 36.4512 55.1925 38.4915 55.1925 41.013C55.1925 43.5345 53.1522 45.5748 50.6307 45.5748V45.5812Z" fill="#6656B7"/>
<path d="M88.485 48.9175C90.6665 46.9414 92.0459 44.0927 92.0459 40.9103C92.0459 34.937 87.2019 30.0994 81.235 30.0994H72.0537C71.9638 30.0994 71.874 30.1058 71.7778 30.1122C71.688 30.1122 71.5981 30.0994 71.5019 30.0994C68.8713 30.0994 66.7412 32.2295 66.7412 34.86V56.3023C66.7412 58.9329 68.8713 61.063 71.5019 61.063C74.1324 61.063 76.2626 58.9329 76.2626 56.3023V51.7277H79.0022L83.2496 58.4966C84.6483 60.723 87.5868 61.3966 89.8132 59.9979C92.0395 58.5993 92.7132 55.6607 91.3145 53.4344L88.4786 48.9239L88.485 48.9175ZM78.8739 45.5812H76.3203C75.7878 45.5812 75.3579 45.1513 75.3579 44.6188V37.4136C75.3579 36.8811 75.7878 36.4512 76.3203 36.4512H78.8739C81.3954 36.4512 83.4357 38.4915 83.4357 41.013C83.4357 43.5345 81.3954 45.5748 78.8739 45.5748V45.5812Z" fill="#6656B7"/>
</svg>
