<svg width="335" height="105" viewBox="0 0 335 105" fill="none" xmlns="http://www.w3.org/2000/svg">
<mask id="mask0_1_4734" style="mask-type:alpha" maskUnits="userSpaceOnUse" x="0" y="0" width="335" height="105">
<rect width="335" height="105" rx="18" fill="#87995F"/>
</mask>
<g mask="url(#mask0_1_4734)">
<rect x="-15" y="-14" width="365" height="132" fill="#6656B7"/>
<path d="M230.105 79.9498C228.897 82.068 229.418 83.2394 230.558 83.6743C229.949 84.7693 231.25 86.3758 232.206 85.978C232.624 87.9823 236.059 88.9004 238.62 85.4191L251.63 74.2588C247.158 73.6789 242.563 72.8809 239.952 72.3762C237.139 74.5161 231.021 78.3433 230.105 79.9498Z" fill="#D7C5EF"/>
<path d="M231.677 51.9312C228.784 51.9311 223.432 53.6707 225.168 60.6292C226.127 63.7034 230.426 70.3566 239.952 72.3762C242.563 72.8809 247.158 73.6789 251.63 74.2588C254.852 74.6766 258.011 74.9812 260.317 74.9812C262.245 73.6714 270.393 70.9682 275.071 67.5879C280.407 63.7326 282.904 58.7749 283.232 53.6707C283.353 51.79 283.179 49.8895 282.745 48.0169C282.118 45.3166 280.949 42.6744 279.338 40.2336L277.654 37.9509C274.817 34.4942 271.052 31.5979 266.701 29.7507C263.287 28.3017 259.513 27.4982 255.544 27.5762C251.248 27.6607 247.666 28.6686 244.695 30.2608C240.927 32.2807 238.144 35.2409 236.138 38.4489C233.209 43.1337 231.937 48.3469 231.677 51.9312Z" fill="#D7C5EF"/>
<path d="M244.695 30.2608C241.802 28.9811 240.181 26.7052 233.54 25.5577C231.553 25.5838 229.292 28.1984 236.138 38.4489C238.144 35.2409 240.927 32.2807 244.695 30.2608Z" fill="#D7C5EF"/>
<path d="M279.338 24.4103C273.842 24.4103 270.178 26.9347 266.701 29.7507C271.052 31.5979 274.817 34.4942 277.654 37.9509C278.422 34.7379 279.567 31.9838 281.399 29.0003C282.273 27.5774 283.689 24.4103 279.338 24.4103Z" fill="#D7C5EF"/>
<path d="M275.071 67.5879C270.393 70.9682 262.245 73.6714 260.317 74.9812C255.205 78.4554 247.966 82.0153 247.966 85.4191C247.966 86.6145 248.424 87.9823 250.566 88.4583C250.566 89.5406 252.317 90.0479 253.281 89.5406C254.607 90.5069 256.439 90.5069 258.271 88.4583C261.758 84.5583 268.425 80.6034 270.407 79.7203C272.468 78.8023 282.882 75.4162 291.561 66.718L291.815 66.4635C300.384 57.8758 307.644 50.6009 300.769 48.0169C296.09 46.7071 293.826 50.2784 292.09 50.6264C290.619 50.9212 290.064 49.2166 287.222 48.3596C285.872 47.9527 284.377 47.7369 282.745 48.0169C283.179 49.8895 283.353 51.79 283.232 53.6707C282.904 58.7749 280.407 63.7326 275.071 67.5879Z" fill="#D7C5EF"/>
<path d="M287.222 48.3596C290.064 49.2166 290.619 50.9212 292.09 50.6264C292.234 48.7417 293.131 44.4455 293.826 42.358C294.693 39.7485 298.504 36.7092 305.881 37.5791C311.783 38.2749 311.811 36.4193 311.088 35.4045C309.786 34.0998 305.013 32.0122 296.334 34.0998C287.655 36.1874 286.643 44.4761 287.222 48.3596Z" fill="#D7C5EF"/>
<path d="M303.109 17.8102C301.373 17.4622 299.637 19.6946 299.203 20.8544C298.335 16.0705 296.014 15.934 294.864 17.3748C293.128 19.5494 292.694 32.1621 299.637 27.813C306.58 23.4639 305.278 18.2451 303.109 17.8102Z" fill="#BDDEE3"/>
<path d="M210.808 36.205C209.45 37.3427 210.098 40.0974 210.728 41.163C206.465 38.8432 204.904 40.571 205.304 42.3722C205.907 45.0907 215.443 53.3325 216.411 45.1843C217.38 37.0361 212.506 34.7828 210.808 36.205Z" fill="#BDDEE3"/>
<path d="M225.168 60.6292C223.432 53.6707 228.879 52.3608 231.772 52.3609C236.979 54.5354 241.753 56.2751 242.621 48.8816C243.388 42.3453 245.658 30.3516 248.262 28.8758C249.602 28.3802 251.48 27.8235 253.035 27.571L250.337 48.8816C249.998 53.6707 253.99 58.0147 269.959 52.7958C273.62 51.3495 281.405 49.1519 283.261 51.9312C283.279 52.512 283.269 53.0923 283.232 53.6707C282.904 58.7749 280.407 63.7326 275.071 67.5879C270.393 70.9682 260.751 73.6765 260.317 74.9812L251.05 74.5861C250.349 74.5563 249.652 74.4721 248.965 74.3343L239.149 72.3667C234.81 71.7868 226.904 67.5878 225.168 60.6292Z" fill="white"/>
<path d="M260.317 74.9812C262.245 73.6714 270.393 70.9682 275.071 67.5879C280.407 63.7326 282.904 58.7749 283.232 53.6707C283.353 51.79 283.179 49.8895 282.745 48.0169M260.317 74.9812C255.205 78.4554 247.966 82.0153 247.966 85.4191C247.966 86.6145 248.424 87.9823 250.566 88.4583M260.317 74.9812C258.011 74.9812 254.852 74.6766 251.63 74.2588M291.561 66.718C282.882 75.4162 272.468 78.8023 270.407 79.7203C268.425 80.6034 261.758 84.5583 258.271 88.4583C256.439 90.5069 254.607 90.5069 253.281 89.5406M291.561 66.718L291.815 66.4635M291.561 66.718C291.646 66.633 291.73 66.5482 291.815 66.4635M292.09 50.6264C293.826 50.2784 296.09 46.7071 300.769 48.0169C307.644 50.6009 300.384 57.8758 291.815 66.4635M292.09 50.6264C290.619 50.9212 290.064 49.2166 287.222 48.3596M292.09 50.6264C292.234 48.7417 293.131 44.4455 293.826 42.358C294.693 39.7485 298.504 36.7092 305.881 37.5791C311.783 38.2749 311.811 36.4193 311.088 35.4045C309.786 34.0998 305.013 32.0122 296.334 34.0998C287.655 36.1874 286.643 44.4761 287.222 48.3596M282.745 48.0169C284.377 47.7369 285.872 47.9527 287.222 48.3596M282.745 48.0169C282.118 45.3166 280.949 42.6744 279.338 40.2336M266.701 29.7507C263.287 28.3017 259.513 27.4982 255.544 27.5762C251.248 27.6607 247.666 28.6686 244.695 30.2608M266.701 29.7507C270.178 26.9347 273.842 24.4103 279.338 24.4103C283.689 24.4103 282.273 27.5774 281.399 29.0003C279.567 31.9838 278.422 34.7379 277.654 37.9509M266.701 29.7507C271.052 31.5979 274.817 34.4942 277.654 37.9509M244.695 30.2608C241.802 28.9811 240.181 26.7052 233.54 25.5577C231.553 25.5838 229.292 28.1984 236.138 38.4489M244.695 30.2608C240.927 32.2807 238.144 35.2409 236.138 38.4489M236.138 38.4489C233.209 43.1337 231.937 48.3469 231.677 51.9312C228.784 51.9311 223.432 53.6707 225.168 60.6292C226.127 63.7034 230.426 70.3566 239.952 72.3762M250.566 88.4583C250.458 87.5867 250.417 85.5837 251.111 84.5441M250.566 88.4583C250.566 89.5406 252.317 90.0479 253.281 89.5406M253.281 89.5406C253.313 88.4584 253.531 86.119 254.149 85.4191M230.558 83.6743C229.418 83.2394 228.897 82.068 230.105 79.9498C231.021 78.3433 237.139 74.5161 239.952 72.3762M230.558 83.6743C230.963 82.9477 232.033 81.4086 233.074 81.0648M230.558 83.6743C229.949 84.7693 231.25 86.3758 232.206 85.978M232.206 85.978C232.624 87.9823 236.059 88.9004 238.62 85.4191L251.63 74.2588M232.206 85.978C232.785 85.2101 234.202 83.5873 235.244 83.2394M279.338 40.2336C278.821 39.4504 278.258 38.6879 277.654 37.9509M279.338 40.2336L277.654 37.9509M239.952 72.3762C242.563 72.8809 247.158 73.6789 251.63 74.2588" stroke="#C5ADE4" stroke-width="1.09951" stroke-linecap="round"/>
<path d="M249.659 54.4688C248.95 53.0534 243.707 52.545 242.958 54.1043C242.209 55.6635 244.145 59.0456 246.025 59.0456C247.904 59.0456 250.608 56.367 249.659 54.4688Z" fill="#413F4C"/>
<path d="M256.577 53.6426C255.429 53.6426 254.499 52.7101 254.499 51.5598C254.499 50.4095 255.429 49.4771 256.577 49.4771C257.725 49.4771 258.655 50.4095 258.655 51.5598C258.655 52.7101 257.725 53.6426 256.577 53.6426Z" fill="#413F4C"/>
<path d="M238.564 53.6426C237.416 53.6426 236.486 52.7101 236.486 51.5598C236.486 50.4095 237.416 49.4771 238.564 49.4771C239.712 49.4771 240.642 50.4095 240.642 51.5598C240.642 52.7101 239.712 53.6426 238.564 53.6426Z" fill="#413F4C"/>
<path d="M253.983 46.6922C253.735 45.1837 256.153 44.2963 258.15 44.1665C260.147 44.0368 262.021 44.5817 261.975 45.4657C261.928 46.3496 254.467 49.6191 253.983 46.6922Z" fill="#C5ADE4"/>
<path d="M242.761 46.6591C243.106 45.1749 241.14 44.3774 239.471 44.3082C237.802 44.239 236.178 44.8272 236.14 45.6921C236.102 46.557 242.102 49.5393 242.761 46.6591Z" fill="#C5ADE4"/>
<path d="M254.065 61.6994C254.065 61.6994 251.899 62.9375 249.564 62.3859C248.374 62.1049 247.139 61.3591 246.125 59.7481M246.125 59.7481V56.7161M246.125 59.7481C245.206 60.8864 244.31 61.533 243.489 61.8677C241.18 62.8084 239.461 61.2843 239.461 61.2843" stroke="#413F4C" stroke-width="1.79011" stroke-linecap="round" stroke-linejoin="round"/>
<path d="M304.24 65.3906C302.938 67.4201 299.554 71.9142 296.429 73.6538" stroke="#A28DBD" stroke-width="1.04179" stroke-linecap="round"/>
<path d="M304.24 70.6095C303.228 72.0592 300.335 75.4805 296.863 77.568" stroke="#A28DBD" stroke-width="1.04179" stroke-linecap="round"/>
<path d="M277.964 27.3939C274.483 27.7611 271.781 30.6069 270.865 31.9839C272.148 32.5347 274.529 34.5849 275.903 35.8854C276.208 34.3554 276.819 31.7544 277.964 30.1479C279.061 28.6079 279.796 27.3939 277.964 27.3939Z" fill="#C5ADE4"/>
</g>
<g filter="url(#filter0_d_1_4734)">
<path d="M40.5195 35.202C40.9875 35.202 41.3115 35.292 41.4915 35.472C41.6715 35.64 41.7615 35.952 41.7615 36.408V39.738C41.7615 40.194 41.6715 40.512 41.4915 40.692C41.3115 40.86 40.9875 40.944 40.5195 40.944H36.1995C35.9715 40.944 35.8575 41.052 35.8575 41.268V44.238C35.8575 44.454 35.9715 44.562 36.1995 44.562C37.6155 44.562 38.8875 44.532 40.0155 44.472C41.1555 44.4 42.2595 44.286 43.3275 44.13C43.4715 44.106 43.5915 44.142 43.6875 44.238C43.7835 44.334 43.8435 44.46 43.8675 44.616C43.8915 44.784 43.8675 44.934 43.7955 45.066C43.7355 45.186 43.6335 45.258 43.4895 45.282C43.0215 45.342 42.5235 45.402 41.9955 45.462C41.4795 45.51 40.9095 45.552 40.2855 45.588C39.6615 45.624 38.9835 45.654 38.2515 45.678C37.5195 45.69 36.7035 45.696 35.8035 45.696C35.3355 45.696 35.0115 45.612 34.8315 45.444C34.6515 45.264 34.5615 44.946 34.5615 44.49V41.052C34.5615 40.596 34.6515 40.284 34.8315 40.116C35.0115 39.936 35.3355 39.846 35.8035 39.846H40.1235C40.3515 39.846 40.4655 39.732 40.4655 39.504V36.66C40.4655 36.444 40.3515 36.336 40.1235 36.336H35.0115C34.8555 36.336 34.7415 36.282 34.6695 36.174C34.5975 36.066 34.5615 35.928 34.5615 35.76C34.5615 35.604 34.5975 35.472 34.6695 35.364C34.7415 35.256 34.8555 35.202 35.0115 35.202H40.5195ZM46.1355 34.068C46.3035 34.068 46.4535 34.11 46.5855 34.194C46.7295 34.278 46.8015 34.416 46.8015 34.608V48.936C46.8015 49.128 46.7295 49.266 46.5855 49.35C46.4535 49.434 46.3035 49.476 46.1355 49.476C45.9675 49.476 45.8175 49.434 45.6855 49.35C45.5535 49.266 45.4875 49.128 45.4875 48.936V34.608C45.4875 34.416 45.5535 34.278 45.6855 34.194C45.8175 34.11 45.9675 34.068 46.1355 34.068ZM52.6183 34.59C52.7863 34.59 52.9363 34.632 53.0683 34.716C53.2003 34.8 53.2663 34.932 53.2663 35.112V37.074H61.4023V35.112C61.4023 34.932 61.4623 34.8 61.5823 34.716C61.7143 34.632 61.8643 34.59 62.0323 34.59C62.2003 34.59 62.3503 34.632 62.4823 34.716C62.6143 34.8 62.6803 34.932 62.6803 35.112V40.422C62.6803 40.878 62.5903 41.196 62.4103 41.376C62.2303 41.544 61.9063 41.628 61.4383 41.628H53.2303C52.7623 41.628 52.4383 41.544 52.2583 41.376C52.0783 41.196 51.9883 40.878 51.9883 40.422V35.112C51.9883 34.932 52.0483 34.8 52.1683 34.716C52.3003 34.632 52.4503 34.59 52.6183 34.59ZM53.2663 40.224C53.2663 40.404 53.3683 40.494 53.5723 40.494H61.0963C61.3003 40.494 61.4023 40.404 61.4023 40.224V38.19H53.2663V40.224ZM64.3723 43.788C64.5403 43.788 64.6603 43.842 64.7323 43.95C64.8043 44.058 64.8403 44.196 64.8403 44.364C64.8403 44.52 64.8043 44.652 64.7323 44.76C64.6603 44.856 64.5403 44.904 64.3723 44.904H60.5923V50.232C60.5923 50.424 60.5263 50.556 60.3943 50.628C60.2743 50.712 60.1303 50.754 59.9623 50.754C59.7943 50.754 59.6503 50.712 59.5303 50.628C59.4103 50.556 59.3503 50.424 59.3503 50.232V44.904H55.3183V50.232C55.3183 50.424 55.2583 50.556 55.1383 50.628C55.0183 50.712 54.8743 50.754 54.7063 50.754C54.5383 50.754 54.3883 50.712 54.2563 50.628C54.1363 50.556 54.0763 50.424 54.0763 50.232V44.904H50.2963C50.1283 44.904 50.0083 44.856 49.9363 44.76C49.8643 44.652 49.8283 44.52 49.8283 44.364C49.8283 44.196 49.8643 44.058 49.9363 43.95C50.0083 43.842 50.1283 43.788 50.2963 43.788H64.3723ZM83.0591 34.662C83.2151 34.662 83.3291 34.716 83.4011 34.824C83.4731 34.932 83.5091 35.058 83.5091 35.202C83.5091 35.358 83.4731 35.49 83.4011 35.598C83.3291 35.706 83.2151 35.76 83.0591 35.76H74.5451C74.3171 35.76 74.2031 35.874 74.2031 36.102V38.712C74.2031 38.94 74.3171 39.054 74.5451 39.054H83.2391C83.3951 39.054 83.5091 39.108 83.5811 39.216C83.6531 39.324 83.6891 39.45 83.6891 39.594C83.6891 39.75 83.6531 39.882 83.5811 39.99C83.5091 40.098 83.3951 40.152 83.2391 40.152H74.1311C73.6631 40.152 73.3391 40.068 73.1591 39.9C72.9791 39.72 72.8891 39.402 72.8891 38.946V35.868C72.8891 35.412 72.9791 35.1 73.1591 34.932C73.3391 34.752 73.6631 34.662 74.1311 34.662H83.0591ZM85.2731 42.042C85.4291 42.042 85.5431 42.096 85.6151 42.204C85.6871 42.312 85.7231 42.444 85.7231 42.6C85.7231 42.768 85.6871 42.906 85.6151 43.014C85.5431 43.122 85.4291 43.176 85.2731 43.176H71.1611C71.0051 43.176 70.8911 43.122 70.8191 43.014C70.7471 42.906 70.7111 42.768 70.7111 42.6C70.7111 42.444 70.7471 42.312 70.8191 42.204C70.8911 42.096 71.0051 42.042 71.1611 42.042H85.2731ZM78.2171 44.814C79.9331 44.814 81.2531 45.06 82.1771 45.552C83.1131 46.032 83.5811 46.782 83.5811 47.802C83.5811 48.822 83.1131 49.572 82.1771 50.052C81.2531 50.544 79.9331 50.79 78.2171 50.79C76.5011 50.79 75.1751 50.544 74.2391 50.052C73.3151 49.572 72.8531 48.822 72.8531 47.802C72.8531 46.782 73.3151 46.032 74.2391 45.552C75.1751 45.06 76.5011 44.814 78.2171 44.814ZM78.2171 45.876C76.8371 45.876 75.8171 46.044 75.1571 46.38C74.4971 46.704 74.1671 47.178 74.1671 47.802C74.1671 48.426 74.4971 48.9 75.1571 49.224C75.8171 49.56 76.8371 49.728 78.2171 49.728C79.5971 49.728 80.6171 49.56 81.2771 49.224C81.9371 48.9 82.2671 48.426 82.2671 47.802C82.2671 47.178 81.9371 46.704 81.2771 46.38C80.6171 46.044 79.5971 45.876 78.2171 45.876ZM98.6139 34.59C99.0819 34.59 99.4059 34.68 99.5859 34.86C99.7659 35.028 99.8559 35.34 99.8559 35.796V37.254C99.8559 37.71 99.7659 38.028 99.5859 38.208C99.4059 38.376 99.0819 38.46 98.6139 38.46H90.8919C90.6999 38.46 90.6039 38.55 90.6039 38.73V39.954C90.6039 40.146 90.6999 40.242 90.8919 40.242H99.8559C99.9999 40.242 100.108 40.296 100.18 40.404C100.252 40.512 100.288 40.632 100.288 40.764C100.288 40.92 100.252 41.052 100.18 41.16C100.108 41.256 99.9999 41.304 99.8559 41.304H90.5679C90.0999 41.304 89.7759 41.22 89.5959 41.052C89.4159 40.872 89.3259 40.554 89.3259 40.098V38.622C89.3259 38.166 89.4159 37.854 89.5959 37.686C89.7759 37.506 90.0999 37.416 90.5679 37.416H98.2899C98.4819 37.416 98.5779 37.326 98.5779 37.146V35.94C98.5779 35.748 98.4819 35.652 98.2899 35.652H89.7219C89.5779 35.652 89.4699 35.598 89.3979 35.49C89.3259 35.382 89.2899 35.256 89.2899 35.112C89.2899 34.968 89.3259 34.848 89.3979 34.752C89.4699 34.644 89.5779 34.59 89.7219 34.59H98.6139ZM95.2479 43.104H101.656C101.812 43.104 101.926 43.158 101.998 43.266C102.07 43.374 102.106 43.5 102.106 43.644C102.106 43.8 102.07 43.932 101.998 44.04C101.926 44.148 101.812 44.202 101.656 44.202H87.5439C87.3879 44.202 87.2739 44.148 87.2019 44.04C87.1299 43.932 87.0939 43.8 87.0939 43.644C87.0939 43.5 87.1299 43.374 87.2019 43.266C87.2739 43.158 87.3879 43.104 87.5439 43.104H93.9519V40.782H95.2479V43.104ZM98.7219 45.678C99.1899 45.678 99.5139 45.768 99.6939 45.948C99.8739 46.116 99.9639 46.428 99.9639 46.884V50.196C99.9639 50.388 99.8979 50.526 99.7659 50.61C99.6339 50.694 99.4839 50.736 99.3159 50.736C99.1479 50.736 98.9979 50.694 98.8659 50.61C98.7339 50.526 98.6679 50.388 98.6679 50.196V47.118C98.6679 46.89 98.5539 46.776 98.3259 46.776H89.4519C89.3079 46.776 89.1999 46.728 89.1279 46.632C89.0559 46.524 89.0199 46.386 89.0199 46.218C89.0199 46.074 89.0559 45.948 89.1279 45.84C89.1999 45.732 89.3079 45.678 89.4519 45.678H98.7219ZM108.391 39C108.979 39 109.507 39.09 109.975 39.27C110.443 39.438 110.839 39.678 111.163 39.99C111.487 40.29 111.733 40.656 111.901 41.088C112.069 41.508 112.153 41.97 112.153 42.474C112.153 42.978 112.069 43.446 111.901 43.878C111.733 44.298 111.487 44.664 111.163 44.976C110.839 45.276 110.443 45.516 109.975 45.696C109.507 45.864 108.979 45.948 108.391 45.948C107.803 45.948 107.275 45.864 106.807 45.696C106.339 45.516 105.943 45.276 105.619 44.976C105.295 44.664 105.049 44.298 104.881 43.878C104.713 43.446 104.629 42.978 104.629 42.474C104.629 41.97 104.713 41.508 104.881 41.088C105.049 40.656 105.295 40.29 105.619 39.99C105.943 39.678 106.339 39.438 106.807 39.27C107.275 39.09 107.803 39 108.391 39ZM108.391 34.068C108.559 34.068 108.709 34.11 108.841 34.194C108.985 34.278 109.057 34.416 109.057 34.608V36.426H112.675C112.831 36.426 112.945 36.48 113.017 36.588C113.089 36.696 113.125 36.828 113.125 36.984C113.125 37.152 113.089 37.29 113.017 37.398C112.945 37.506 112.831 37.56 112.675 37.56H103.927C103.759 37.56 103.639 37.506 103.567 37.398C103.495 37.29 103.459 37.152 103.459 36.984C103.459 36.828 103.495 36.696 103.567 36.588C103.639 36.48 103.759 36.426 103.927 36.426H107.725V34.608C107.725 34.416 107.791 34.278 107.923 34.194C108.067 34.11 108.223 34.068 108.391 34.068ZM108.391 40.098C107.599 40.098 106.975 40.32 106.519 40.764C106.075 41.196 105.853 41.766 105.853 42.474C105.853 43.182 106.075 43.758 106.519 44.202C106.975 44.634 107.599 44.85 108.391 44.85C109.183 44.85 109.801 44.634 110.245 44.202C110.701 43.758 110.929 43.182 110.929 42.474C110.929 41.766 110.701 41.196 110.245 40.764C109.801 40.32 109.183 40.098 108.391 40.098ZM115.411 34.068C115.579 34.068 115.729 34.11 115.861 34.194C115.993 34.278 116.059 34.416 116.059 34.608V39.81H118.345C118.513 39.81 118.633 39.87 118.705 39.99C118.777 40.098 118.813 40.23 118.813 40.386C118.813 40.554 118.777 40.698 118.705 40.818C118.633 40.926 118.513 40.98 118.345 40.98H116.059V48.936C116.059 49.128 115.993 49.266 115.861 49.35C115.729 49.434 115.579 49.476 115.411 49.476C115.243 49.476 115.093 49.434 114.961 49.35C114.829 49.266 114.763 49.128 114.763 48.936V34.608C114.763 34.416 114.829 34.278 114.961 34.194C115.093 34.11 115.243 34.068 115.411 34.068ZM131.488 35.256C131.956 35.256 132.28 35.346 132.46 35.526C132.64 35.694 132.73 36.006 132.73 36.462V38.118C132.73 38.67 132.712 39.192 132.676 39.684C132.652 40.176 132.61 40.656 132.55 41.124C132.502 41.58 132.436 42.03 132.352 42.474C132.28 42.918 132.196 43.362 132.1 43.806C132.064 43.974 131.974 44.094 131.83 44.166C131.686 44.226 131.518 44.244 131.326 44.22C131.158 44.184 131.02 44.112 130.912 44.004C130.816 43.896 130.786 43.764 130.822 43.608C131.014 42.696 131.164 41.802 131.272 40.926C131.38 40.05 131.434 39.096 131.434 38.064V36.75C131.434 36.522 131.32 36.408 131.092 36.408H122.236C122.08 36.408 121.966 36.354 121.894 36.246C121.822 36.138 121.786 36 121.786 35.832C121.786 35.664 121.822 35.526 121.894 35.418C121.966 35.31 122.08 35.256 122.236 35.256H131.488ZM126.268 40.458C126.436 40.458 126.586 40.5 126.718 40.584C126.85 40.668 126.916 40.806 126.916 40.998V46.668H134.404C134.572 46.668 134.692 46.722 134.764 46.83C134.836 46.938 134.872 47.076 134.872 47.244C134.872 47.4 134.836 47.532 134.764 47.64C134.692 47.748 134.572 47.802 134.404 47.802H120.328C120.16 47.802 120.04 47.748 119.968 47.64C119.896 47.532 119.86 47.4 119.86 47.244C119.86 47.076 119.896 46.938 119.968 46.83C120.04 46.722 120.16 46.668 120.328 46.668H125.62V40.998C125.62 40.806 125.686 40.668 125.818 40.584C125.95 40.5 126.1 40.458 126.268 40.458ZM38.6975 58.48C38.9428 58.48 39.1401 58.5333 39.2895 58.64C39.4495 58.7467 39.5295 58.9227 39.5295 59.168V69.344C39.5295 69.5787 39.4495 69.7493 39.2895 69.856C39.1295 69.9627 38.9428 70.016 38.7295 70.016C38.5161 70.016 38.3295 69.9627 38.1695 69.856C38.0095 69.7493 37.9295 69.5787 37.9295 69.344V60.368L35.5295 61.84C35.3268 61.9573 35.1348 61.9787 34.9535 61.904C34.7721 61.8293 34.6281 61.7013 34.5215 61.52C34.4361 61.3493 34.4041 61.1733 34.4255 60.992C34.4575 60.8 34.5695 60.6507 34.7615 60.544L37.6255 58.832C37.8388 58.7147 38.0308 58.6293 38.2015 58.576C38.3721 58.512 38.5375 58.48 38.6975 58.48ZM44.7831 68.432C45.0391 68.4853 45.2311 68.6027 45.3591 68.784C45.4871 68.9547 45.5031 69.1733 45.4071 69.44L44.6071 71.84C44.5324 72.0533 44.4204 72.192 44.2711 72.256C44.1324 72.3307 43.9724 72.352 43.7911 72.32C43.6098 72.288 43.4711 72.2133 43.3751 72.096C43.2898 71.9787 43.2631 71.8293 43.2951 71.648L43.7111 69.072C43.7644 68.7947 43.8924 68.608 44.0951 68.512C44.3084 68.416 44.5378 68.3893 44.7831 68.432ZM51.3915 58.384C52.8315 58.384 53.8715 58.8533 54.5115 59.792C55.1621 60.7307 55.4875 62.0853 55.4875 63.856V64.64C55.4875 66.4107 55.1621 67.7653 54.5115 68.704C53.8715 69.6427 52.8315 70.112 51.3915 70.112C49.9515 70.112 48.9061 69.6427 48.2555 68.704C47.6155 67.7653 47.2955 66.4107 47.2955 64.64V63.856C47.2955 62.0853 47.6155 60.7307 48.2555 59.792C48.9061 58.8533 49.9515 58.384 51.3915 58.384ZM51.3915 59.888C50.9221 59.888 50.5275 59.968 50.2075 60.128C49.8875 60.288 49.6315 60.5387 49.4395 60.88C49.2475 61.2107 49.1088 61.632 49.0235 62.144C48.9488 62.656 48.9115 63.2693 48.9115 63.984V64.512C48.9115 65.2267 48.9488 65.84 49.0235 66.352C49.1088 66.864 49.2475 67.2907 49.4395 67.632C49.6315 67.9627 49.8875 68.208 50.2075 68.368C50.5275 68.528 50.9221 68.608 51.3915 68.608C51.8608 68.608 52.2555 68.528 52.5755 68.368C52.8955 68.208 53.1515 67.9627 53.3435 67.632C53.5355 67.2907 53.6688 66.864 53.7435 66.352C53.8288 65.84 53.8715 65.2267 53.8715 64.512V63.984C53.8715 63.2693 53.8288 62.656 53.7435 62.144C53.6688 61.632 53.5355 61.2107 53.3435 60.88C53.1515 60.5387 52.8955 60.288 52.5755 60.128C52.2555 59.968 51.8608 59.888 51.3915 59.888ZM61.1571 58.384C62.5971 58.384 63.6371 58.8533 64.2771 59.792C64.9278 60.7307 65.2531 62.0853 65.2531 63.856V64.64C65.2531 66.4107 64.9278 67.7653 64.2771 68.704C63.6371 69.6427 62.5971 70.112 61.1571 70.112C59.7171 70.112 58.6718 69.6427 58.0211 68.704C57.3811 67.7653 57.0611 66.4107 57.0611 64.64V63.856C57.0611 62.0853 57.3811 60.7307 58.0211 59.792C58.6718 58.8533 59.7171 58.384 61.1571 58.384ZM61.1571 59.888C60.6878 59.888 60.2931 59.968 59.9731 60.128C59.6531 60.288 59.3971 60.5387 59.2051 60.88C59.0131 61.2107 58.8744 61.632 58.7891 62.144C58.7144 62.656 58.6771 63.2693 58.6771 63.984V64.512C58.6771 65.2267 58.7144 65.84 58.7891 66.352C58.8744 66.864 59.0131 67.2907 59.2051 67.632C59.3971 67.9627 59.6531 68.208 59.9731 68.368C60.2931 68.528 60.6878 68.608 61.1571 68.608C61.6264 68.608 62.0211 68.528 62.3411 68.368C62.6611 68.208 62.9171 67.9627 63.1091 67.632C63.3011 67.2907 63.4344 66.864 63.5091 66.352C63.5944 65.84 63.6371 65.2267 63.6371 64.512V63.984C63.6371 63.2693 63.5944 62.656 63.5091 62.144C63.4344 61.632 63.3011 61.2107 63.1091 60.88C62.9171 60.5387 62.6611 60.288 62.3411 60.128C62.0211 59.968 61.6264 59.888 61.1571 59.888ZM70.9227 58.384C72.3627 58.384 73.4027 58.8533 74.0427 59.792C74.6934 60.7307 75.0187 62.0853 75.0187 63.856V64.64C75.0187 66.4107 74.6934 67.7653 74.0427 68.704C73.4027 69.6427 72.3627 70.112 70.9227 70.112C69.4827 70.112 68.4374 69.6427 67.7867 68.704C67.1467 67.7653 66.8267 66.4107 66.8267 64.64V63.856C66.8267 62.0853 67.1467 60.7307 67.7867 59.792C68.4374 58.8533 69.4827 58.384 70.9227 58.384ZM70.9227 59.888C70.4534 59.888 70.0587 59.968 69.7387 60.128C69.4187 60.288 69.1627 60.5387 68.9707 60.88C68.7787 61.2107 68.6401 61.632 68.5547 62.144C68.4801 62.656 68.4427 63.2693 68.4427 63.984V64.512C68.4427 65.2267 68.4801 65.84 68.5547 66.352C68.6401 66.864 68.7787 67.2907 68.9707 67.632C69.1627 67.9627 69.4187 68.208 69.7387 68.368C70.0587 68.528 70.4534 68.608 70.9227 68.608C71.3921 68.608 71.7867 68.528 72.1067 68.368C72.4267 68.208 72.6827 67.9627 72.8747 67.632C73.0667 67.2907 73.2001 66.864 73.2747 66.352C73.3601 65.84 73.4027 65.2267 73.4027 64.512V63.984C73.4027 63.2693 73.3601 62.656 73.2747 62.144C73.2001 61.632 73.0667 61.2107 72.8747 60.88C72.6827 60.5387 72.4267 60.288 72.1067 60.128C71.7867 59.968 71.3921 59.888 70.9227 59.888ZM91.8084 58.544C92.0003 58.544 92.139 58.6133 92.2243 58.752C92.3204 58.88 92.3684 59.0347 92.3684 59.216C92.3684 59.3973 92.3204 59.552 92.2243 59.68C92.139 59.808 92.0003 59.872 91.8084 59.872H90.2564V64.336H91.8884C92.0697 64.336 92.203 64.4 92.2884 64.528C92.3844 64.656 92.4324 64.8107 92.4324 64.992C92.4324 65.1733 92.3844 65.3333 92.2884 65.472C92.203 65.6 92.0697 65.664 91.8884 65.664H82.2883C82.107 65.664 81.9683 65.6 81.8723 65.472C81.787 65.3333 81.7443 65.1733 81.7443 64.992C81.7443 64.8107 81.787 64.656 81.8723 64.528C81.9683 64.4 82.107 64.336 82.2883 64.336H83.9203V59.872H82.3683C82.1763 59.872 82.0323 59.808 81.9363 59.68C81.851 59.552 81.8083 59.3973 81.8083 59.216C81.8083 59.0347 81.851 58.88 81.9363 58.752C82.0323 58.6133 82.1763 58.544 82.3683 58.544H91.8084ZM88.7044 64.336V59.872H85.4723V64.336H88.7044ZM87.8883 68.624H93.2484C93.4404 68.624 93.579 68.6933 93.6644 68.832C93.7604 68.96 93.8084 69.1147 93.8084 69.296C93.8084 69.4773 93.7604 69.6373 93.6644 69.776C93.579 69.9147 93.4404 69.984 93.2484 69.984H80.9283C80.7363 69.984 80.5923 69.9147 80.4963 69.776C80.411 69.6373 80.3683 69.4773 80.3683 69.296C80.3683 69.1147 80.411 68.96 80.4963 68.832C80.5923 68.6933 80.7363 68.624 80.9283 68.624H86.2884V64.896H87.8883V68.624ZM99.2188 58.272C99.8375 58.272 100.382 58.368 100.851 58.56C101.32 58.752 101.71 59.0133 102.019 59.344C102.328 59.6747 102.558 60.0693 102.707 60.528C102.867 60.976 102.947 61.4613 102.947 61.984C102.947 62.5173 102.867 63.0133 102.707 63.472C102.558 63.92 102.328 64.3093 102.019 64.64C101.71 64.9707 101.32 65.232 100.851 65.424C100.382 65.616 99.8375 65.712 99.2188 65.712C98.5895 65.712 98.0402 65.616 97.5708 65.424C97.1122 65.232 96.7282 64.9707 96.4188 64.64C96.1095 64.3093 95.8748 63.92 95.7148 63.472C95.5655 63.0133 95.4908 62.5173 95.4908 61.984C95.4908 61.4613 95.5655 60.976 95.7148 60.528C95.8748 60.0693 96.1095 59.6747 96.4188 59.344C96.7282 59.0133 97.1122 58.752 97.5708 58.56C98.0402 58.368 98.5895 58.272 99.2188 58.272ZM99.2188 59.632C98.8242 59.632 98.4882 59.696 98.2108 59.824C97.9335 59.9413 97.7042 60.112 97.5228 60.336C97.3522 60.5493 97.2242 60.8 97.1388 61.088C97.0642 61.3653 97.0268 61.664 97.0268 61.984C97.0268 62.304 97.0642 62.608 97.1388 62.896C97.2242 63.184 97.3522 63.4347 97.5228 63.648C97.7042 63.8613 97.9335 64.032 98.2108 64.16C98.4882 64.288 98.8242 64.352 99.2188 64.352C99.6135 64.352 99.9495 64.288 100.227 64.16C100.504 64.032 100.728 63.8613 100.899 63.648C101.08 63.4347 101.208 63.184 101.283 62.896C101.368 62.608 101.411 62.304 101.411 61.984C101.411 61.664 101.368 61.3653 101.283 61.088C101.208 60.8 101.08 60.5493 100.899 60.336C100.728 60.112 100.504 59.9413 100.227 59.824C99.9495 59.696 99.6135 59.632 99.2188 59.632ZM106.195 57.552C106.408 57.552 106.595 57.6053 106.755 57.712C106.915 57.8187 106.995 57.9893 106.995 58.224V67.696C106.995 67.9307 106.915 68.1013 106.755 68.208C106.595 68.3147 106.408 68.368 106.195 68.368C105.982 68.368 105.795 68.3147 105.635 68.208C105.475 68.1013 105.395 67.9307 105.395 67.696V58.224C105.395 57.9893 105.475 57.8187 105.635 57.712C105.795 57.6053 105.982 57.552 106.195 57.552ZM98.4668 67.024C98.6695 67.024 98.8508 67.0773 99.0108 67.184C99.1815 67.2907 99.2668 67.4613 99.2668 67.696V70.4C99.2668 70.5173 99.2882 70.5973 99.3308 70.64C99.3842 70.6933 99.4749 70.72 99.6028 70.72H106.803C107.006 70.72 107.15 70.7893 107.235 70.928C107.331 71.0667 107.379 71.232 107.379 71.424C107.379 71.6053 107.331 71.7653 107.235 71.904C107.15 72.0427 107.006 72.112 106.803 72.112H98.8828C98.4135 72.112 98.0882 72.0267 97.9068 71.856C97.7362 71.6853 97.6508 71.3707 97.6508 70.912V67.696C97.6508 67.4613 97.7308 67.2907 97.8908 67.184C98.0615 67.0773 98.2535 67.024 98.4668 67.024ZM120.517 58.448C120.709 58.448 120.848 58.5173 120.933 58.656C121.029 58.7947 121.077 58.9547 121.077 59.136C121.077 59.3173 121.029 59.4773 120.933 59.616C120.848 59.744 120.709 59.808 120.517 59.808H113.221C113.093 59.808 113.003 59.8347 112.949 59.888C112.907 59.9413 112.885 60.0267 112.885 60.144V61.696H120.357C120.549 61.696 120.688 61.7653 120.773 61.904C120.869 62.032 120.917 62.1813 120.917 62.352C120.917 62.5333 120.869 62.688 120.773 62.816C120.688 62.944 120.549 63.008 120.357 63.008H112.885V64.576C112.885 64.6933 112.907 64.7787 112.949 64.832C113.003 64.8853 113.093 64.912 113.221 64.912H120.789C120.981 64.912 121.12 64.9813 121.205 65.12C121.301 65.248 121.349 65.4027 121.349 65.584C121.349 65.7653 121.301 65.9253 121.205 66.064C121.12 66.192 120.981 66.256 120.789 66.256H112.549C112.08 66.256 111.755 66.176 111.573 66.016C111.403 65.8453 111.317 65.5307 111.317 65.072V59.648C111.317 59.1893 111.403 58.8747 111.573 58.704C111.755 58.5333 112.08 58.448 112.549 58.448H120.517ZM122.373 68.608C122.565 68.608 122.704 68.6773 122.789 68.816C122.885 68.944 122.933 69.104 122.933 69.296C122.933 69.4773 122.885 69.6373 122.789 69.776C122.704 69.9147 122.565 69.984 122.373 69.984H110.053C109.861 69.984 109.717 69.9147 109.621 69.776C109.536 69.6373 109.493 69.4773 109.493 69.296C109.493 69.104 109.536 68.944 109.621 68.816C109.717 68.6773 109.861 68.608 110.053 68.608H122.373ZM129.384 58.208C129.587 58.208 129.768 58.2613 129.928 58.368C130.099 58.4747 130.184 58.6453 130.184 58.88V60.592H133.864V58.88C133.864 58.6453 133.944 58.4747 134.104 58.368C134.264 58.2613 134.445 58.208 134.648 58.208C134.851 58.208 135.032 58.2613 135.192 58.368C135.363 58.4747 135.448 58.6453 135.448 58.88V63.904C135.448 64.3627 135.357 64.6773 135.176 64.848C135.005 65.0187 134.685 65.104 134.216 65.104H129.832C129.363 65.104 129.037 65.0187 128.856 64.848C128.685 64.6773 128.6 64.3627 128.6 63.904V58.88C128.6 58.6453 128.68 58.4747 128.84 58.368C129 58.2613 129.181 58.208 129.384 58.208ZM130.184 63.456C130.184 63.584 130.205 63.6747 130.248 63.728C130.301 63.7707 130.392 63.792 130.52 63.792H133.528C133.645 63.792 133.731 63.7707 133.784 63.728C133.837 63.6747 133.864 63.584 133.864 63.456V61.904H130.184V63.456ZM138.632 57.552C138.845 57.552 139.032 57.6053 139.192 57.712C139.352 57.8187 139.432 57.9893 139.432 58.224V60.976H141.192C141.405 60.976 141.555 61.0453 141.64 61.184C141.736 61.3227 141.784 61.4827 141.784 61.664C141.784 61.8667 141.736 62.0373 141.64 62.176C141.555 62.304 141.405 62.368 141.192 62.368H139.432V65.312C139.432 65.5467 139.352 65.7173 139.192 65.824C139.032 65.9307 138.845 65.984 138.632 65.984C138.419 65.984 138.232 65.9307 138.072 65.824C137.912 65.7173 137.832 65.5467 137.832 65.312V58.224C137.832 57.9893 137.912 57.8187 138.072 57.712C138.232 57.6053 138.419 57.552 138.632 57.552ZM139.064 66.752C139.256 66.752 139.395 66.8213 139.48 66.96C139.576 67.088 139.624 67.2427 139.624 67.424C139.624 67.6053 139.576 67.7653 139.48 67.904C139.395 68.0427 139.256 68.112 139.064 68.112H132.184C132.056 68.112 131.965 68.1387 131.912 68.192C131.869 68.2347 131.848 68.3147 131.848 68.432V70.528C131.848 70.6453 131.869 70.7253 131.912 70.768C131.965 70.8213 132.056 70.848 132.184 70.848H139.224C139.416 70.848 139.555 70.912 139.64 71.04C139.736 71.1787 139.784 71.3387 139.784 71.52C139.784 71.7013 139.736 71.8613 139.64 72C139.555 72.1387 139.416 72.208 139.224 72.208H131.48C131.011 72.208 130.685 72.1227 130.504 71.952C130.333 71.7813 130.248 71.4667 130.248 71.008V67.952C130.248 67.4933 130.333 67.1787 130.504 67.008C130.685 66.8373 131.011 66.752 131.48 66.752H139.064ZM146.586 58.384C147.824 58.384 148.757 58.7893 149.386 59.6C150.016 60.4107 150.33 61.5947 150.33 63.152C150.33 64.7093 150.016 65.8933 149.386 66.704C148.757 67.5147 147.824 67.92 146.586 67.92C145.349 67.92 144.416 67.5147 143.786 66.704C143.168 65.8933 142.858 64.7093 142.858 63.152C142.858 61.5947 143.168 60.4107 143.786 59.6C144.416 58.7893 145.349 58.384 146.586 58.384ZM146.586 59.792C145.808 59.792 145.248 60.08 144.906 60.656C144.576 61.2213 144.41 62.0533 144.41 63.152C144.41 64.2507 144.576 65.088 144.906 65.664C145.248 66.2293 145.808 66.512 146.586 66.512C147.376 66.512 147.936 66.2293 148.266 65.664C148.608 65.088 148.778 64.2507 148.778 63.152C148.778 62.0533 148.608 61.2213 148.266 60.656C147.936 60.08 147.376 59.792 146.586 59.792ZM153.194 57.552C153.408 57.552 153.594 57.6053 153.754 57.712C153.914 57.8187 153.994 57.9893 153.994 58.224V62.384H155.754C155.968 62.384 156.117 62.4533 156.202 62.592C156.298 62.72 156.346 62.88 156.346 63.072C156.346 63.264 156.298 63.4293 156.202 63.568C156.117 63.7067 155.968 63.776 155.754 63.776H153.994V70.704C153.994 70.9387 153.914 71.1093 153.754 71.216C153.594 71.3227 153.408 71.376 153.194 71.376C152.981 71.376 152.794 71.3227 152.634 71.216C152.474 71.1093 152.394 70.9387 152.394 70.704V58.224C152.394 57.9893 152.474 57.8187 152.634 57.712C152.794 57.6053 152.981 57.552 153.194 57.552ZM163.117 58.656C163.586 58.656 163.906 58.7413 164.077 58.912C164.258 59.0827 164.349 59.3973 164.349 59.856V61.632C164.349 62.08 164.322 62.4853 164.269 62.848C164.216 63.2 164.114 63.536 163.965 63.856C163.816 64.176 163.608 64.4907 163.341 64.8C163.085 65.0987 162.744 65.4187 162.317 65.76C161.901 66.0907 161.394 66.4533 160.797 66.848C160.2 67.2427 159.496 67.6907 158.685 68.192C158.504 68.2987 158.322 68.32 158.141 68.256C157.96 68.1813 157.816 68.0693 157.709 67.92C157.602 67.7707 157.549 67.5947 157.549 67.392C157.56 67.1893 157.656 67.0293 157.837 66.912C158.584 66.4533 159.224 66.0533 159.757 65.712C160.29 65.36 160.738 65.0453 161.101 64.768C161.474 64.48 161.768 64.2187 161.981 63.984C162.194 63.7387 162.36 63.4987 162.477 63.264C162.594 63.0187 162.669 62.7627 162.701 62.496C162.733 62.2187 162.749 61.9093 162.749 61.568V60.368C162.749 60.2507 162.722 60.1707 162.669 60.128C162.626 60.0747 162.541 60.048 162.413 60.048H158.285C158.082 60.048 157.933 59.9787 157.837 59.84C157.752 59.7013 157.709 59.5413 157.709 59.36C157.709 59.168 157.752 59.0027 157.837 58.864C157.933 58.7253 158.082 58.656 158.285 58.656H163.117ZM167.757 57.552C167.97 57.552 168.157 57.6053 168.317 57.712C168.477 57.8187 168.557 57.9893 168.557 58.224V62.384H170.317C170.53 62.384 170.68 62.4533 170.765 62.592C170.861 62.72 170.909 62.88 170.909 63.072C170.909 63.264 170.861 63.4293 170.765 63.568C170.68 63.7067 170.53 63.776 170.317 63.776H168.557V70.704C168.557 70.9387 168.477 71.1093 168.317 71.216C168.157 71.3227 167.97 71.376 167.757 71.376C167.544 71.376 167.357 71.3227 167.197 71.216C167.037 71.1093 166.957 70.9387 166.957 70.704V58.224C166.957 57.9893 167.037 57.8187 167.197 57.712C167.357 57.6053 167.544 57.552 167.757 57.552ZM175.391 58.4C175.605 58.4 175.791 58.4533 175.951 58.56C176.111 58.6667 176.191 58.8373 176.191 59.072V61.52C176.191 61.8613 176.207 62.1653 176.239 62.432C176.271 62.6987 176.325 62.9547 176.399 63.2C176.485 63.4347 176.586 63.664 176.703 63.888C176.831 64.1013 176.991 64.32 177.183 64.544C177.461 64.8853 177.733 65.2053 177.999 65.504C178.277 65.8027 178.522 66.0693 178.735 66.304C178.874 66.4533 178.933 66.6293 178.911 66.832C178.89 67.024 178.805 67.184 178.655 67.312C178.527 67.4293 178.367 67.4933 178.175 67.504C177.983 67.5147 177.813 67.4453 177.663 67.296C177.503 67.1253 177.306 66.912 177.071 66.656C176.847 66.4 176.613 66.128 176.367 65.84C176.005 65.4133 175.759 65.088 175.631 64.864C175.514 64.6293 175.439 64.4267 175.407 64.256H175.391C175.359 64.4373 175.279 64.6507 175.151 64.896C175.034 65.1307 174.794 65.4667 174.431 65.904C174.186 66.1813 173.935 66.464 173.679 66.752C173.434 67.0293 173.183 67.3013 172.927 67.568C172.778 67.7173 172.602 67.7867 172.399 67.776C172.197 67.7547 172.037 67.6853 171.919 67.568C171.77 67.4187 171.685 67.248 171.663 67.056C171.642 66.8533 171.706 66.6773 171.855 66.528C172.165 66.1973 172.463 65.872 172.751 65.552C173.05 65.2213 173.338 64.8853 173.615 64.544C173.797 64.32 173.951 64.1013 174.079 63.888C174.207 63.664 174.309 63.4347 174.383 63.2C174.458 62.9547 174.511 62.6987 174.543 62.432C174.575 62.1653 174.591 61.8613 174.591 61.52V59.072C174.591 58.8373 174.671 58.6667 174.831 58.56C175.002 58.4533 175.189 58.4 175.391 58.4ZM183.519 57.552C183.711 57.552 183.882 57.6053 184.031 57.712C184.191 57.808 184.271 57.9627 184.271 58.176V70.752C184.271 70.9653 184.191 71.12 184.031 71.216C183.882 71.3227 183.711 71.376 183.519 71.376C183.338 71.376 183.167 71.3227 183.007 71.216C182.858 71.12 182.783 70.9653 182.783 70.752V58.176C182.783 57.9627 182.858 57.808 183.007 57.712C183.167 57.6053 183.338 57.552 183.519 57.552ZM180.655 57.712C180.837 57.712 181.002 57.7653 181.151 57.872C181.311 57.968 181.391 58.1227 181.391 58.336V70.08C181.391 70.2933 181.311 70.448 181.151 70.544C181.002 70.6507 180.837 70.704 180.655 70.704C180.463 70.704 180.287 70.6507 180.127 70.544C179.978 70.448 179.903 70.2933 179.903 70.08V63.216H178.303C178.111 63.216 177.967 63.152 177.871 63.024C177.786 62.8853 177.743 62.72 177.743 62.528C177.743 62.336 177.786 62.176 177.871 62.048C177.967 61.9093 178.111 61.84 178.303 61.84H179.903V58.336C179.903 58.1227 179.978 57.968 180.127 57.872C180.287 57.7653 180.463 57.712 180.655 57.712ZM193.026 58.112C193.794 58.112 194.482 58.1973 195.09 58.368C195.709 58.5387 196.226 58.7893 196.642 59.12C197.069 59.44 197.394 59.84 197.618 60.32C197.842 60.7893 197.954 61.3227 197.954 61.92C197.954 63.1253 197.517 64.064 196.642 64.736C195.778 65.3973 194.573 65.728 193.026 65.728C191.479 65.728 190.274 65.3973 189.41 64.736C188.546 64.064 188.114 63.1253 188.114 61.92C188.114 61.3227 188.226 60.7893 188.45 60.32C188.674 59.84 188.994 59.44 189.41 59.12C189.837 58.7893 190.354 58.5387 190.962 58.368C191.57 58.1973 192.258 58.112 193.026 58.112ZM193.026 59.472C192.45 59.472 191.954 59.536 191.538 59.664C191.122 59.7813 190.775 59.952 190.498 60.176C190.231 60.3893 190.034 60.6453 189.906 60.944C189.778 61.2427 189.714 61.568 189.714 61.92C189.714 62.272 189.778 62.5973 189.906 62.896C190.034 63.1947 190.231 63.456 190.498 63.68C190.775 63.8933 191.122 64.064 191.538 64.192C191.954 64.3093 192.45 64.368 193.026 64.368C193.602 64.368 194.098 64.3093 194.514 64.192C194.93 64.064 195.271 63.8933 195.538 63.68C195.815 63.456 196.018 63.1947 196.146 62.896C196.274 62.5973 196.338 62.272 196.338 61.92C196.338 61.568 196.274 61.2427 196.146 60.944C196.018 60.6453 195.815 60.3893 195.538 60.176C195.271 59.952 194.93 59.7813 194.514 59.664C194.098 59.536 193.602 59.472 193.026 59.472ZM190.562 66.048C190.775 66.048 190.962 66.1013 191.122 66.208C191.282 66.3147 191.362 66.48 191.362 66.704V68.64H194.69V66.704C194.69 66.48 194.77 66.3147 194.93 66.208C195.09 66.1013 195.277 66.048 195.49 66.048C195.703 66.048 195.89 66.1013 196.05 66.208C196.21 66.3147 196.29 66.48 196.29 66.704V68.64H199.186C199.378 68.64 199.517 68.704 199.602 68.832C199.698 68.96 199.746 69.1147 199.746 69.296C199.746 69.4773 199.698 69.6373 199.602 69.776C199.517 69.9147 199.378 69.984 199.186 69.984H186.866C186.674 69.984 186.53 69.9147 186.434 69.776C186.349 69.6373 186.306 69.4773 186.306 69.296C186.306 69.1147 186.349 68.96 186.434 68.832C186.53 68.704 186.674 68.64 186.866 68.64H189.762V66.704C189.762 66.48 189.842 66.3147 190.002 66.208C190.162 66.1013 190.349 66.048 190.562 66.048ZM202.724 58.16C202.991 58.16 203.204 58.2187 203.364 58.336C203.535 58.4533 203.615 58.6507 203.604 58.928L203.412 66.48C203.402 66.736 203.327 66.9173 203.188 67.024C203.06 67.12 202.906 67.168 202.724 67.168C202.543 67.168 202.383 67.12 202.244 67.024C202.116 66.9173 202.052 66.736 202.052 66.48L201.844 58.928C201.844 58.6507 201.924 58.4533 202.084 58.336C202.244 58.2187 202.458 58.16 202.724 58.16ZM202.724 68.48C203.023 68.48 203.274 68.5813 203.476 68.784C203.679 68.976 203.78 69.2213 203.78 69.52C203.78 69.8187 203.679 70.0693 203.476 70.272C203.274 70.4747 203.023 70.576 202.724 70.576C202.426 70.576 202.175 70.4747 201.972 70.272C201.77 70.0693 201.668 69.8187 201.668 69.52C201.668 69.2213 201.77 68.976 201.972 68.784C202.175 68.5813 202.426 68.48 202.724 68.48Z" fill="white"/>
</g>
<defs>
<filter id="filter0_d_1_4734" x="14.3936" y="14.068" width="209.387" height="78.3" filterUnits="userSpaceOnUse" color-interpolation-filters="sRGB">
<feFlood flood-opacity="0" result="BackgroundImageFix"/>
<feColorMatrix in="SourceAlpha" type="matrix" values="0 0 0 0 0 0 0 0 0 0 0 0 0 0 0 0 0 0 127 0" result="hardAlpha"/>
<feOffset/>
<feGaussianBlur stdDeviation="10"/>
<feComposite in2="hardAlpha" operator="out"/>
<feColorMatrix type="matrix" values="0 0 0 0 0 0 0 0 0 0 0 0 0 0 0 0 0 0 0.15 0"/>
<feBlend mode="normal" in2="BackgroundImageFix" result="effect1_dropShadow_1_4734"/>
<feBlend mode="normal" in="SourceGraphic" in2="effect1_dropShadow_1_4734" result="shape"/>
</filter>
</defs>
</svg>
