<svg width="50" height="50" viewBox="0 0 50 50" fill="none" xmlns="http://www.w3.org/2000/svg">
<path d="M19.2083 5.95009C18.7551 5.95009 18.3877 6.31748 18.3877 6.77069C18.3877 7.22389 18.7551 7.59128 19.2083 7.59128H22.4454V11.2237C14.0713 11.6527 7.41875 18.6093 7.41875 27.1207C7.41875 35.9083 14.5102 43.0387 23.266 43.0387C24.6697 43.0387 26.0319 42.8552 27.3297 42.5103C27.7677 42.3939 28.0284 41.9445 27.912 41.5065C27.7956 41.0685 27.3462 40.8078 26.9082 40.9242C25.7467 41.2328 24.5261 41.3975 23.266 41.3975C15.4238 41.3975 9.05994 35.0092 9.05994 27.1207C9.05994 19.2322 15.4238 12.8439 23.266 12.8439C31.1081 12.8439 37.472 19.2322 37.472 27.1207C37.472 27.5739 37.8394 27.9413 38.2926 27.9413C38.7458 27.9413 39.1132 27.5739 39.1132 27.1207C39.1132 18.6093 32.4606 11.6527 24.0866 11.2237V7.59128H27.5584C28.0116 7.59128 28.379 7.22389 28.379 6.77069C28.379 6.31748 28.0116 5.95009 27.5584 5.95009H19.2083Z" fill="#18132D" stroke="#18132D" stroke-width="0.1" stroke-linecap="round" stroke-linejoin="round"/>
<mask id="path-2-outside-1_2_12504" maskUnits="userSpaceOnUse" x="28.0454" y="31.2003" width="16" height="14" fill="black">
<rect fill="white" x="28.0454" y="31.2003" width="16" height="14"/>
<path fill-rule="evenodd" clip-rule="evenodd" d="M37.7145 34.1268C37.7145 35.1907 36.852 36.0533 35.788 36.0533C34.7241 36.0533 33.8615 35.1907 33.8615 34.1268C33.8615 33.0628 34.7241 32.2003 35.788 32.2003C36.852 32.2003 37.7145 33.0628 37.7145 34.1268ZM30.9719 37.9797C32.0359 37.9797 32.8984 37.1171 32.8984 36.0532C32.8984 34.9892 32.0359 34.1267 30.9719 34.1267C29.9079 34.1267 29.0454 34.9892 29.0454 36.0532C29.0454 37.1171 29.9079 37.9797 30.9719 37.9797ZM35.788 43.9998C38.182 43.9998 40.1226 43.7449 40.1226 41.3509C40.1226 38.957 38.182 37.0163 35.788 37.0163C33.3941 37.0163 31.4534 38.957 31.4534 41.3509C31.4534 43.7449 33.3941 43.9998 35.788 43.9998ZM40.6043 37.9797C41.6682 37.9797 42.5307 37.1171 42.5307 36.0532C42.5307 34.9892 41.6682 34.1267 40.6043 34.1267C39.5403 34.1267 38.6778 34.9892 38.6778 36.0532C38.6778 37.1171 39.5403 37.9797 40.6043 37.9797Z"/>
</mask>
<path fill-rule="evenodd" clip-rule="evenodd" d="M37.7145 34.1268C37.7145 35.1907 36.852 36.0533 35.788 36.0533C34.7241 36.0533 33.8615 35.1907 33.8615 34.1268C33.8615 33.0628 34.7241 32.2003 35.788 32.2003C36.852 32.2003 37.7145 33.0628 37.7145 34.1268ZM30.9719 37.9797C32.0359 37.9797 32.8984 37.1171 32.8984 36.0532C32.8984 34.9892 32.0359 34.1267 30.9719 34.1267C29.9079 34.1267 29.0454 34.9892 29.0454 36.0532C29.0454 37.1171 29.9079 37.9797 30.9719 37.9797ZM35.788 43.9998C38.182 43.9998 40.1226 43.7449 40.1226 41.3509C40.1226 38.957 38.182 37.0163 35.788 37.0163C33.3941 37.0163 31.4534 38.957 31.4534 41.3509C31.4534 43.7449 33.3941 43.9998 35.788 43.9998ZM40.6043 37.9797C41.6682 37.9797 42.5307 37.1171 42.5307 36.0532C42.5307 34.9892 41.6682 34.1267 40.6043 34.1267C39.5403 34.1267 38.6778 34.9892 38.6778 36.0532C38.6778 37.1171 39.5403 37.9797 40.6043 37.9797Z" fill="#6656B7"/>
<path d="M35.788 37.0533C37.4043 37.0533 38.7145 35.743 38.7145 34.1268H36.7145C36.7145 34.6385 36.2997 35.0533 35.788 35.0533V37.0533ZM32.8615 34.1268C32.8615 35.743 34.1718 37.0533 35.788 37.0533V35.0533C35.2763 35.0533 34.8615 34.6385 34.8615 34.1268H32.8615ZM35.788 31.2003C34.1718 31.2003 32.8615 32.5105 32.8615 34.1268H34.8615C34.8615 33.6151 35.2763 33.2003 35.788 33.2003V31.2003ZM38.7145 34.1268C38.7145 32.5105 37.4043 31.2003 35.788 31.2003V33.2003C36.2997 33.2003 36.7145 33.6151 36.7145 34.1268H38.7145ZM31.8984 36.0532C31.8984 36.5649 31.4836 36.9797 30.9719 36.9797V38.9797C32.5882 38.9797 33.8984 37.6694 33.8984 36.0532H31.8984ZM30.9719 35.1267C31.4836 35.1267 31.8984 35.5415 31.8984 36.0532H33.8984C33.8984 34.4369 32.5882 33.1267 30.9719 33.1267V35.1267ZM30.0454 36.0532C30.0454 35.5415 30.4602 35.1267 30.9719 35.1267V33.1267C29.3556 33.1267 28.0454 34.4369 28.0454 36.0532H30.0454ZM30.9719 36.9797C30.4602 36.9797 30.0454 36.5649 30.0454 36.0532H28.0454C28.0454 37.6694 29.3556 38.9797 30.9719 38.9797V36.9797ZM39.1226 41.3509C39.1226 41.8151 39.0291 42.0882 38.9277 42.255C38.8298 42.4159 38.6803 42.5512 38.4331 42.6656C37.8752 42.9237 37.0053 42.9998 35.788 42.9998V44.9998C36.9647 44.9998 38.2621 44.9485 39.273 44.4807C39.8102 44.2321 40.2955 43.8548 40.6363 43.2945C40.9735 42.7402 41.1226 42.0837 41.1226 41.3509H39.1226ZM35.788 38.0163C37.6297 38.0163 39.1226 39.5093 39.1226 41.3509H41.1226C41.1226 38.4047 38.7342 36.0163 35.788 36.0163V38.0163ZM32.4534 41.3509C32.4534 39.5093 33.9464 38.0163 35.788 38.0163V36.0163C32.8418 36.0163 30.4534 38.4047 30.4534 41.3509H32.4534ZM35.788 42.9998C34.5707 42.9998 33.7008 42.9237 33.143 42.6656C32.8958 42.5512 32.7462 42.4159 32.6484 42.255C32.5469 42.0882 32.4534 41.8151 32.4534 41.3509H30.4534C30.4534 42.0837 30.6025 42.7402 30.9397 43.2945C31.2806 43.8548 31.7658 44.2321 32.303 44.4807C33.314 44.9485 34.6114 44.9998 35.788 44.9998V42.9998ZM41.5307 36.0532C41.5307 36.5649 41.1159 36.9797 40.6043 36.9797V38.9797C42.2205 38.9797 43.5307 37.6694 43.5307 36.0532H41.5307ZM40.6043 35.1267C41.1159 35.1267 41.5307 35.5415 41.5307 36.0532H43.5307C43.5307 34.4369 42.2205 33.1267 40.6043 33.1267V35.1267ZM39.6778 36.0532C39.6778 35.5415 40.0926 35.1267 40.6043 35.1267V33.1267C38.988 33.1267 37.6778 34.4369 37.6778 36.0532H39.6778ZM40.6043 36.9797C40.0926 36.9797 39.6778 36.5649 39.6778 36.0532H37.6778C37.6778 37.6694 38.988 38.9797 40.6043 38.9797V36.9797Z" fill="white" mask="url(#path-2-outside-1_2_12504)"/>
<path d="M29.4338 21.5554L29.4338 21.5554C29.6115 21.6727 29.732 21.8249 29.7895 22.012M29.4338 21.5554L29.716 22.0352M29.4338 21.5554L29.431 21.5537M29.4338 21.5554L29.431 21.5537M29.7895 22.012C29.7896 22.0122 29.7896 22.0125 29.7897 22.0127L29.716 22.0352M29.7895 22.012C29.7894 22.0118 29.7894 22.0116 29.7893 22.0114L29.716 22.0352M29.7895 22.012C29.8515 22.2032 29.7906 22.4071 29.6392 22.6147L29.6394 22.6145L29.5769 22.5695M29.716 22.0352C29.7675 22.1935 29.7212 22.3716 29.5769 22.5695M29.5769 22.5695L29.6391 22.6149L29.5769 22.5695ZM29.431 21.5537C29.2523 21.4465 29.0645 21.4072 28.8703 21.4395C28.6708 21.4627 28.5041 21.5708 28.3707 21.7522L28.3703 21.7527L23.7011 28.2078L23.7006 28.2085L29.431 21.5537ZM17.4004 30.8026L20.8261 27.343C20.8261 27.343 20.8262 27.3429 20.8263 27.3429C21.3554 26.815 21.7475 26.3092 21.9996 25.8253C22.253 25.3388 22.3794 24.8071 22.3794 24.2315V24.0831C22.3794 23.707 22.3052 23.3504 22.1568 23.0141C22.0177 22.6758 21.7988 22.3842 21.5015 22.1395C21.2039 21.8846 20.8338 21.6874 20.3934 21.5464C19.9611 21.4048 19.4476 21.3349 18.8545 21.3349C18.0399 21.3349 17.3451 21.5054 16.774 21.8505C16.2187 22.1824 15.7721 22.6006 15.4355 23.1053C15.3123 23.2881 15.2691 23.4782 15.3164 23.6711L15.3163 23.6711L15.3176 23.6753C15.375 23.8628 15.4956 24.0152 15.6735 24.1326C15.8506 24.2495 16.0335 24.3007 16.2199 24.2783L16.2199 24.2784L16.2236 24.2778C16.4191 24.2447 16.5803 24.1445 16.7048 23.9815L16.7049 23.9815L16.7061 23.9798C16.9791 23.6014 17.2855 23.3178 17.6246 23.1263L17.6246 23.1263L17.626 23.1255C17.9618 22.9264 18.3803 22.8246 18.8854 22.8246C19.4951 22.8246 19.938 22.9517 20.2276 23.1926L20.2276 23.1926L20.2286 23.1934C20.5287 23.435 20.6792 23.7585 20.6792 24.1721V24.2463C20.6792 24.4388 20.6591 24.6209 20.6193 24.7929L20.6192 24.7928L20.6185 24.7971C20.5892 24.9654 20.5255 25.1404 20.4258 25.3223C20.3255 25.5053 20.1891 25.7043 20.0159 25.9194L20.0156 25.9198C19.8532 26.1244 19.6338 26.3645 19.3567 26.6402L19.3562 26.6408L15.5837 30.4694L15.5836 30.4695C15.417 30.6394 15.2938 30.7877 15.2172 30.9138C15.1383 31.0436 15.0977 31.1809 15.0977 31.3248C15.0977 31.6189 15.1917 31.8483 15.392 31.9953C15.5877 32.139 15.8971 32.2032 16.3035 32.2032H22.2559C22.4585 32.2032 22.6199 32.1374 22.7208 31.9926C22.8234 31.8502 22.8741 31.686 22.8741 31.5029C22.8741 31.3209 22.8239 31.1612 22.7208 31.0279C22.6209 30.8743 22.4599 30.8026 22.2559 30.8026H17.4004ZM25.257 28.5618L25.2014 28.6388H25.2964L25.352 28.5618H25.257ZM28.8659 28.6388H28.943V28.5618H28.8659V28.6388ZM30.5507 28.5618H30.4736V28.6388H30.5507V28.5618ZM30.5507 29.8557H30.4736V29.9327H30.5507V29.8557ZM32.0675 29.7216C32.068 29.7209 32.0684 29.7203 32.0688 29.7197C32.0692 29.719 32.0697 29.7183 32.0701 29.7176L32.0042 29.6776L32.0675 29.7216ZM32.0701 28.7769C32.0697 28.7762 32.0692 28.7755 32.0688 28.7748C32.0684 28.7742 32.068 28.7736 32.0675 28.773L32.0042 28.8169L32.0701 28.7769ZM28.8659 29.9327H28.943V29.8557H28.8659V29.9327ZM23.4079 28.8318L23.3368 28.8021C23.3366 28.8025 23.3365 28.8029 23.3363 28.8032C23.3362 28.8036 23.336 28.8041 23.3359 28.8045L23.4079 28.8318Z" fill="#6656B7" stroke="#6656B7" stroke-width="0.154119"/>
</svg>
