<svg width="50" height="50" viewBox="0 0 50 50" fill="none" xmlns="http://www.w3.org/2000/svg">
<path d="M19.2083 5.9502C18.7551 5.9502 18.3877 6.31759 18.3877 6.7708C18.3877 7.224 18.7551 7.59139 19.2083 7.59139H22.4454V11.2238C14.0713 11.6528 7.4187 18.6094 7.4187 27.1208C7.4187 35.9084 14.5102 43.0388 23.266 43.0388C24.6697 43.0388 26.0319 42.8553 27.3297 42.5104C27.7677 42.394 28.0284 41.9446 27.912 41.5066C27.7956 41.0686 27.3461 40.8079 26.9081 40.9243C25.7466 41.2329 24.5261 41.3976 23.266 41.3976C15.4238 41.3976 9.05989 35.0093 9.05989 27.1208C9.05989 19.2323 15.4238 12.844 23.266 12.844C31.1081 12.844 37.472 19.2323 37.472 27.1208C37.472 27.574 37.8393 27.9414 38.2925 27.9414C38.7457 27.9414 39.1132 27.574 39.1132 27.1208C39.1132 18.6094 32.4606 11.6528 24.0866 11.2238V7.59139H27.5583C28.0115 7.59139 28.379 7.224 28.379 6.7708C28.379 6.31759 28.0115 5.9502 27.5583 5.9502H19.2083Z" fill="#18132D" stroke="#18132D" stroke-width="0.1" stroke-linecap="round" stroke-linejoin="round"/>
<path d="M19.2 21.836C19.7693 21.836 20.2593 21.906 20.67 22.046C21.09 22.186 21.4307 22.3727 21.692 22.606C21.9627 22.8393 22.1587 23.1147 22.28 23.432C22.4107 23.74 22.476 24.062 22.476 24.398V24.552C22.476 25.084 22.35 25.5973 22.098 26.092C21.8553 26.5773 21.496 27.058 21.02 27.534L18.066 30.46H22.308C22.5227 30.46 22.6813 30.5347 22.784 30.684C22.8867 30.824 22.938 30.9967 22.938 31.202C22.938 31.4073 22.8867 31.5847 22.784 31.734C22.6813 31.874 22.5227 31.944 22.308 31.944H16.974C16.526 31.944 16.204 31.8647 16.008 31.706C15.812 31.5473 15.714 31.3047 15.714 30.978C15.714 30.8287 15.7513 30.6887 15.826 30.558C15.91 30.4273 16.0267 30.2827 16.176 30.124L19.424 26.848C19.6853 26.5867 19.8953 26.358 20.054 26.162C20.2127 25.9567 20.3387 25.7653 20.432 25.588C20.5253 25.4107 20.586 25.2427 20.614 25.084C20.6513 24.916 20.67 24.7433 20.67 24.566V24.496C20.67 24.188 20.5487 23.936 20.306 23.74C20.0727 23.5347 19.7133 23.432 19.228 23.432C18.808 23.432 18.458 23.5113 18.178 23.67C17.898 23.8287 17.6367 24.0667 17.394 24.384C17.2633 24.5613 17.1 24.664 16.904 24.692C16.708 24.72 16.5167 24.6687 16.33 24.538C16.1433 24.4073 16.022 24.244 15.966 24.048C15.91 23.852 15.952 23.6467 16.092 23.432C16.4 22.9747 16.8107 22.5967 17.324 22.298C17.8373 21.99 18.4627 21.836 19.2 21.836ZM29.5476 22.046C29.7343 22.1673 29.8556 22.326 29.9116 22.522C29.977 22.718 29.9303 22.9327 29.7716 23.166L26.1176 28.444H29.0156V26.148C29.0156 25.8867 29.1043 25.6953 29.2816 25.574C29.459 25.4527 29.6643 25.392 29.8976 25.392C30.131 25.392 30.3363 25.4527 30.5136 25.574C30.691 25.6953 30.7796 25.8867 30.7796 26.148V28.444H31.6336C31.8483 28.444 32.0023 28.5187 32.0956 28.668C32.189 28.808 32.2356 28.976 32.2356 29.172C32.2356 29.3587 32.189 29.5267 32.0956 29.676C32.0023 29.816 31.8483 29.886 31.6336 29.886H30.7796V31.272C30.7796 31.5333 30.691 31.7247 30.5136 31.846C30.3363 31.9673 30.131 32.028 29.8976 32.028C29.6643 32.028 29.459 31.9673 29.2816 31.846C29.1043 31.7247 29.0156 31.5333 29.0156 31.272V29.886H25.0956C24.7036 29.886 24.419 29.816 24.2416 29.676C24.0736 29.536 23.9896 29.3167 23.9896 29.018C23.9896 28.9713 23.9943 28.9247 24.0036 28.878C24.013 28.822 24.0316 28.7613 24.0596 28.696C24.0876 28.6213 24.1296 28.5373 24.1856 28.444C24.2416 28.3413 24.321 28.2153 24.4236 28.066L28.4416 22.256C28.5816 22.0507 28.7543 21.9387 28.9596 21.92C29.165 21.892 29.361 21.934 29.5476 22.046Z" fill="#6656B7"/>
<path fill-rule="evenodd" clip-rule="evenodd" d="M37.7145 34.1267C37.7145 35.1906 36.852 36.0532 35.788 36.0532C34.7241 36.0532 33.8615 35.1906 33.8615 34.1267C33.8615 33.0627 34.7241 32.2002 35.788 32.2002C36.852 32.2002 37.7145 33.0627 37.7145 34.1267ZM30.9719 37.9796C32.0359 37.9796 32.8984 37.117 32.8984 36.0531C32.8984 34.9891 32.0359 34.1266 30.9719 34.1266C29.9079 34.1266 29.0454 34.9891 29.0454 36.0531C29.0454 37.117 29.9079 37.9796 30.9719 37.9796ZM35.788 43.9997C38.182 43.9997 40.1226 43.7448 40.1226 41.3508C40.1226 38.9569 38.182 37.0162 35.788 37.0162C33.3941 37.0162 31.4534 38.9569 31.4534 41.3508C31.4534 43.7448 33.3941 43.9997 35.788 43.9997ZM40.6043 37.9796C41.6682 37.9796 42.5307 37.117 42.5307 36.0531C42.5307 34.9891 41.6682 34.1266 40.6043 34.1266C39.5403 34.1266 38.6778 34.9891 38.6778 36.0531C38.6778 37.117 39.5403 37.9796 40.6043 37.9796Z" fill="#6656B7"/>
<path d="M35.788 37.0532C37.4043 37.0532 38.7145 35.7429 38.7145 34.1267H36.7145C36.7145 34.6384 36.2997 35.0532 35.788 35.0532V37.0532ZM32.8615 34.1267C32.8615 35.7429 34.1718 37.0532 35.788 37.0532V35.0532C35.2763 35.0532 34.8615 34.6384 34.8615 34.1267H32.8615ZM35.788 31.2002C34.1718 31.2002 32.8615 32.5104 32.8615 34.1267H34.8615C34.8615 33.615 35.2763 33.2002 35.788 33.2002V31.2002ZM38.7145 34.1267C38.7145 32.5104 37.4043 31.2002 35.788 31.2002V33.2002C36.2997 33.2002 36.7145 33.615 36.7145 34.1267H38.7145ZM31.8984 36.0531C31.8984 36.5648 31.4836 36.9796 30.9719 36.9796V38.9796C32.5882 38.9796 33.8984 37.6693 33.8984 36.0531H31.8984ZM30.9719 35.1266C31.4836 35.1266 31.8984 35.5414 31.8984 36.0531H33.8984C33.8984 34.4368 32.5882 33.1266 30.9719 33.1266V35.1266ZM30.0454 36.0531C30.0454 35.5414 30.4602 35.1266 30.9719 35.1266V33.1266C29.3556 33.1266 28.0454 34.4368 28.0454 36.0531H30.0454ZM30.9719 36.9796C30.4602 36.9796 30.0454 36.5648 30.0454 36.0531H28.0454C28.0454 37.6693 29.3556 38.9796 30.9719 38.9796V36.9796ZM39.1226 41.3508C39.1226 41.815 39.0291 42.0881 38.9277 42.2549C38.8298 42.4158 38.6803 42.5511 38.4331 42.6655C37.8752 42.9236 37.0053 42.9997 35.788 42.9997V44.9997C36.9647 44.9997 38.2621 44.9484 39.273 44.4806C39.8102 44.232 40.2955 43.8547 40.6363 43.2944C40.9735 42.7401 41.1226 42.0836 41.1226 41.3508H39.1226ZM35.788 38.0162C37.6297 38.0162 39.1226 39.5092 39.1226 41.3508H41.1226C41.1226 38.4046 38.7342 36.0162 35.788 36.0162V38.0162ZM32.4534 41.3508C32.4534 39.5092 33.9464 38.0162 35.788 38.0162V36.0162C32.8418 36.0162 30.4534 38.4046 30.4534 41.3508H32.4534ZM35.788 42.9997C34.5707 42.9997 33.7008 42.9236 33.143 42.6655C32.8958 42.5511 32.7462 42.4158 32.6484 42.2549C32.5469 42.0881 32.4534 41.815 32.4534 41.3508H30.4534C30.4534 42.0836 30.6025 42.7401 30.9397 43.2944C31.2806 43.8547 31.7658 44.232 32.303 44.4806C33.314 44.9484 34.6114 44.9997 35.788 44.9997V42.9997ZM41.5307 36.0531C41.5307 36.5648 41.1159 36.9796 40.6043 36.9796V38.9796C42.2205 38.9796 43.5307 37.6693 43.5307 36.0531H41.5307ZM40.6043 35.1266C41.1159 35.1266 41.5307 35.5414 41.5307 36.0531H43.5307C43.5307 34.4368 42.2205 33.1266 40.6043 33.1266V35.1266ZM39.6778 36.0531C39.6778 35.5414 40.0926 35.1266 40.6043 35.1266V33.1266C38.988 33.1266 37.6778 34.4368 37.6778 36.0531H39.6778ZM40.6043 36.9796C40.0926 36.9796 39.6778 36.5648 39.6778 36.0531H37.6778C37.6778 37.6693 38.988 38.9796 40.6043 38.9796V36.9796Z" fill="white"/>
</svg>
