<svg width="50" height="50" viewBox="0 0 50 50" fill="none" xmlns="http://www.w3.org/2000/svg">
<path fill-rule="evenodd" clip-rule="evenodd" d="M27.5703 17.3035C27.4508 17.2115 27.319 17.1472 27.1916 17.1028C26.8235 16.9744 26.3988 16.9783 26.0797 17.0489C25.571 17.1613 25.1747 17.3848 24.917 17.7469C24.8962 17.7762 24.8765 17.8059 24.8581 17.8361C24.8309 17.8257 24.8023 17.8177 24.7726 17.8124C24.4338 17.7527 24.0866 17.7879 23.7628 17.911C23.4395 18.0339 23.1512 18.2399 22.9204 18.5056C22.6897 18.7711 22.5218 19.0901 22.4286 19.4337C22.3354 19.7773 22.3188 20.1386 22.3815 20.4868C22.4152 20.6737 22.4714 20.8547 22.5489 21.025C22.5144 21.0463 22.4808 21.0691 22.4481 21.0935C22.2522 21.2395 22.0982 21.4339 21.9964 21.6563C21.8947 21.8784 21.8475 22.1228 21.8559 22.3678C21.8644 22.6127 21.9283 22.8537 22.0427 23.0703C22.1043 23.1871 22.1801 23.2956 22.268 23.3929C22.2252 23.4515 22.1863 23.5132 22.1517 23.5775C22.0266 23.8103 21.9624 24.0704 21.9657 24.3346C21.9691 24.5987 22.0398 24.8572 22.1706 25.0869C22.3013 25.3165 22.4876 25.5098 22.7117 25.6509C22.8638 25.7467 23.0304 25.8166 23.2044 25.8585C23.2326 26.0482 23.2933 26.2333 23.3822 26.4053C23.5033 26.6397 23.6751 26.8467 23.8832 27.009C24.0912 27.1713 24.3326 27.2866 24.5885 27.3407C24.8447 27.3948 25.1096 27.3863 25.3585 27.3085C25.4853 27.2688 25.5827 27.179 25.6356 27.0678C25.6614 27.1359 25.6929 27.2023 25.7298 27.2665C25.9869 27.7122 26.4809 27.998 27.1224 27.9998C27.3025 28.0036 27.5507 27.9516 27.78 27.7959C28.4229 27.9437 28.9839 27.7609 29.3547 27.4023C29.3789 27.379 29.4023 27.3546 29.4251 27.3293C29.6522 27.3874 29.8904 27.3895 30.1215 27.3407C30.3774 27.2866 30.6188 27.1713 30.8268 27.009C31.0349 26.8467 31.2067 26.6397 31.3278 26.4053C31.4167 26.2333 31.4773 26.0482 31.5055 25.8585C31.6795 25.8166 31.8461 25.7467 31.9983 25.6509C32.2223 25.5098 32.4086 25.3165 32.5394 25.0869C32.6702 24.8572 32.7409 24.5987 32.7442 24.3346C32.7476 24.0704 32.6834 23.8103 32.5582 23.5775C32.5237 23.5132 32.4848 23.4515 32.4419 23.3929C32.5299 23.2956 32.6056 23.1871 32.6673 23.0703C32.7816 22.8537 32.8456 22.6127 32.854 22.3678C32.8625 22.1228 32.8153 21.8784 32.7136 21.6563C32.6117 21.4339 32.4578 21.2395 32.2619 21.0935C32.2292 21.0691 32.1956 21.0463 32.1611 21.025C32.2386 20.8547 32.2948 20.6737 32.3285 20.4868C32.3912 20.1386 32.3746 19.7773 32.2814 19.4337C32.1882 19.0901 32.0202 18.7711 31.7895 18.5056C31.5587 18.2399 31.2705 18.0339 30.9471 17.911C30.679 17.8091 30.3948 17.7674 30.1126 17.79C29.8709 17.4331 29.4585 17.1577 28.9665 17.0489C28.485 16.9424 28.0341 17.0346 27.6956 17.2248C27.6539 17.2482 27.6118 17.2745 27.5703 17.3035Z" fill="#CEC8F0"/>
<path d="M25.9456 41.5146C25.8638 38.4056 24.7675 32.0896 21.0368 31.6969C16.3733 31.206 11.7099 32.1878 10.2373 29.9788C10.0222 29.6561 9.80179 29.3334 9.58613 29.0145C8.32551 27.1506 7.22579 25.4174 8.27374 24.579C9.25551 23.7936 11.6281 22.9427 12.6917 22.6155C13.8371 22.37 16.4224 21.3392 17.6006 19.1793C18.7874 17.0035 21.09 15.1465 24.5084 14.3791C26.0021 14.0438 27.2128 12.8558 27.5719 11.3676C27.8429 10.2443 28.2655 9.14649 28.8909 8.62525C30.3636 7.39803 34.894 14.5145 35.7633 19.4247C36.2359 22.0942 37.9723 32.9242 42.1449 35.1331" stroke="#18132D" stroke-width="1.6" stroke-linecap="round"/>
<path d="M25.2959 24.2622C25.3969 24.261 25.4936 24.2857 25.5775 24.3339C25.6613 24.3822 25.7298 24.4525 25.7767 24.5387C25.8237 24.6249 25.8477 24.7244 25.8466 24.8282" stroke="#4F4197" stroke-linecap="round" stroke-linejoin="round"/>
<path d="M26.8549 20.8963C26.7822 20.8738 26.7043 20.8723 26.6284 20.8918C26.5525 20.9114 26.4807 20.9514 26.4195 21.0083C26.3584 21.0653 26.3096 21.1373 26.2777 21.2182C26.2457 21.2991 26.2315 21.3862 26.2363 21.4719C26.2411 21.5576 26.2648 21.6393 26.3052 21.7096" stroke="#4F4197" stroke-linecap="round" stroke-linejoin="round"/>
<path d="M27.5384 18.235C27.5384 17.5268 26.624 17.4047 26.0717 17.5269C25.1286 17.7354 24.8411 18.2961 24.8411 19.0993M27.5384 18.235C27.5384 17.8402 28.2046 17.3498 29.005 17.5269C29.9377 17.7331 30.4228 18.6078 29.8872 19.0835M27.5384 18.235V18.4466M26.0218 26.9176C25.651 27.5416 26.0131 28.4851 27.1079 28.4851C27.3125 28.4914 27.7584 28.3622 27.905 27.7957M24.451 18.364C24.1729 18.315 23.8854 18.3434 23.6139 18.4466C23.3425 18.5498 23.0955 18.7246 22.8948 18.9557C22.6941 19.1868 22.5459 19.4669 22.4633 19.7712C22.3807 20.0755 22.3664 20.3947 22.4214 20.7005C22.4765 21.0062 22.5994 21.2891 22.7791 21.5241C22.9588 21.759 23.1898 21.9388 23.4517 22.0475M23.4396 25.84C23.3485 26.0103 23.3032 26.2068 23.3077 26.4119C23.3122 26.6171 23.3663 26.8246 23.4652 27.0162C23.5642 27.2077 23.705 27.3774 23.8751 27.51C24.0452 27.6427 24.2394 27.7344 24.4404 27.7769C24.6415 27.8194 24.8432 27.8114 25.0277 27.7537M22.7869 21.6597C22.6113 21.6789 22.4443 21.7449 22.3008 21.8519C22.1572 21.9589 22.0415 22.1036 21.9639 22.2731C21.8862 22.4426 21.8491 22.6318 21.8557 22.8238C21.8624 23.0159 21.9126 23.2049 22.0019 23.3741C22.0912 23.5433 22.2169 23.6875 22.3678 23.7939C22.5188 23.9003 22.6903 23.9656 22.8672 23.9841M22.5301 23.949C22.357 24.0636 22.2158 24.2176 22.1191 24.3975C22.0224 24.5774 21.9732 24.7776 21.9757 24.9804C21.9783 25.1832 22.0326 25.3823 22.1338 25.56C22.235 25.7378 22.38 25.8888 22.556 25.9996C22.7319 26.1104 22.9334 26.1776 23.1426 26.1952M27.6978 28.2062C29.005 28.6809 29.7923 27.5416 29.4215 26.9176M30.259 18.364C30.5371 18.315 30.8246 18.3434 31.096 18.4466C31.3675 18.5498 31.6145 18.7246 31.8152 18.9557C32.0159 19.1868 32.1641 19.4669 32.2467 19.7712C32.3292 20.0755 32.3436 20.3947 32.2885 20.7005C32.2334 21.0062 32.1106 21.2891 31.9309 21.5241C31.7512 21.759 31.5201 21.9388 31.2582 22.0475M31.2704 25.84C31.3615 26.0103 31.4068 26.2068 31.4023 26.4119C31.3978 26.6171 31.3437 26.8246 31.2447 27.0162C31.1458 27.2077 31.005 27.3774 30.8349 27.51C30.6648 27.6427 30.4706 27.7344 30.2696 27.7769C30.0685 27.8194 29.8668 27.8114 29.6823 27.7537M31.9231 21.6597C32.0987 21.6789 32.2656 21.7449 32.4092 21.8519C32.5527 21.9589 32.6685 22.1036 32.7461 22.2731C32.8237 22.4426 32.8609 22.6318 32.8542 22.8238C32.8476 23.0159 32.7974 23.2049 32.7081 23.3741C32.6187 23.5433 32.493 23.6875 32.3421 23.7939C32.1912 23.9003 32.0197 23.9656 31.8428 23.9841M32.1799 23.949C32.353 24.0636 32.4942 24.2176 32.5908 24.3975C32.6875 24.5774 32.7368 24.7776 32.7342 24.9804C32.7317 25.1832 32.6774 25.3823 32.5762 25.56C32.4749 25.7378 32.3299 25.8888 32.154 25.9996C31.978 26.1104 31.7765 26.1776 31.5674 26.1952" stroke="#4F4197" stroke-linecap="round"/>
<path d="M28.5312 24.6419C28.7156 24.6341 28.8913 24.5845 29.0427 24.4977C29.194 24.4108 29.3164 24.2893 29.399 24.1439C29.4816 23.9986 29.5219 23.8338 29.5162 23.6642" stroke="#4F4197" stroke-linecap="round" stroke-linejoin="round"/>
<path d="M29.3013 21.106C29.371 21.1366 29.4309 21.1863 29.4756 21.2507C29.5203 21.3152 29.5485 21.3923 29.5576 21.4754C29.5667 21.5585 29.5565 21.6449 29.5278 21.727C29.4992 21.8091 29.453 21.8843 29.3933 21.9461C29.3337 22.0078 29.2624 22.0541 29.1859 22.0809" stroke="#4F4197" stroke-linecap="round" stroke-linejoin="round"/>
</svg>
