<svg width="50" height="50" viewBox="0 0 50 50" fill="none" xmlns="http://www.w3.org/2000/svg">
<path d="M24.9855 8.82436C23.4362 8.85009 21.746 9.0903 19.9079 9.62794C19.2839 8.80392 17.8569 7.72172 15.652 8.08449C11.5636 8.75711 9.87615 13.4422 9.36249 15.7029C8.4038 19.9221 11.2798 20.855 13.3153 18.4222C12.618 23.2538 8.43977 31.3627 22.0383 31.9846C23.3047 32.0371 26.2565 32.1081 27.9326 31.9722C41.5312 31.3503 37.3529 23.2415 36.6556 18.4098C38.6911 20.8426 41.5672 19.9097 40.6085 15.6905C40.0948 13.4298 38.4073 8.74473 34.319 8.07211C32.114 7.70935 30.6871 8.79155 30.063 9.61556C28.2249 9.07793 26.5348 8.83772 24.9855 8.81198" stroke="#18132D" stroke-width="1.6" stroke-linecap="round"/>
<path d="M20.1494 9.89087C22.2988 13.921 28.0486 21.659 37.0761 23.5935C37.0761 22.7874 36.5925 20.8529 34.658 19.5633M24.1796 9.08484L27.4037 12.309" stroke="#18132D" stroke-width="1.6" stroke-linecap="round"/>
<path d="M17.0002 31.5C15.2678 34.0946 11.7713 40.9787 16.1023 42.7112C16.6656 42.9365 18.0951 43.224 19.2642 42.5345C20.0343 42.0803 20.673 41.1737 20.7717 40.1126M20.4334 38.3801C20.729 38.9714 20.8229 39.5627 20.7717 40.1126M20.7717 40.1126C21.7616 40.7469 23.4849 40.908 24.9857 40.908C26.4866 40.908 28.2098 40.7469 29.1998 40.1126M33.0002 31.5C34.7327 34.0946 38.2002 40.9787 33.8692 42.7112C33.3059 42.9365 31.8764 43.224 30.7073 42.5345C29.9372 42.0803 29.2985 41.1737 29.1998 40.1126M29.1998 40.1126C29.1486 39.5627 29.2425 38.9714 29.5381 38.3801" stroke="#18132D" stroke-width="1.6" stroke-linecap="round"/>
<path d="M23.1615 22.5868C23.1615 23.42 24.6394 24.4795 25.1091 24.4795C25.5787 24.4795 27.0566 23.42 27.0566 22.5868C27.0566 21.7536 25.5787 21.4622 25.1091 21.4622C24.6394 21.4622 23.1615 21.7536 23.1615 22.5868Z" fill="#6656B7"/>
<path d="M22 26.0116C23.0747 26.2803 25.2241 26.1728 25.2241 23.5935C25.2241 26.1728 27.3736 26.2803 28.4483 26.0116" stroke="#6656B7" stroke-width="1.2" stroke-linecap="round"/>
<circle r="1.92492" transform="matrix(-1 0 0 1 19.7597 19.537)" fill="#6656B7"/>
<path d="M29.8218 9.89087L37.8821 19.5633" stroke="#18132D" stroke-width="1.6" stroke-linecap="round"/>
</svg>
