<svg width="30" height="30" viewBox="0 0 30 30" fill="none" xmlns="http://www.w3.org/2000/svg">
<path fill-rule="evenodd" clip-rule="evenodd" d="M4.50348 9.10758C3.67927 9.66569 3.18555 10.5963 3.18555 11.5917V23.9218C3.18555 24.5541 3.18555 25.1498 3.18557 25.6723C3.18559 26.7769 4.081 27.6718 5.18553 27.6718H10.5C10.7761 27.6718 11 27.448 11 27.1718V21C11 18.7909 12.7909 17 15 17C17.2091 17 19 18.7909 19 21V27.1718C19 27.448 19.2239 27.6718 19.5 27.6718H24.8142C25.9187 27.6718 26.8142 26.7768 26.8142 25.6722C26.8142 25.1497 26.8142 24.5541 26.8142 23.9218V11.5916C26.8142 10.5963 26.3204 9.66569 25.4962 9.10758L16.6821 3.13902C15.6662 2.45111 14.3338 2.4511 13.3179 3.139L4.50348 9.10758Z" fill="#6656B7"/>
</svg>
