<svg width="30" height="30" viewBox="0 0 30 30" fill="none" xmlns="http://www.w3.org/2000/svg">
<path fill-rule="evenodd" clip-rule="evenodd" d="M13.7754 5.80787C14.2947 8.19885 13.4389 10.3868 11.8639 10.6948C10.2888 11.0027 8.59094 9.31411 8.07158 6.92313C7.55222 4.53215 8.40802 2.34422 9.98308 2.03625C11.5581 1.72827 13.256 3.41689 13.7754 5.80787ZM10.0424 14.7393C11.906 11.6451 14.119 10.8716 15.2837 10.8716C16.4485 10.8716 18.6615 11.6451 20.525 14.7393C20.9724 15.482 21.7633 16.3878 22.601 17.347C23.9443 18.8852 25.4076 20.5609 25.7663 21.9222C26.6255 25.1827 25.1839 28 15.2837 28C5.38351 28 3.94198 25.1827 4.80116 21.9222C5.15986 20.5609 6.6232 18.8852 7.96649 17.347L7.96649 17.347C8.80414 16.3878 9.5951 15.482 10.0424 14.7393ZM18.1361 10.6948C16.561 10.3868 15.7052 8.19885 16.2246 5.80787C16.744 3.41689 18.4418 1.72827 20.0169 2.03625C21.5919 2.34422 22.4477 4.53215 21.9284 6.92313C21.409 9.31411 19.7112 11.0027 18.1361 10.6948ZM22.8575 12.0467C22.4014 14.1465 23.1529 16.068 24.5362 16.3384C25.9194 16.6089 27.4105 15.1259 27.8666 13.0261C28.3227 10.9264 27.5711 9.00489 26.1879 8.73443C24.8047 8.46397 23.3136 9.94693 22.8575 12.0467ZM5.46378 16.3384C6.84701 16.068 7.59859 14.1465 7.14249 12.0467C6.68638 9.94693 5.1953 8.46397 3.81207 8.73443C2.42883 9.00489 1.67725 10.9264 2.13336 13.0261C2.58947 15.1259 4.08055 16.6089 5.46378 16.3384Z" fill="#B6B3B9"/>
<path fill-rule="evenodd" clip-rule="evenodd" d="M16.3852 15.6895H14.157V19.0318L10.8145 19.0318L10.8145 21.26H14.157V24.6023H16.3852V21.26H19.7273V19.0318L16.3852 19.0318V15.6895Z" fill="white"/>
</svg>
