<svg width="50" height="50" viewBox="0 0 50 50" fill="none" xmlns="http://www.w3.org/2000/svg">
<rect width="50" height="50" rx="25" fill="#F0D604"/>
<path d="M25.486 11.6667C16.4729 11.6667 9.16669 17.4427 9.16669 24.568C9.16669 29.206 12.2627 33.27 16.9083 35.5442C16.5667 36.8191 15.6723 40.1611 15.4931 40.8763C15.2724 41.764 15.8185 41.7522 16.1762 41.513C16.4568 41.3261 20.6485 38.477 22.4569 37.2469C23.4384 37.3923 24.4504 37.4693 25.486 37.4693C34.4992 37.4693 41.8054 31.6924 41.8054 24.568C41.8054 17.4435 34.4983 11.6667 25.486 11.6667Z" fill="#391B1B"/>
<path d="M18.919 20.7685H14.1465C13.6976 20.7685 13.3349 21.132 13.3349 21.5801C13.3349 22.0282 13.6984 22.3917 14.1465 22.3917H15.6979V28.1085C15.6979 28.3165 15.7824 28.5211 15.9312 28.6691C16.0766 28.8162 16.2804 28.9007 16.4892 28.9007H16.6625C16.8705 28.9007 17.0734 28.8162 17.2197 28.6691C17.3685 28.5211 17.453 28.3174 17.453 28.1085V22.3917H18.9181C19.3671 22.3917 19.7306 22.0282 19.7306 21.5801C19.7306 21.132 19.3671 20.7685 18.9181 20.7685H18.919Z" fill="#FAE300"/>
<path d="M30.3879 27.3739H28.1686V21.5354C28.1686 21.0484 27.7747 20.6544 27.2885 20.6544C26.8024 20.6544 26.4084 21.0484 26.4084 21.5354V27.8288C26.4084 27.8778 26.4144 27.9234 26.422 27.9699C26.4135 28.0156 26.4084 28.0629 26.4084 28.1103C26.4084 28.5178 26.7373 28.8475 27.1448 28.8475H30.3879C30.7962 28.8475 31.1243 28.5178 31.1243 28.1103C31.1243 27.7028 30.7954 27.3739 30.3879 27.3739Z" fill="#FAE300"/>
<path d="M37.4796 27.6419L35.0067 24.3938L37.2412 22.1584C37.5438 21.8566 37.5438 21.3654 37.2412 21.0628C36.9385 20.7601 36.4482 20.7601 36.1447 21.0628L33.3784 23.829V21.5354C33.3784 21.0484 32.9844 20.6544 32.4983 20.6544C32.0122 20.6544 31.6174 21.0484 31.6174 21.5354V28.0224C31.6174 28.5093 32.0113 28.9033 32.4983 28.9033C32.9853 28.9033 33.3784 28.5102 33.3784 28.0224V26.0212L33.8814 25.519L36.2207 28.5888C36.4811 28.9363 36.9757 29.0081 37.3232 28.7452C37.6707 28.484 37.7408 27.9902 37.4796 27.6419Z" fill="#FAE300"/>
<path d="M25.7484 27.8524L23.3702 21.3459C23.3702 21.3459 23.3643 21.3409 23.3626 21.3383C23.2104 20.9418 22.7716 20.6535 22.2483 20.6535C21.6675 20.6535 21.1873 21.0086 21.0918 21.4728C21.0757 21.5074 21.0596 21.5421 21.0461 21.5793L18.7076 27.8524C18.5631 28.2641 18.7795 28.7139 19.1895 28.8584C19.6004 29.003 20.051 28.7866 20.1956 28.3757L20.6006 27.2208H23.8555L24.2596 28.3757C24.4042 28.7866 24.8548 29.003 25.2657 28.8584C25.6765 28.7139 25.893 28.2641 25.7484 27.8524ZM21.1171 25.7456L22.2111 22.6242C22.2238 22.6242 22.2339 22.6276 22.2466 22.6276L23.3398 25.7456H21.118H21.1171Z" fill="#FAE300"/>
</svg>
