<svg width="38" height="39" viewBox="0 0 38 39" fill="none" xmlns="http://www.w3.org/2000/svg">
<rect y="0.28125" width="38" height="38" rx="19" fill="#F7E34C"/>
<path fill-rule="evenodd" clip-rule="evenodd" d="M19 9.22241C12.8269 9.22241 7.82349 13.4973 7.82349 18.7727C7.82349 22.1818 9.91534 25.1731 13.0623 26.8637C12.8915 27.5035 11.9621 30.9786 11.9255 31.2523C11.9255 31.2523 11.9035 31.4572 12.0255 31.5351C12.1487 31.6131 12.2926 31.5537 12.2926 31.5537C12.6439 31.5008 16.3702 28.6641 17.0154 28.1711C17.6582 28.2702 18.3218 28.3217 19 28.3217C25.1718 28.3217 30.1764 24.0456 30.1764 18.7727C30.1764 13.4973 25.1718 9.22241 19 9.22241" fill="#181602"/>
</svg>
