<svg width="50" height="50" viewBox="0 0 50 50" fill="none" xmlns="http://www.w3.org/2000/svg">
<path d="M12 28C12 30.025 13.6629 31.6667 15.7143 31.6667C13.6629 31.6667 12 33.3083 12 35.3333C12 37.3584 13.6629 39 15.7143 39H34.2857C36.3371 39 38 37.3584 38 35.3333C38 33.3083 36.3371 31.6667 34.2857 31.6667C36.3371 31.6667 38 30.025 38 28C38 25.975 36.3371 24.3333 34.2857 24.3333H34.3333C36.3584 24.3333 38 22.6917 38 20.6667C38 18.6416 36.3584 17 34.3333 17H15.6667C13.6416 17 12 18.6416 12 20.6667C12 22.6917 13.6416 24.3333 15.6667 24.3333H15.7143C13.6629 24.3333 12 25.975 12 28Z" stroke="#18132D" stroke-width="1.6" stroke-linecap="round" stroke-linejoin="round"/>
<path fill-rule="evenodd" clip-rule="evenodd" d="M27.3308 24.0734C27.3308 25.2186 26.4025 26.147 25.2573 26.147C24.1121 26.147 23.1838 25.2186 23.1838 24.0734C23.1838 22.9283 24.1121 21.9999 25.2573 21.9999C26.4025 21.9999 27.3308 22.9283 27.3308 24.0734ZM20.0736 28.2204C21.2187 28.2204 22.1471 27.292 22.1471 26.1469C22.1471 25.0017 21.2187 24.0733 20.0736 24.0733C18.9284 24.0733 18.0001 25.0017 18.0001 26.1469C18.0001 27.292 18.9284 28.2204 20.0736 28.2204ZM25.2572 34.7C27.8338 34.7 29.9226 34.4256 29.9226 31.8489C29.9226 29.2723 27.8338 27.1835 25.2572 27.1835C22.6806 27.1835 20.5918 29.2723 20.5918 31.8489C20.5918 34.4256 22.6806 34.7 25.2572 34.7ZM30.441 28.2204C31.5862 28.2204 32.5145 27.292 32.5145 26.1469C32.5145 25.0017 31.5862 24.0733 30.441 24.0733C29.2958 24.0733 28.3675 25.0017 28.3675 26.1469C28.3675 27.292 29.2958 28.2204 30.441 28.2204Z" fill="#6656B7"/>
<path d="M25 14.0557V17H28.1459C29.2822 17 30.321 16.358 30.8292 15.3416C31.8265 13.3469 30.376 11 28.1459 11H28.0557C26.3681 11 25 12.3681 25 14.0557Z" stroke="#18132D" stroke-width="1.6" stroke-linecap="round" stroke-linejoin="round"/>
<path d="M25 14.0557V17H21.8541C20.7178 17 19.679 16.358 19.1708 15.3416C18.1735 13.3469 19.624 11 21.8541 11H21.9443C23.6319 11 25 12.3681 25 14.0557Z" stroke="#18132D" stroke-width="1.6" stroke-linecap="round" stroke-linejoin="round"/>
</svg>
