<svg width="24" height="24" viewBox="0 0 24 24" fill="none" xmlns="http://www.w3.org/2000/svg">
<path fill-rule="evenodd" clip-rule="evenodd" d="M8.99997 7.00036C10.3807 7.00036 11.5 5.88107 11.5 4.50036C11.5 3.11965 10.3807 2.00037 8.99997 2.00037C7.61926 2.00037 6.49998 3.11965 6.49998 4.50036C6.49998 5.88107 7.61926 7.00036 8.99997 7.00036ZM4.5 11.0003C5.8807 11.0003 6.99999 9.88106 6.99999 8.50035C6.99999 7.11964 5.8807 6.00036 4.5 6.00036C3.11929 6.00036 2 7.11964 2 8.50035C2 9.88106 3.11929 11.0003 4.5 11.0003ZM17.4999 4.50036C17.4999 5.88107 16.3806 7.00036 14.9999 7.00036C13.6192 7.00036 12.4999 5.88107 12.4999 4.50036C12.4999 3.11965 13.6192 2.00037 14.9999 2.00037C16.3806 2.00037 17.4999 3.11965 17.4999 4.50036ZM19.4999 11.0003C20.8806 11.0003 21.9999 9.88106 21.9999 8.50035C21.9999 7.11964 20.8806 6.00036 19.4999 6.00036C18.1192 6.00036 16.9999 7.11964 16.9999 8.50035C16.9999 9.88106 18.1192 11.0003 19.4999 11.0003ZM16.4437 12.8059C16.7333 13.1473 17.0276 13.4941 17.34 13.8603C17.4179 13.9382 17.4968 14.0166 17.5764 14.0956C18.8347 15.3449 20.2415 16.7416 19.95 18.6603C19.66 19.6703 18.93 20.6903 17.62 20.9803C17.284 21.0447 16.6092 20.9567 15.7368 20.8428C14.7136 20.7093 13.4186 20.5403 12.08 20.5403H11.9C10.5726 20.5403 9.28815 20.7093 8.26904 20.8434C7.38413 20.9599 6.69925 21.05 6.35998 20.9803C5.04998 20.6903 4.31998 19.6803 4.02998 18.6603C3.74796 16.7519 5.15389 15.3562 6.41174 14.1074C6.49191 14.0278 6.57148 13.9488 6.64998 13.8703C7.21406 13.2165 7.7165 12.6243 8.23369 12.0147C8.52336 11.6733 8.81764 11.3265 9.12997 10.9603C9.59997 10.4203 10.18 9.88031 10.88 9.64031C10.99 9.60031 11.1 9.57031 11.21 9.55031C11.47 9.50031 11.74 9.50031 12 9.50031C12.26 9.50031 12.53 9.50031 12.78 9.54031C12.89 9.56031 13 9.59031 13.11 9.63031C13.81 9.87031 14.4 10.4103 14.86 10.9503C15.424 11.6041 15.9265 12.1963 16.4437 12.8059Z" fill="#6656B7"/>
</svg>
