<svg width="24" height="24" viewBox="0 0 24 24" fill="none" xmlns="http://www.w3.org/2000/svg">
<mask id="path-1-inside-1_1_5240" fill="white">
<path fill-rule="evenodd" clip-rule="evenodd" d="M8.99997 6.99999C10.3807 6.99999 11.5 5.8807 11.5 4.5C11.5 3.11929 10.3807 2 8.99997 2C7.61926 2 6.49998 3.11929 6.49998 4.5C6.49998 5.8807 7.61926 6.99999 8.99997 6.99999ZM4.5 11C5.8807 11 6.99999 9.8807 6.99999 8.49999C6.99999 7.11928 5.8807 5.99999 4.5 5.99999C3.11929 5.99999 2 7.11928 2 8.49999C2 9.8807 3.11929 11 4.5 11ZM17.4999 4.5C17.4999 5.8807 16.3806 6.99999 14.9999 6.99999C13.6192 6.99999 12.4999 5.8807 12.4999 4.5C12.4999 3.11929 13.6192 2 14.9999 2C16.3806 2 17.4999 3.11929 17.4999 4.5ZM19.4999 11C20.8806 11 21.9999 9.8807 21.9999 8.49999C21.9999 7.11928 20.8806 5.99999 19.4999 5.99999C18.1192 5.99999 16.9999 7.11928 16.9999 8.49999C16.9999 9.8807 18.1192 11 19.4999 11ZM16.4437 12.8055C16.7333 13.1469 17.0276 13.4937 17.34 13.8599C17.4179 13.9378 17.4968 14.0163 17.5764 14.0953C18.8347 15.3445 20.2415 16.7413 19.95 18.6599C19.66 19.6699 18.93 20.6899 17.62 20.9799C17.284 21.0444 16.6092 20.9563 15.7368 20.8424C14.7136 20.7089 13.4186 20.5399 12.08 20.5399H11.9C10.5726 20.5399 9.28815 20.709 8.26904 20.8431C7.38413 20.9595 6.69925 21.0496 6.35998 20.9799C5.04998 20.6899 4.31998 19.6799 4.02998 18.6599C3.74796 16.7516 5.15389 15.3558 6.41174 14.107C6.49191 14.0274 6.57148 13.9484 6.64998 13.8699C7.21406 13.2161 7.7165 12.6239 8.23369 12.0144C8.52336 11.673 8.81764 11.3261 9.12997 10.9599C9.59997 10.4199 10.18 9.87995 10.88 9.63995C10.99 9.59995 11.1 9.56995 11.21 9.54995C11.47 9.49995 11.74 9.49995 12 9.49995C12.26 9.49995 12.53 9.49995 12.78 9.53995C12.89 9.55995 13 9.58995 13.11 9.62995C13.81 9.86995 14.4 10.4099 14.86 10.9499C15.424 11.6038 15.9265 12.1959 16.4437 12.8055Z"/>
</mask>
<path d="M17.34 13.8599L16.1226 14.8983L16.1638 14.9465L16.2086 14.9913L17.34 13.8599ZM16.4437 12.8055L17.6637 11.7703L17.6637 11.7703L16.4437 12.8055ZM17.5764 14.0953L18.7037 12.9598L17.5764 14.0953ZM19.95 18.6599L21.4878 19.1015L21.5163 19.0023L21.5318 18.9003L19.95 18.6599ZM17.62 20.9799L17.9213 22.5513L17.9436 22.547L17.9658 22.5421L17.62 20.9799ZM15.7368 20.8424L15.9438 19.2559H15.9438L15.7368 20.8424ZM8.26904 20.8431L8.06029 19.2567H8.06028L8.26904 20.8431ZM6.35998 20.9799L6.01415 22.5421L6.02603 22.5447L6.03794 22.5472L6.35998 20.9799ZM4.02998 18.6599L2.44717 18.8938L2.46243 18.9971L2.49098 19.0975L4.02998 18.6599ZM6.41174 14.107L7.539 15.2425L7.539 15.2425L6.41174 14.107ZM6.64998 13.8699L7.78134 15.0013L7.82297 14.9597L7.86143 14.9151L6.64998 13.8699ZM8.23369 12.0144L9.45372 13.0495L9.45372 13.0495L8.23369 12.0144ZM9.12997 10.9599L7.92309 9.9095L7.91783 9.91554L7.91264 9.92163L9.12997 10.9599ZM10.88 9.63995L11.3989 11.1535L11.4129 11.1487L11.4268 11.1436L10.88 9.63995ZM11.21 9.54995L11.4962 11.1241L11.5042 11.1227L11.5121 11.1212L11.21 9.54995ZM12.78 9.53995L13.0662 7.96575L13.0495 7.96272L13.0328 7.96004L12.78 9.53995ZM13.11 9.62995L12.5632 11.1336L12.5771 11.1387L12.591 11.1435L13.11 9.62995ZM14.86 10.9499L13.6419 11.9875L13.6485 11.9951L14.86 10.9499ZM9.89997 4.5C9.89997 4.99705 9.49703 5.39999 8.99997 5.39999V8.59999C11.2643 8.59999 13.1 6.76436 13.1 4.5H9.89997ZM8.99997 3.6C9.49703 3.6 9.89997 4.00294 9.89997 4.5H13.1C13.1 2.23563 11.2643 0.4 8.99997 0.4V3.6ZM8.09998 4.5C8.09998 4.00294 8.50292 3.6 8.99997 3.6V0.4C6.73561 0.4 4.89998 2.23563 4.89998 4.5H8.09998ZM8.99997 5.39999C8.50292 5.39999 8.09998 4.99705 8.09998 4.5H4.89998C4.89998 6.76436 6.73561 8.59999 8.99997 8.59999V5.39999ZM5.39999 8.49999C5.39999 8.99704 4.99705 9.39998 4.5 9.39998V12.6C6.76436 12.6 8.59999 10.7644 8.59999 8.49999H5.39999ZM4.5 7.59999C4.99705 7.59999 5.39999 8.00293 5.39999 8.49999H8.59999C8.59999 6.23562 6.76436 4.39999 4.5 4.39999V7.59999ZM3.6 8.49999C3.6 8.00293 4.00294 7.59999 4.5 7.59999V4.39999C2.23563 4.39999 0.4 6.23562 0.4 8.49999H3.6ZM4.5 9.39998C4.00294 9.39998 3.6 8.99704 3.6 8.49999H0.4C0.4 10.7644 2.23563 12.6 4.5 12.6V9.39998ZM14.9999 8.59999C17.2643 8.59999 19.0999 6.76436 19.0999 4.5H15.8999C15.8999 4.99705 15.497 5.39999 14.9999 5.39999V8.59999ZM10.8999 4.5C10.8999 6.76436 12.7355 8.59999 14.9999 8.59999V5.39999C14.5029 5.39999 14.0999 4.99705 14.0999 4.5H10.8999ZM14.9999 0.4C12.7355 0.4 10.8999 2.23563 10.8999 4.5H14.0999C14.0999 4.00294 14.5029 3.6 14.9999 3.6V0.4ZM19.0999 4.5C19.0999 2.23563 17.2643 0.4 14.9999 0.4V3.6C15.497 3.6 15.8999 4.00294 15.8999 4.5H19.0999ZM20.3999 8.49999C20.3999 8.99704 19.9969 9.39998 19.4999 9.39998V12.6C21.7643 12.6 23.5999 10.7644 23.5999 8.49999H20.3999ZM19.4999 7.59999C19.9969 7.59999 20.3999 8.00293 20.3999 8.49999H23.5999C23.5999 6.23562 21.7643 4.39999 19.4999 4.39999V7.59999ZM18.5999 8.49999C18.5999 8.00293 19.0028 7.59999 19.4999 7.59999V4.39999C17.2355 4.39999 15.3999 6.23562 15.3999 8.49999H18.5999ZM19.4999 9.39998C19.0028 9.39998 18.5999 8.99704 18.5999 8.49999H15.3999C15.3999 10.7644 17.2355 12.6 19.4999 12.6V9.39998ZM18.5573 12.8216C18.2465 12.4573 17.9535 12.1119 17.6637 11.7703L15.2236 13.8406C15.5131 14.1818 15.8087 14.5302 16.1226 14.8983L18.5573 12.8216ZM18.7037 12.9598C18.6238 12.8805 18.5469 12.8041 18.4713 12.7286L16.2086 14.9913C16.2889 15.0716 16.3699 15.152 16.4491 15.2307L18.7037 12.9598ZM21.5318 18.9003C21.7515 17.4543 21.3097 16.2382 20.6956 15.2697C20.1096 14.3457 19.3067 13.5585 18.7037 12.9598L16.4491 15.2307C17.1044 15.8813 17.634 16.4171 17.9931 16.9834C18.3241 17.5053 18.4399 17.9469 18.3681 18.4195L21.5318 18.9003ZM17.9658 22.5421C20.0178 22.0878 21.0902 20.4863 21.4878 19.1015L18.4121 18.2184C18.2297 18.8535 17.8421 19.292 17.2741 19.4177L17.9658 22.5421ZM15.5297 22.429C15.9547 22.4844 16.3787 22.5401 16.739 22.5719C17.0543 22.5997 17.5099 22.6302 17.9213 22.5513L17.3186 19.4086C17.3814 19.3965 17.3939 19.4023 17.3192 19.4017C17.2538 19.4012 17.157 19.3963 17.0201 19.3842C16.7409 19.3596 16.3912 19.3143 15.9438 19.2559L15.5297 22.429ZM12.08 22.1399C13.3 22.1399 14.4968 22.2942 15.5297 22.429L15.9438 19.2559C14.9304 19.1236 13.5372 18.9399 12.08 18.9399V22.1399ZM11.9 22.1399H12.08V18.9399H11.9V22.1399ZM8.47779 22.4294C9.50689 22.294 10.6922 22.1399 11.9 22.1399V18.9399C10.4529 18.9399 9.06941 19.1239 8.06029 19.2567L8.47779 22.4294ZM6.03794 22.5472C6.46163 22.6342 6.93028 22.6031 7.24937 22.5752C7.6159 22.5431 8.04704 22.4861 8.47779 22.4294L8.06028 19.2567C7.60612 19.3165 7.25237 19.3627 6.97041 19.3874C6.83212 19.3995 6.73545 19.4041 6.67104 19.4043C6.59691 19.4046 6.61369 19.3986 6.68202 19.4127L6.03794 22.5472ZM2.49098 19.0975C2.89013 20.5014 3.96645 22.0888 6.01415 22.5421L6.7058 19.4177C6.13352 19.2911 5.74983 18.8584 5.56899 18.2224L2.49098 19.0975ZM5.28447 12.9716C4.68152 13.5702 3.88006 14.356 3.29377 15.2768C2.67997 16.2408 2.23417 17.4525 2.44717 18.8938L5.61279 18.426C5.54377 17.959 5.65993 17.5187 5.99305 16.9955C6.35369 16.4291 6.88411 15.8927 7.539 15.2425L5.28447 12.9716ZM5.51861 12.7386C5.44251 12.8147 5.36501 12.8916 5.28447 12.9716L7.539 15.2425C7.61881 15.1633 7.70045 15.0822 7.78134 15.0013L5.51861 12.7386ZM7.01366 10.9792C6.49607 11.5893 5.99769 12.1766 5.43853 12.8248L7.86143 14.9151C8.43042 14.2556 8.93693 13.6586 9.45372 13.0495L7.01366 10.9792ZM7.91264 9.92163C7.59875 10.2896 7.30316 10.638 7.01366 10.9792L9.45372 13.0495C9.74355 12.7079 10.0365 12.3626 10.3473 11.9983L7.91264 9.92163ZM10.3611 8.12643C9.25113 8.50698 8.44221 9.31307 7.92309 9.9095L10.3369 12.0104C10.7577 11.5268 11.1088 11.2529 11.3989 11.1535L10.3611 8.12643ZM10.9238 7.97575C10.721 8.01261 10.5239 8.06691 10.3332 8.13627L11.4268 11.1436C11.456 11.133 11.4789 11.1273 11.4962 11.1241L10.9238 7.97575ZM12 7.89995C11.7668 7.89995 11.3428 7.89509 10.9078 7.97874L11.5121 11.1212C11.5972 11.1048 11.7131 11.0999 12 11.0999V7.89995ZM13.0328 7.96004C12.6346 7.89634 12.2335 7.89995 12 7.89995V11.0999C12.2865 11.0999 12.4253 11.1036 12.5272 11.1199L13.0328 7.96004ZM13.6567 8.12627C13.466 8.05691 13.2689 8.00261 13.0662 7.96575L12.4937 11.1141C12.511 11.1173 12.5339 11.123 12.5632 11.1336L13.6567 8.12627ZM16.078 9.9124C15.5519 9.29489 14.7339 8.49531 13.6289 8.11643L12.591 11.1435C12.886 11.2446 13.248 11.525 13.642 11.9875L16.078 9.9124ZM17.6637 11.7703C17.1469 11.1613 16.6404 10.5643 16.0714 9.90477L13.6485 11.9951C14.2077 12.6432 14.706 13.2306 15.2236 13.8406L17.6637 11.7703Z" fill="black" mask="url(#path-1-inside-1_1_5240)"/>
</svg>
