<svg width="50" height="50" viewBox="0 0 50 50" fill="none" xmlns="http://www.w3.org/2000/svg">
<rect width="50" height="50" rx="25" fill="#F5F6F8"/>
<path fill-rule="evenodd" clip-rule="evenodd" d="M28.7255 19.1311C28.0563 19.1311 27.5139 19.6736 27.5139 20.3427C27.5139 21.0119 28.0563 21.5543 28.7255 21.5543H32.3603C34.3677 21.5543 35.9951 23.1817 35.9951 25.1891C35.9951 27.1965 34.3677 28.8239 32.3603 28.8239H28.7255C28.0563 28.8239 27.5139 29.3664 27.5139 30.0355C27.5139 30.7047 28.0563 31.2471 28.7255 31.2471H32.3603C35.706 31.2471 38.4183 28.5348 38.4183 25.1891C38.4183 21.8434 35.706 19.1311 32.3603 19.1311H28.7255ZM17.8212 21.5543C15.8137 21.5543 14.1864 23.1817 14.1864 25.1891C14.1864 27.1966 15.8137 28.8239 17.8212 28.8239H21.456C22.1251 28.8239 22.6676 29.3664 22.6676 30.0355C22.6676 30.7047 22.1251 31.2471 21.456 31.2471H17.8212C14.4754 31.2471 11.7632 28.5349 11.7632 25.1891C11.7632 21.8434 14.4754 19.1311 17.8212 19.1311H21.456C22.1251 19.1311 22.6676 19.6736 22.6676 20.3427C22.6676 21.0119 22.1251 21.5543 21.456 21.5543H17.8212ZM19.0325 25.1889C19.0325 24.5197 19.575 23.9773 20.2441 23.9773H29.9369C30.6061 23.9773 31.1485 24.5197 31.1485 25.1889C31.1485 25.858 30.6061 26.4005 29.9369 26.4005H20.2441C19.575 26.4005 19.0325 25.858 19.0325 25.1889Z" fill="#969799"/>
</svg>
