<svg width="264" height="59" viewBox="0 0 264 59" fill="none" xmlns="http://www.w3.org/2000/svg">
<path d="M31.1367 29.2914L45.1018 15.3265C48.6113 11.817 48.6113 6.14146 45.1018 2.63214C41.5925 -0.877379 35.9169 -0.877379 32.4074 2.63214L17.9584 17.0812V9.16681C17.9584 4.20535 13.9407 0.187527 8.97909 0.187527C4.01764 0.187527 0 4.20535 0 9.16681V49.6097C0 54.5713 4.01764 58.589 8.97909 58.589C13.9407 58.589 17.9584 54.5713 17.9584 49.6097V41.5139L32.4074 55.9629C35.9169 59.4724 41.5925 59.4724 45.1018 55.9629C48.6113 52.4536 48.6113 46.778 45.1018 43.2685L31.1367 29.3037V29.2914Z" fill="#4F4197"/>
<path d="M202.747 0.187854C197.784 0.187854 193.767 4.20549 193.767 9.16714V24.5359L176.716 3.51573L176.692 3.4914C176.546 3.32203 176.401 3.15265 176.245 2.99535C176.196 2.93481 176.135 2.87426 176.086 2.82598C176.062 2.80165 176.039 2.7775 176.015 2.75336C175.675 2.4265 175.324 2.13622 174.949 1.85783C174.889 1.80935 174.817 1.76107 174.756 1.7126C174.611 1.61584 174.453 1.53115 174.296 1.4342C174.198 1.37366 174.102 1.31331 173.993 1.25276C173.872 1.18015 173.74 1.13167 173.617 1.07113C173.485 0.998511 173.34 0.938155 173.195 0.87761C173.099 0.841208 173.001 0.804994 172.904 0.768592C172.723 0.695976 172.54 0.63562 172.359 0.575075C172.299 0.563004 172.239 0.550933 172.189 0.526602C171.609 0.357228 171.005 0.260467 170.386 0.211994C170.181 0.199922 169.975 0.175781 169.77 0.175781H169.734C169.638 0.175781 169.553 0.175783 169.455 0.187854C169.262 0.187854 169.068 0.187851 168.874 0.211994C168.742 0.224065 168.621 0.248399 168.487 0.26047C168.33 0.284612 168.161 0.308755 168.002 0.333086C167.857 0.357228 167.725 0.39363 167.58 0.429844C167.435 0.466058 167.289 0.502458 167.155 0.538672C167.01 0.587145 166.865 0.635618 166.72 0.683903C166.588 0.732376 166.454 0.768589 166.333 0.829134C166.177 0.889679 166.031 0.962295 165.886 1.03491C165.763 1.09546 165.656 1.14374 165.535 1.20428C165.377 1.28897 165.22 1.38592 165.062 1.48268C164.966 1.54322 164.869 1.59151 164.771 1.65205C164.59 1.77314 164.421 1.9063 164.251 2.0272C164.19 2.07568 164.13 2.11189 164.07 2.16036L164.045 2.18451C163.853 2.34181 163.672 2.51137 163.502 2.68075C163.464 2.71696 163.417 2.75336 163.381 2.78957C163.174 2.99535 162.981 3.2132 162.8 3.43105C162.678 3.57628 162.57 3.73358 162.461 3.89088C162.4 3.97557 162.34 4.04819 162.28 4.13287C162.182 4.26603 162.11 4.41127 162.025 4.5565C161.965 4.66533 161.891 4.77416 161.831 4.88317C161.771 5.00408 161.723 5.11309 161.661 5.23418C161.589 5.37923 161.516 5.52446 161.456 5.68176C161.42 5.76664 161.395 5.85133 161.359 5.94809C161.288 6.12953 161.214 6.32323 161.154 6.51675C161.142 6.56522 161.129 6.6137 161.118 6.66198C160.948 7.24291 160.839 7.86005 160.79 8.48945C160.778 8.69503 160.767 8.90081 160.754 9.10659V49.6098C160.754 54.5715 164.771 58.5891 169.734 58.5891C174.694 58.5891 178.714 54.5715 178.714 49.6098V34.4831L195.34 54.9828C195.97 55.7575 196.707 56.3988 197.518 56.9071C198.995 57.9599 200.785 58.5891 202.733 58.5891C207.696 58.5891 211.713 54.5715 211.713 49.6098V9.15488C211.713 4.19342 207.696 0.175781 202.733 0.175781L202.747 0.187854Z" fill="#4F4197"/>
<path d="M254.576 26.6409C249.615 26.6409 245.598 30.6585 245.598 35.62V41.0415H242.329C239.002 41.0415 236.303 38.3428 236.303 35.0149V24.281C236.303 20.9289 239.026 18.2061 242.378 18.2061H254.576C259.538 18.2061 263.555 14.1885 263.555 9.22684C263.555 4.26538 259.538 0.247559 254.576 0.247559H237.404C226.876 0.247559 218.345 8.77907 218.345 19.3074V39.9401C218.345 50.4685 226.876 58.9998 237.404 58.9998H254.576C259.538 58.9998 263.555 54.9822 263.555 50.0207V35.62C263.555 30.6585 259.538 26.6409 254.576 26.6409Z" fill="#4F4197"/>
<path d="M94.814 35.6813C98.9284 31.9541 101.53 26.5811 101.53 20.5787C101.53 9.31232 92.3938 0.187988 81.1394 0.187988H63.8223C63.653 0.187988 63.4836 0.20006 63.302 0.212131C63.1326 0.212131 62.9632 0.187988 62.7816 0.187988C57.8201 0.187988 53.8025 4.20563 53.8025 9.16708V49.61C53.8025 54.5716 57.8201 58.5892 62.7816 58.5892C67.7432 58.5892 71.7609 54.5716 71.7609 49.61V40.9817H76.9281L84.9392 53.7487C87.5774 57.948 93.1197 59.2185 97.319 56.5803C101.518 53.9424 102.789 48.3998 100.151 44.2007L94.802 35.6934L94.814 35.6813ZM76.3836 29.3886H71.5671C70.5628 29.3886 69.7519 28.5778 69.7519 27.5734V13.9835C69.7519 12.9791 70.5628 12.1683 71.5671 12.1683H76.3836C81.1394 12.1683 84.9877 16.0166 84.9877 20.7724C84.9877 25.5283 81.1394 29.3765 76.3836 29.3765V29.3886Z" fill="#4F4197"/>
<path d="M147.781 35.6813C151.897 31.9541 154.498 26.5811 154.498 20.5787C154.498 9.31232 145.361 0.187988 134.107 0.187988H116.79C116.62 0.187988 116.451 0.20006 116.27 0.212131C116.1 0.212131 115.932 0.187988 115.749 0.187988C110.789 0.187988 106.771 4.20563 106.771 9.16708V49.61C106.771 54.5716 110.789 58.5892 115.749 58.5892C120.711 58.5892 124.729 54.5716 124.729 49.61V40.9817H129.897L137.907 53.7487C140.546 57.948 146.087 59.2185 150.288 56.5803C154.486 53.9424 155.758 48.3998 153.119 44.2007L147.77 35.6934L147.781 35.6813ZM129.654 29.3886H124.838C123.833 29.3886 123.022 28.5778 123.022 27.5734V13.9835C123.022 12.9791 123.833 12.1683 124.838 12.1683H129.654C134.41 12.1683 138.258 16.0166 138.258 20.7724C138.258 25.5283 134.41 29.3765 129.654 29.3765V29.3886Z" fill="#4F4197"/>
</svg>
