<svg width="50" height="50" viewBox="0 0 50 50" fill="none" xmlns="http://www.w3.org/2000/svg">
<path d="M24.9997 9.5C24.9997 9.5 24.9997 15.7427 24.9997 21.9117M24.9997 21.9117C21.6147 21.9117 21.6147 26.425 20.4863 28.6816M24.9997 21.9117C28.3847 21.9117 28.3847 26.425 29.513 28.6816" stroke="#6656B7" stroke-width="2" stroke-linecap="round"/>
<path d="M20.4864 37.7084C23.6612 32.4171 18.8469 30.9582 19.2133 19.7561C19.2616 18.2774 18.7217 16.6903 17.311 16.2443C11.9189 14.5398 6.05292 22.4927 6.2147 33.6012C6.27061 37.4401 9.49209 40.5006 13.3315 40.5C16.4177 40.4996 19.1762 39.892 20.4864 37.7084Z" stroke="#18132D" stroke-width="1.6" stroke-linecap="round"/>
<path d="M12 23C11.6667 23.3333 10.8 24.8 10 28" stroke="#18132D" stroke-linecap="round"/>
<path d="M29.5131 37.7084C26.3384 32.4171 31.1527 30.9582 30.7863 19.7561C30.7379 18.2774 31.2779 16.6903 32.6885 16.2444C38.0806 14.5399 43.9466 22.4927 43.7848 33.6012C43.7289 37.4401 40.5074 40.5006 36.6681 40.5C33.5818 40.4996 30.8233 39.892 29.5131 37.7084Z" stroke="#18132D" stroke-width="1.6" stroke-linecap="round"/>
</svg>
