<svg width="50" height="50" viewBox="0 0 50 50" fill="none" xmlns="http://www.w3.org/2000/svg">
<rect width="50" height="50" rx="25" fill="#D93025"/>
<path opacity="0.3" d="M39.0616 13.5428H10.9385L11.9802 36.1974H38.0199L39.0616 13.5428Z" fill="white"/>
<path opacity="0.3" d="M39.0616 13.5428H10.9385L23.8931 23.2096H26.3019L39.0616 13.5428Z" fill="white"/>
<path opacity="0.1" d="M13.2812 36.1979L25 25.651L36.7188 36.1979H13.2812Z" fill="white"/>
<path fill-rule="evenodd" clip-rule="evenodd" d="M13.282 15.496C13.282 14.418 12.4086 13.5431 11.329 13.5431C10.2509 13.5431 9.37598 14.418 9.37598 15.496C9.37598 19.6551 9.37598 29.3716 9.37598 33.8541C9.37598 35.1493 10.4259 36.1977 11.7196 36.1977C12.5508 36.1977 13.282 36.1977 13.282 36.1977C13.282 36.1977 13.282 20.9941 13.282 15.496Z" fill="white"/>
<path fill-rule="evenodd" clip-rule="evenodd" d="M36.7177 15.4958C36.7177 14.4177 37.5927 13.5428 38.6707 13.5428C38.6723 13.5428 38.6738 13.5428 38.6738 13.5428C39.7519 13.5428 40.6237 14.4162 40.6237 15.4926C40.6237 19.6502 40.6237 29.3698 40.6237 33.8539C40.6237 35.1491 39.5753 36.1974 38.2801 36.1974C37.4505 36.1974 36.7177 36.1974 36.7177 36.1974C36.7177 36.1974 36.7177 20.9938 36.7177 15.4958Z" fill="white"/>
<path fill-rule="evenodd" clip-rule="evenodd" d="M10.351 17.1862C9.90263 16.9269 9.57609 16.5019 9.44172 16.002C9.30735 15.502 9.37766 14.9708 9.63702 14.5224C9.63702 14.5224 9.63858 14.5208 9.63858 14.5193C9.89794 14.0708 10.3245 13.7443 10.8244 13.6099C11.3244 13.4756 11.8572 13.5459 12.3056 13.8052L25 21.1344L37.6975 13.8037C38.146 13.5443 38.6772 13.474 39.1771 13.6084C39.6771 13.7427 40.1021 14.0693 40.3614 14.5177L40.363 14.5193C40.6223 14.9677 40.6926 15.502 40.5583 16.002C40.4239 16.5019 40.0958 16.9285 39.6474 17.1878L28.906 23.3889L25 25.645L21.094 23.3889L10.351 17.1862Z" fill="white"/>
</svg>
