<svg width="30" height="32" viewBox="0 0 30 32" fill="none" xmlns="http://www.w3.org/2000/svg">
<mask id="mask0_1_1671" style="mask-type:alpha" maskUnits="userSpaceOnUse" x="0" y="0" width="30" height="30">
<circle cx="14.9999" cy="14.9999" r="14.9999" fill="#CBC5F0"/>
</mask>
<g mask="url(#mask0_1_1671)">
<circle cx="14.9999" cy="14.9999" r="14.9999" fill="#F2EFF6"/>
<path d="M11.1733 8.01988C10.2398 7.6079 9.71652 6.8752 7.5738 6.50577C6.93288 6.51415 6.20326 7.35592 8.41217 10.656C9.0594 9.62321 9.95745 8.67017 11.1733 8.01988Z" fill="#D7C5EF"/>
<path d="M22.3511 6.13635C20.5779 6.13635 19.3957 6.94907 18.2736 7.85566C19.6776 8.45036 20.8924 9.3828 21.8077 10.4957C22.0556 9.46125 22.425 8.57461 23.0161 7.61409C23.298 7.15598 23.755 6.13635 22.3511 6.13635Z" fill="#D7C5EF"/>
<path d="M6.9728 14.9965C6.03935 14.9965 4.31249 15.5566 4.87255 17.7968C5.13068 18.6227 6.13934 20.251 8.25236 21.1453C8.67142 21.3226 9.13393 21.4711 9.64263 21.5787C12.0251 22.078 17.6269 22.4686 20.9744 20.0371C21.1117 19.9381 21.2432 19.8369 21.369 19.7335C22.8201 18.541 23.5102 17.0688 23.6077 15.5566C23.6467 14.9511 23.5907 14.3392 23.4505 13.7364C23.2483 12.867 22.8711 12.0164 22.3511 11.2306L21.8077 10.4957C20.8924 9.3828 19.6776 8.45036 18.2736 7.85566C17.1722 7.38917 15.9545 7.1305 14.6737 7.15562C13.2876 7.18279 12.1317 7.50729 11.1733 8.01988C9.95745 8.67017 9.0594 9.62321 8.41217 10.656C7.46698 12.1642 7.05672 13.8426 6.9728 14.9965Z" fill="#D7C5EF"/>
<path d="M20.9744 20.0371C17.6269 22.4686 12.0251 22.078 9.64263 21.5787C9.063 22.3091 7.20563 27.3475 6.9728 28.9773C6.68176 31.0145 19.958 31.9874 23.4505 29.6591C26.2444 27.7964 23.1174 21.3784 20.9744 20.0371Z" fill="#D7C5EF"/>
<path d="M4.87252 17.7968C4.31245 15.5565 6.06996 15.1348 7.0034 15.1349C8.6836 15.8349 10.2238 16.395 10.5038 14.0147C10.7514 11.9104 11.4839 8.04912 12.324 7.57398C12.7565 7.41444 13.3625 7.23521 13.8642 7.15393L12.9935 14.0147C12.8841 15.5565 14.1722 16.9551 19.3248 15.2749C20.5061 14.8093 23.0182 14.1017 23.617 14.9965C23.6226 15.1835 23.6196 15.3703 23.6076 15.5565C23.5017 17.1998 22.696 18.7959 20.9744 20.0371C17.5678 22.705 11.8278 22.1744 9.38368 21.5756C7.98351 21.3889 5.43258 20.0371 4.87252 17.7968Z" fill="white"/>
<path d="M20.9744 20.0371C17.6269 22.4686 12.0251 22.078 9.64263 21.5787M20.9744 20.0371C21.1117 19.9381 21.2432 19.8369 21.369 19.7335M20.9744 20.0371C21.08 19.9487 21.2146 19.8438 21.369 19.7335M20.9744 20.0371C23.1174 21.3784 26.2444 27.7964 23.4505 29.6591C19.958 31.9874 6.68176 31.0145 6.9728 28.9773C7.20563 27.3475 9.063 22.3091 9.64263 21.5787M18.2736 7.85566C17.1722 7.38917 15.9545 7.1305 14.6737 7.15562C13.2876 7.18279 12.1317 7.50729 11.1733 8.01988M18.2736 7.85566C19.3957 6.94907 20.5779 6.13635 22.3511 6.13635C23.755 6.13635 23.298 7.15598 23.0161 7.61409C22.425 8.57461 22.0556 9.46125 21.8077 10.4957M18.2736 7.85566C19.6776 8.45036 20.8924 9.3828 21.8077 10.4957M11.1733 8.01988C10.2398 7.6079 9.71652 6.8752 7.5738 6.50577C6.93288 6.51415 6.20326 7.35592 8.41217 10.656M11.1733 8.01988C9.95745 8.67017 9.0594 9.62321 8.41217 10.656M8.41217 10.656C7.46698 12.1642 7.05672 13.8426 6.9728 14.9965C6.03935 14.9965 4.31249 15.5566 4.87255 17.7968C5.13068 18.6227 6.13934 20.251 8.25236 21.1453C8.67142 21.3226 9.13393 21.4711 9.64263 21.5787M22.3511 11.2306C22.8711 12.0164 23.2483 12.867 23.4505 13.7364C23.5907 14.3392 23.6467 14.9511 23.6077 15.5566C23.5102 17.0688 22.8201 18.541 21.369 19.7335M22.3511 11.2306C22.1843 10.9784 22.0028 10.7329 21.8077 10.4957M22.3511 11.2306L21.8077 10.4957" stroke="#C5ADE4" stroke-width="0.298701" stroke-linecap="round"/>
<path d="M12.7746 15.8135C12.5458 15.3578 10.854 15.1941 10.6125 15.6961C10.3709 16.1981 10.9956 17.2869 11.602 17.2869C12.2085 17.2869 13.0809 16.4246 12.7746 15.8135Z" fill="#413F4C"/>
<path d="M15.9971 15.2983C15.1104 15.52 14.3367 15.2473 14.3367 14.877C14.3367 14.5067 15.406 14.1161 15.9971 14.2639C16.3665 14.3563 15.7015 14.7811 15.0073 14.877C15.4799 14.877 16.4943 15.1741 15.9971 15.2983Z" fill="#413F4C"/>
<path d="M9.1947 15.5475C8.82438 15.5475 8.52417 15.2473 8.52417 14.877C8.52417 14.5066 8.82438 14.2064 9.1947 14.2064C9.56503 14.2064 9.86523 14.5066 9.86523 14.877C9.86523 15.2473 9.56503 15.5475 9.1947 15.5475Z" fill="#413F4C"/>
<path d="M14.1702 13.3098C14.09 12.8242 14.8702 12.5385 15.5146 12.4967C16.159 12.455 16.7638 12.6304 16.7487 12.915C16.7337 13.1996 14.3261 14.2521 14.1702 13.3098Z" fill="#C5ADE4"/>
<path d="M10.5492 13.2992C10.6605 12.8214 10.0262 12.5646 9.48767 12.5424C8.94912 12.5201 8.42506 12.7094 8.41281 12.9879C8.40056 13.2664 10.3364 14.2265 10.5492 13.2992Z" fill="#C5ADE4"/>
<path d="M14.1963 18.1414C14.1963 18.1414 13.4975 18.54 12.7439 18.3624C12.3599 18.2719 11.9617 18.0318 11.6344 17.5132M11.6344 17.5132V16.537M11.6344 17.5132C11.3377 17.8796 11.0487 18.0878 10.7837 18.1956C10.0388 18.4984 9.48417 18.0077 9.48417 18.0077" stroke="#413F4C" stroke-width="0.513259" stroke-linecap="round" stroke-linejoin="round"/>
<path d="M21.9077 7.09686C20.7846 7.21508 19.9127 8.13128 19.6172 8.5746C20.031 8.75192 20.7994 9.41198 21.2427 9.83067C21.3412 9.33809 21.5382 8.50071 21.9077 7.9835C22.2618 7.48771 22.4988 7.09686 21.9077 7.09686Z" fill="#C5ADE4"/>
</g>
</svg>
