<svg width="26" height="26" viewBox="0 0 26 26" fill="none" xmlns="http://www.w3.org/2000/svg">
<path fill-rule="evenodd" clip-rule="evenodd" d="M11.937 3.75C7.24259 3.75 3.43701 7.55558 3.43701 12.25V13.25V18.5H3C2.44772 18.5 2 18.9477 2 19.5C2 20.0523 2.44772 20.5 3 20.5H21C21.5523 20.5 22 20.0523 22 19.5C22 18.9477 21.5523 18.5 21 18.5H20.437V13.25V12.25C20.437 7.55558 16.6314 3.75 11.937 3.75ZM18.437 18.5V13.25V12.25C18.437 8.66015 15.5269 5.75 11.937 5.75C8.34716 5.75 5.43701 8.66015 5.43701 12.25V13.25V18.5H18.437Z" fill="black"/>
<path d="M15 20.0004C15 20.796 14.6839 21.5591 14.1213 22.1217C13.5587 22.6843 12.7956 23.0004 12 23.0004C11.2044 23.0004 10.4413 22.6843 9.87868 22.1217C9.31607 21.5591 9 20.796 9 20.0004L12 20.0004H15Z" fill="black"/>
<circle cx="23.5" cy="2.50037" r="2.5" fill="#6C5FE0"/>
</svg>
