<svg width="26" height="26" viewBox="0 0 26 26" fill="none" xmlns="http://www.w3.org/2000/svg">
<path fill-rule="evenodd" clip-rule="evenodd" d="M12.937 3.75C8.24259 3.75 4.43701 7.55558 4.43701 12.25V13.25V18.5H4C3.44772 18.5 3 18.9477 3 19.5C3 20.0523 3.44772 20.5 4 20.5H22C22.5523 20.5 23 20.0523 23 19.5C23 18.9477 22.5523 18.5 22 18.5H21.437V13.25V12.25C21.437 7.55558 17.6314 3.75 12.937 3.75ZM19.437 18.5V13.25V12.25C19.437 8.66015 16.5269 5.75 12.937 5.75C9.34716 5.75 6.43701 8.66015 6.43701 12.25V13.25V18.5H19.437Z" fill="black"/>
<path d="M16 20.0005C16 20.7961 15.6839 21.5592 15.1213 22.1218C14.5587 22.6844 13.7956 23.0005 13 23.0005C12.2044 23.0005 11.4413 22.6844 10.8787 22.1218C10.3161 21.5592 10 20.7961 10 20.0005H13H16Z" fill="black"/>
</svg>
