<svg width="24" height="24" viewBox="0 0 24 24" fill="none" xmlns="http://www.w3.org/2000/svg">
<path d="M18.2622 7.17937C18.4855 8.40322 19.0173 9.94063 19.0704 11.4M17.96 6.40795C19.2424 10.4548 22.6581 8.49896 21.2927 5.14787C20.2004 2.46699 18.2585 1.4776 17.6516 1.31801C16.1952 0.935021 14.7681 1.53905 14.3129 2.33692C12.6078 1.77862 10.4716 1.57019 7.85027 2.33692C7.46316 1.82577 6.57798 1.15446 5.21019 1.37949C2.67411 1.79673 1.62734 4.70299 1.3087 6.10532C0.714009 8.72261 2.49808 9.30128 3.76073 7.7922C3.32818 10.7894 0.736324 15.8195 9.17179 16.2052C9.52654 16.2215 9.86915 16.2326 10.2 16.2389" stroke="#6656B7" stroke-width="1.2" stroke-linecap="round"/>
<path d="M5.83883 16.2452C4.76417 17.8547 2.8028 20.5438 5.48938 21.6185C5.8388 21.7583 6.72553 21.9366 7.45079 21.5089C7.9285 21.2272 8.32468 20.6648 8.38591 20.0065M8.17604 18.9319C8.35943 19.2987 8.41764 19.6655 8.38591 20.0065M8.38591 20.0065C8.99999 20.4 10.2 20.4 11.76 20.4" stroke="#6656B7" stroke-width="1.2" stroke-linecap="round"/>
<path d="M9.5204 10.3755C9.5204 10.8924 10.4372 11.5496 10.7285 11.5496C11.0198 11.5496 11.9366 10.8924 11.9366 10.3755C11.9366 9.85864 11.0198 9.67786 10.7285 9.67786C10.4372 9.67786 9.5204 9.85864 9.5204 10.3755Z" fill="#6656B7"/>
<circle r="1.19407" transform="matrix(-1 0 0 1 14.3255 8.48374)" fill="#6656B7"/>
<circle r="1.19407" transform="matrix(-1 0 0 1 7.75811 8.48374)" fill="#6656B7"/>
<path d="M16.7941 13.8447C17.1164 14.1089 17.3245 14.3954 17.4 14.5799C17.4741 14.3989 17.6969 14.1219 18.026 13.8636C18.5227 13.4736 19.2616 13.1264 20.0961 13.2169C22.1566 13.4404 22.8852 15.2614 22.7922 16.5271C22.7138 17.5949 22.5133 18.5717 20.2821 20.6162C19.2509 21.5611 18.5218 22.1832 18.048 22.5652C17.6598 22.8782 17.1403 22.8782 16.7522 22.5652C16.2783 22.1833 15.5492 21.5611 14.518 20.6162C12.2868 18.5717 12.0863 17.5949 12.0079 16.5271C11.9149 15.2614 12.635 13.4404 14.704 13.2169C15.6068 13.1194 16.3226 13.4582 16.7941 13.8447Z" fill="#6656B7"/>
</svg>
