<svg width="24" height="24" viewBox="0 0 24 24" fill="none" xmlns="http://www.w3.org/2000/svg">
    <path fill-rule="evenodd" clip-rule="evenodd" d="M2 5.75A3.75 3.75 0 0 1 5.75 2h12a3.75 3.75 0 0 1 3.75 3.75v12a3.75 3.75 0 0 1-3.75 3.75h-12A3.75 3.75 0 0 1 2 17.75v-12zM5.75 3.5A2.25 2.25 0 0 0 3.5 5.75v8.015l3.596-2.397a2.75 2.75 0 0 1 3.63.516L17.558 20h.191A2.25 2.25 0 0 0 20 17.75v-12a2.25 2.25 0 0 0-2.25-2.25h-12zM15.598 20l-6.02-7.15a1.25 1.25 0 0 0-1.65-.234L3.5 15.568v2.182A2.25 2.25 0 0 0 5.75 20h9.848zM14.5 7.5a.75.75 0 1 0 0 1.5.75.75 0 0 0 0-1.5zm-2.25.75a2.25 2.25 0 1 1 4.5 0 2.25 2.25 0 0 1-4.5 0z" fill="#999"/>
</svg>
