<svg width="16" height="16" viewBox="0 0 16 16" fill="none" xmlns="http://www.w3.org/2000/svg">
<g clip-path="url(#clip0_2_12056)">
<path d="M8.07197 8.12537C7.19197 8.12537 6.47197 7.39126 6.47197 6.49402C6.47197 5.59678 7.19197 4.86267 8.07197 4.86267C8.95197 4.86267 9.67197 5.59678 9.67197 6.49402C9.67197 7.39126 8.95197 8.12537 8.07197 8.12537ZM12.872 6.65715C12.872 3.69626 10.752 1.59998 8.07197 1.59998C5.39197 1.59998 3.27197 3.69626 3.27197 6.65715C3.27197 8.44543 4.64137 11.7326 7.47884 14.6223C7.80567 14.9551 8.33828 14.9551 8.6651 14.6223C11.5026 11.7326 12.872 8.44543 12.872 6.65715Z" fill="#999999"/>
</g>
<defs>
<clipPath id="clip0_2_12056">
<rect width="16" height="16" fill="white"/>
</clipPath>
</defs>
</svg>
