<svg width="40" height="40" viewBox="0 0 40 40" fill="none" xmlns="http://www.w3.org/2000/svg">
<g filter="url(#filter0_d_2_11804)">
<g filter="url(#filter1_i_2_11804)">
<circle cx="20" cy="20" r="15" fill="#E2D4F4"/>
</g>
<circle cx="20" cy="20" r="14.2" stroke="#4F4197" stroke-width="1.6"/>
<path d="M20.9668 15.5C21.7182 15.5 22.3598 15.5885 22.8916 15.7654C23.435 15.9312 23.8801 16.1689 24.2269 16.4785C24.5737 16.777 24.828 17.1364 24.9899 17.5565C25.1633 17.9767 25.25 18.43 25.25 18.9165V19.1486C25.25 19.6351 25.1633 20.0995 24.9899 20.5418C24.8165 20.973 24.5506 21.3544 24.1922 21.6861C23.8338 22.0068 23.3887 22.2666 22.8569 22.4656C22.3251 22.6536 21.6951 22.7475 20.9668 22.7475H18.4697V24.406C18.4697 24.7267 18.3598 24.9588 18.1402 25.1026C17.9205 25.2463 17.6604 25.3182 17.3598 25.3182C17.0592 25.3182 16.7991 25.2463 16.5795 25.1026C16.3598 24.9588 16.25 24.7267 16.25 24.406V16.8765C16.25 16.3569 16.354 15.9975 16.5621 15.7985C16.7818 15.5995 17.1691 15.5 17.724 15.5H20.9668ZM18.4697 20.9564H20.672C21.4003 20.9564 21.9725 20.8237 22.3887 20.5584C22.8049 20.293 23.013 19.812 23.013 19.1155V18.933C23.013 18.6014 22.961 18.3305 22.8569 18.1204C22.7529 17.9103 22.6026 17.7445 22.4061 17.6229C22.2211 17.4902 21.9957 17.4017 21.7298 17.3575C21.4639 17.3022 21.1749 17.2746 20.8627 17.2746H18.4697V20.9564Z" fill="#4F4197"/>
<path d="M24.1303 11.0374C24.2759 10.7231 24.1397 10.3483 23.8172 10.2218C22.4189 9.67337 20.9163 9.43178 19.4118 9.51656C17.6982 9.61312 16.0346 10.1301 14.5681 11.0219C13.1016 11.9136 11.8772 13.1528 11.003 14.6298C10.2355 15.9267 9.75869 17.3719 9.60226 18.8657C9.56618 19.2103 9.83625 19.5036 10.1823 19.519V19.519C10.5284 19.5343 10.8192 19.2658 10.8581 18.9215C11.0037 17.6335 11.4201 16.3883 12.0826 15.2688C12.8519 13.969 13.9294 12.8786 15.2199 12.0938C16.5105 11.309 17.9744 10.8541 19.4824 10.7691C20.7812 10.6959 22.0784 10.8991 23.2889 11.3625C23.6125 11.4864 23.9847 11.3518 24.1303 11.0374V11.0374Z" fill="#4F4197"/>
<path d="M26.9489 13.0056C27.1938 12.7606 27.1951 12.3619 26.9358 12.1321C26.5824 11.8187 26.208 11.5296 25.8155 11.2668C25.5276 11.0741 25.1421 11.176 24.967 11.4749V11.4749C24.7919 11.7739 24.8937 12.1564 25.18 12.3514C25.482 12.5572 25.7716 12.7808 26.047 13.0211C26.3081 13.2488 26.7039 13.2506 26.9489 13.0056V13.0056Z" fill="#4F4197"/>
<path d="M12.3249 26.0921C12.0544 26.3084 12.009 26.7046 12.2412 26.9617C12.273 26.9968 12.305 27.0318 12.3372 27.0665C12.5729 27.3204 12.9715 27.3102 13.2108 27.0597L13.2196 27.0505C13.4541 26.8051 13.4436 26.4174 13.2144 26.1671V26.1671C12.9852 25.9168 12.5999 25.8721 12.3349 26.0841L12.3249 26.0921Z" fill="#4F4197"/>
<path d="M13.9971 27.7353C13.7855 28.0096 13.8353 28.4052 14.1218 28.6C15.782 29.7288 17.7363 30.3584 19.7522 30.4061C21.9776 30.4589 24.1617 29.8 25.9866 28.5253C27.8115 27.2506 29.1819 25.4267 29.8983 23.3191C30.5472 21.41 30.6288 19.3583 30.1404 17.4111C30.0561 17.075 29.7018 16.8921 29.3714 16.9964V16.9964C29.0411 17.1007 28.86 17.4527 28.9415 17.7894C29.3512 19.4812 29.2734 21.2592 28.7105 22.9154C28.0801 24.77 26.8741 26.3751 25.2682 27.4968C23.6623 28.6185 21.7403 29.1984 19.7819 29.152C18.0332 29.1105 16.337 28.5716 14.8896 27.6047C14.6015 27.4122 14.2087 27.4611 13.9971 27.7353V27.7353Z" fill="#4F4197"/>
</g>
<defs>
<filter id="filter0_d_2_11804" x="0" y="0" width="42" height="44" filterUnits="userSpaceOnUse" color-interpolation-filters="sRGB">
<feFlood flood-opacity="0" result="BackgroundImageFix"/>
<feColorMatrix in="SourceAlpha" type="matrix" values="0 0 0 0 0 0 0 0 0 0 0 0 0 0 0 0 0 0 127 0" result="hardAlpha"/>
<feOffset dx="2" dy="4"/>
<feComposite in2="hardAlpha" operator="out"/>
<feColorMatrix type="matrix" values="0 0 0 0 0.886275 0 0 0 0 0.831373 0 0 0 0 0.956863 0 0 0 1 0"/>
<feBlend mode="normal" in2="BackgroundImageFix" result="effect1_dropShadow_2_11804"/>
<feBlend mode="normal" in="SourceGraphic" in2="effect1_dropShadow_2_11804" result="shape"/>
</filter>
<filter id="filter1_i_2_11804" x="5" y="5" width="30" height="30" filterUnits="userSpaceOnUse" color-interpolation-filters="sRGB">
<feFlood flood-opacity="0" result="BackgroundImageFix"/>
<feBlend mode="normal" in="SourceGraphic" in2="BackgroundImageFix" result="shape"/>
<feColorMatrix in="SourceAlpha" type="matrix" values="0 0 0 0 0 0 0 0 0 0 0 0 0 0 0 0 0 0 127 0" result="hardAlpha"/>
<feOffset dx="2" dy="4"/>
<feComposite in2="hardAlpha" operator="arithmetic" k2="-1" k3="1"/>
<feColorMatrix type="matrix" values="0 0 0 0 1 0 0 0 0 1 0 0 0 0 1 0 0 0 1 0"/>
<feBlend mode="normal" in2="shape" result="effect1_innerShadow_2_11804"/>
</filter>
</defs>
</svg>
