<svg width="26" height="26" viewBox="0 0 26 26" fill="none" xmlns="http://www.w3.org/2000/svg">
    <path fill-rule="evenodd" clip-rule="evenodd" d="M9.917 2.904c.988-.2 2.02-.304 3.083-.304 1.008 0 1.99.094 2.932.274C16.786 1.414 17.864 0 18.639 0c.955 0 2.773 3.516 4.029 6.311C24.739 8.363 26 11.175 26 14.517c0 7.18-5.82 10.833-13 10.833S0 21.697 0 14.517c0-3.17 1.135-5.864 3.02-7.884C4.277 3.793 6.2 0 7.192 0c.78 0 1.868 1.434 2.725 2.904z" fill="#6656B7"/>
    <path d="M14.01 8.745c.287 0 .524.065.713.193.188.13.282.337.282.624v9.108c0 .287-.094.495-.282.624a1.155 1.155 0 0 1-.669.193c-.258 0-.48-.064-.669-.193-.188-.129-.282-.337-.282-.624v-7.696l-1.916 1.1c-.248.138-.48.168-.699.088a.992.992 0 0 1-.505-.46.95.95 0 0 1-.104-.64c.04-.227.174-.405.401-.534l2.511-1.397c.258-.138.48-.237.669-.297.188-.06.371-.089.55-.089z" fill="#fff"/>
</svg>
