<svg width="26" height="26" viewBox="0 0 26 26" fill="none" xmlns="http://www.w3.org/2000/svg">
<g clip-path="url(#clip0_269_287)">
<path fill-rule="evenodd" clip-rule="evenodd" d="M9.91701 2.90387C10.9053 2.70392 11.9378 2.60023 13 2.60023C14.0082 2.60023 14.9895 2.69363 15.9317 2.87408C16.7859 1.41493 17.8641 0 18.6391 0C19.594 0 21.4119 3.51612 22.6677 6.31112C24.7393 8.36311 26 11.1754 26 14.5169C26 21.6966 20.1797 25.3502 13 25.3502C5.8203 25.3502 0 21.6966 0 14.5169C0 11.3467 1.13477 8.65273 3.02028 6.63254C4.27719 3.7939 6.20031 0 7.19221 0C7.97248 0 9.06009 1.43425 9.91701 2.90387Z" fill="#EDEDED"/>
<path d="M12.7 8.83594C13.2693 8.83594 13.7593 8.90594 14.17 9.04594C14.59 9.18594 14.9307 9.3726 15.192 9.60594C15.4627 9.83927 15.6587 10.1146 15.78 10.4319C15.9107 10.7399 15.976 11.0619 15.976 11.3979V11.5519C15.976 12.0839 15.85 12.5973 15.598 13.0919C15.3553 13.5773 14.996 14.0579 14.52 14.5339L11.566 17.4599H15.808C16.0227 17.4599 16.1813 17.5346 16.284 17.6839C16.3867 17.8239 16.438 17.9966 16.438 18.2019C16.438 18.4073 16.3867 18.5846 16.284 18.7339C16.1813 18.8739 16.0227 18.9439 15.808 18.9439H10.474C10.026 18.9439 9.70399 18.8646 9.50799 18.7059C9.31199 18.5473 9.21399 18.3046 9.21399 17.9779C9.21399 17.8286 9.25132 17.6886 9.32599 17.5579C9.40999 17.4273 9.52666 17.2826 9.67599 17.1239L12.924 13.8479C13.1853 13.5866 13.3953 13.3579 13.554 13.1619C13.7127 12.9566 13.8387 12.7653 13.932 12.5879C14.0253 12.4106 14.086 12.2426 14.114 12.0839C14.1513 11.9159 14.17 11.7433 14.17 11.5659V11.4959C14.17 11.1879 14.0487 10.9359 13.806 10.7399C13.5727 10.5346 13.2133 10.4319 12.728 10.4319C12.308 10.4319 11.958 10.5113 11.678 10.6699C11.398 10.8286 11.1367 11.0666 10.894 11.3839C10.7633 11.5613 10.6 11.6639 10.404 11.6919C10.208 11.7199 10.0167 11.6686 9.82999 11.5379C9.64332 11.4073 9.52199 11.2439 9.46599 11.0479C9.40999 10.8519 9.45199 10.6466 9.59199 10.4319C9.89999 9.9746 10.3107 9.5966 10.824 9.29794C11.3373 8.98994 11.9627 8.83594 12.7 8.83594Z" fill="#BCBCBC"/>
</g>
<defs>
<clipPath id="clip0_269_287">
<rect width="26" height="26" fill="white"/>
</clipPath>
</defs>
</svg>
