<svg width="24" height="24" viewBox="0 0 24 24" fill="none" xmlns="http://www.w3.org/2000/svg">
<path fill-rule="evenodd" clip-rule="evenodd" d="M16.5693 11.2847C16.5693 14.7556 13.7556 17.5693 10.2847 17.5693C6.81374 17.5693 4 14.7556 4 11.2847C4 7.81374 6.81374 5 10.2847 5C13.7556 5 16.5693 7.81374 16.5693 11.2847ZM15.3931 17.8073C13.9857 18.9112 12.212 19.5693 10.2847 19.5693C5.70917 19.5693 2 15.8602 2 11.2847C2 6.70917 5.70917 3 10.2847 3C14.8602 3 18.5693 6.70917 18.5693 11.2847C18.5693 13.212 17.9112 14.9857 16.8073 16.3931L20.6572 20.2429C21.0477 20.6335 21.0477 21.2666 20.6572 21.6572C20.2666 22.0477 19.6335 22.0477 19.2429 21.6572L15.3931 17.8073Z" fill="black"/>
</svg>
