<svg width="24" height="24" viewBox="0 0 24 24" fill="none" xmlns="http://www.w3.org/2000/svg">
<g clip-path="url(#clip0_2_12114)">
<path fill-rule="evenodd" clip-rule="evenodd" d="M19.067 11.6942C19.067 11.9874 19.0415 12.2807 19.0032 12.5612L20.8902 14.0402C21.056 14.1804 21.107 14.4227 20.9922 14.6139L19.2072 17.6994C19.0925 17.8907 18.863 17.9672 18.659 17.8907L16.4405 16.9982C15.9815 17.3552 15.4715 17.6484 14.936 17.8779L14.6045 20.2367C14.5662 20.4534 14.375 20.6192 14.1582 20.6192H10.5882C10.3715 20.6192 10.1802 20.4534 10.142 20.2494L9.8105 17.8907C9.26225 17.6612 8.765 17.3679 8.30601 17.0109L6.08751 17.9034C5.88351 17.9799 5.65401 17.9034 5.53926 17.7122L3.75427 14.6267C3.63952 14.4354 3.69052 14.1932 3.85627 14.0529L5.74326 12.5739C5.70501 12.2807 5.67951 11.9874 5.67951 11.6942C5.67951 11.401 5.70501 11.1077 5.74326 10.8272L3.85627 9.34821C3.69052 9.20796 3.63952 8.96571 3.75427 8.77446L5.53926 5.68897C5.65401 5.49772 5.88351 5.42122 6.08751 5.49772L8.30601 6.39022C8.765 6.03322 9.275 5.73997 9.8105 5.51047L10.142 3.15173C10.1802 2.93498 10.3715 2.76923 10.5882 2.76923H14.1582C14.375 2.76923 14.5662 2.93498 14.6045 3.13897L14.936 5.49772C15.4842 5.72722 15.9815 6.02047 16.4405 6.37747L18.659 5.48497C18.863 5.40847 19.0925 5.48497 19.2072 5.67622L20.9922 8.76171C21.107 8.95296 21.056 9.19521 20.8902 9.33546L19.0032 10.8145C19.0415 11.1077 19.067 11.401 19.067 11.6942ZM9.82325 11.6942C9.82325 10.2917 10.9707 9.14421 12.3732 9.14421C13.7757 9.14421 14.9232 10.2917 14.9232 11.6942C14.9232 13.0967 13.7757 14.2442 12.3732 14.2442C10.9707 14.2442 9.82325 13.0967 9.82325 11.6942Z" stroke="black" stroke-width="2"/>
</g>
<defs>
<clipPath id="clip0_2_12114">
<rect width="24" height="24" fill="white"/>
</clipPath>
</defs>
</svg>
