<svg width="50" height="50" viewBox="0 0 50 50" fill="none" xmlns="http://www.w3.org/2000/svg">
<path fill-rule="evenodd" clip-rule="evenodd" d="M27.0808 18.5734C27.0808 19.7186 26.1525 20.647 25.0073 20.647C23.8621 20.647 22.9338 19.7186 22.9338 18.5734C22.9338 17.4283 23.8621 16.4999 25.0073 16.4999C26.1525 16.4999 27.0808 17.4283 27.0808 18.5734ZM19.8236 22.7204C20.9687 22.7204 21.8971 21.792 21.8971 20.6469C21.8971 19.5017 20.9687 18.5733 19.8236 18.5733C18.6784 18.5733 17.7501 19.5017 17.7501 20.6469C17.7501 21.792 18.6784 22.7204 19.8236 22.7204ZM25.0072 29.2C27.5838 29.2 29.6726 28.9256 29.6726 26.3489C29.6726 23.7723 27.5838 21.6835 25.0072 21.6835C22.4306 21.6835 20.3418 23.7723 20.3418 26.3489C20.3418 28.9256 22.4306 29.2 25.0072 29.2ZM30.191 22.7204C31.3362 22.7204 32.2645 21.792 32.2645 20.6469C32.2645 19.5017 31.3362 18.5733 30.191 18.5733C29.0458 18.5733 28.1175 19.5017 28.1175 20.6469C28.1175 21.792 29.0458 22.7204 30.191 22.7204Z" fill="#6656B7"/>
<path d="M42.75 34.627H35.4758C34.4531 34.627 33.9712 33.0837 34.6913 32.3575C37.2002 29.8274 38.75 26.3447 38.75 22.5C38.75 14.768 32.482 8.5 24.75 8.5C17.018 8.5 10.75 14.768 10.75 22.5C10.75 26.3447 12.2998 29.8274 14.8087 32.3575C15.5288 33.0837 15.0469 34.627 14.0242 34.627H7.25" stroke="#18132D" stroke-width="1.6" stroke-linecap="round"/>
<path d="M6.75 38H10.25M43.25 38H41.75M10.25 38L8.25 41.5M10.25 38H14.25M14.25 38L12.25 41.5M14.25 38H18.25M18.25 38L16.25 41.5M18.25 38H22.25M22.25 38L20.25 41.5M22.25 38H26.25M26.25 38L24.25 41.5M26.25 38H30.25M30.25 38L28.25 41.5M30.25 38H34.25M34.25 38L32.25 41.5M34.25 38H38.25M38.25 38L36.25 41.5M38.25 38H41.75M41.75 38L39.75 41.5" stroke="#6656B7" stroke-linecap="round"/>
</svg>
