<svg width="50" height="50" viewBox="0 0 50 50" fill="none" xmlns="http://www.w3.org/2000/svg">
<path d="M28.6995 10.94C28.6995 12.6713 27.2962 14.0746 25.5654 14.0746H15.3166C13.3417 14.0746 11.741 15.6757 11.741 17.6506C11.741 18.7995 12.2827 19.8218 13.1247 20.4761C11.2783 20.6164 9.82393 22.1593 9.82393 24.0417C9.82393 25.924 11.2783 27.4669 13.1247 27.6072C12.2827 28.2615 11.741 29.2839 11.741 30.4327C11.741 32.4076 13.3417 34.0087 15.3166 34.0087H25.2446C23.4912 35.0096 22.3093 36.8971 22.3093 39.0607V39.722C22.3093 40.8144 23.1949 41.7 24.2874 41.7C25.3798 41.7 26.2654 40.8144 26.2654 39.722V39.0607C26.2654 38.0353 27.0965 37.2042 28.1215 37.2042H34.6837C36.6585 37.2042 38.2593 35.6031 38.2593 33.6283C38.2593 32.4794 37.7175 31.457 36.8756 30.8028C38.722 30.6624 40.1763 29.1196 40.1763 27.2372C40.1763 25.3548 38.722 23.812 36.8756 23.6716C37.7175 23.0174 38.2593 21.995 38.2593 20.8461C38.2593 18.8713 36.6585 17.2701 34.6837 17.2701H28.764C31.0729 16.1009 32.6556 13.7052 32.6556 10.94V10.278C32.6556 9.1856 31.77 8.3 30.6775 8.3C29.5851 8.3 28.6995 9.1856 28.6995 10.278V10.94Z" stroke="#18132D" stroke-width="1.4" stroke-linecap="round"/>
</svg>
