<svg width="30" height="30" viewBox="0 0 30 30" fill="none" xmlns="http://www.w3.org/2000/svg">
<path fill-rule="evenodd" clip-rule="evenodd" d="M6.87501 8.49991H8.50002C8.50008 4.9101 11.4102 2 15 2C18.5899 2 21.5 4.9101 21.5001 8.49991H23.1251C24.4713 8.49991 25.5626 9.59123 25.5626 10.9374V25.5625C25.5626 26.9087 24.4713 28 23.1251 28H6.87501C5.52881 28 4.4375 26.9087 4.4375 25.5625V10.9374C4.4375 9.59123 5.52881 8.49991 6.87501 8.49991ZM15 3.62501C17.6924 3.62501 19.875 5.80757 19.8751 8.49991H10.125C10.1251 5.80757 12.3077 3.62501 15 3.62501ZM10.0148 12.2309C10.0148 11.7211 9.60153 11.3078 9.09173 11.3078C8.58193 11.3078 8.16865 11.7211 8.16865 12.2309C8.16865 16.0544 11.2682 19.1539 15.0917 19.1539C18.9152 19.1539 22.0148 16.0544 22.0148 12.2309C22.0148 11.7211 21.6015 11.3078 21.0917 11.3078C20.5819 11.3078 20.1687 11.7211 20.1687 12.2309C20.1687 15.0348 17.8956 17.3078 15.0917 17.3078C12.2878 17.3078 10.0148 15.0348 10.0148 12.2309Z" fill="#B6B3B9"/>
</svg>
