<svg width="50" height="50" viewBox="0 0 50 50" fill="none" xmlns="http://www.w3.org/2000/svg">
<path d="M10.806 18.6889L10.8061 18.6719C10.8061 16.1222 11.5697 14.1532 12.7341 12.833C13.8951 11.5169 15.4919 10.8 17.2718 10.8C18.4287 10.8 19.5124 11.1032 20.4503 11.6338C20.4593 11.6389 20.4684 11.6438 20.4776 11.6485L22.2458 12.5603C22.5064 12.7381 22.9157 12.9264 23.3418 13.0717C23.8185 13.2342 24.4182 13.3781 25.0062 13.3781C25.5941 13.3781 26.1938 13.2342 26.6706 13.0717C27.0966 12.9264 27.506 12.7381 27.7666 12.5603L29.5347 11.6485C29.5439 11.6438 29.553 11.6389 29.562 11.6338C30.4999 11.1032 31.5836 10.8 32.7406 10.8C34.5204 10.8 36.1172 11.5169 37.2782 12.833C38.4427 14.1532 39.2062 16.1222 39.2062 18.6719L39.2064 18.6889C39.2801 22.1531 38.766 24.7536 33.9019 34.4823L33.9004 34.4852L33.8977 34.4904C33.4713 35.3207 32.8396 36.5473 32.0766 37.5653C31.6956 38.0736 31.305 38.4979 30.9191 38.7892C30.5321 39.0815 30.2037 39.2001 29.9281 39.2001C29.2112 39.2001 28.7896 38.8961 28.4615 38.4453C28.1561 38.0259 27.9639 37.5298 27.7599 37.0032L27.7491 36.9754C27.7083 36.87 27.6669 36.7635 27.6239 36.6562C27.598 36.5913 27.5675 36.5098 27.5327 36.4165L27.5323 36.4152C27.3983 36.0567 27.1991 35.5239 26.9368 35.0808C26.6038 34.5184 26.0041 33.8094 25.0062 33.8094C24.0082 33.8094 23.4085 34.5184 23.0756 35.0808C22.8129 35.5244 22.6136 36.058 22.4797 36.4165C22.4448 36.5098 22.4143 36.5913 22.3884 36.6562C22.3417 36.773 22.2968 36.8888 22.2525 37.0032L22.2522 37.004C22.0482 37.5303 21.8561 38.0261 21.5509 38.4453C21.2227 38.8961 20.8012 39.2001 20.0843 39.2001C19.8092 39.2001 19.4807 39.0814 19.0929 38.7882C18.7065 38.496 18.3152 38.0704 17.9336 37.5611C17.1694 36.5408 16.5367 35.3125 16.1111 34.4837L16.1104 34.4823C11.2463 24.7536 10.7322 22.1531 10.806 18.6889Z" stroke="#18132D" stroke-width="1.6" stroke-linejoin="round"/>
<path d="M21.7251 17.9219C21.7251 17.9219 22.897 19.0938 24.8892 19.0938C26.8814 19.0938 28.0532 17.9219 28.0532 17.9219" stroke="#4F4197" stroke-width="1.6" stroke-linecap="round"/>
</svg>
